G04 PROTEUS GERBER X2 FILE*
%TF.GenerationSoftware,Labcenter,Proteus,8.6-SP1-Build23413*%
%TF.CreationDate,2017-02-04T10:42:02+00:00*%
%TF.FileFunction,AssemblyDrawing,Top*%
%TF.FilePolarity,Positive*%
%TF.Part,Single*%
%FSLAX45Y45*%
%MOMM*%
G01*
%TA.AperFunction,Material*%
%ADD71C,0.203200*%
%ADD73C,0.227330*%
%ADD30C,0.132080*%
%ADD31C,0.545590*%
%ADD32C,0.106680*%
%ADD33C,0.218440*%
%ADD34C,0.345440*%
%ADD35C,0.164590*%
%ADD36C,0.176100*%
%ADD37C,0.197270*%
%ADD38C,0.316990*%
%TA.AperFunction,Profile*%
%ADD70C,0.203200*%
%TA.AperFunction,Material*%
%ADD39C,0.894080*%
%ADD40C,0.715260*%
%ADD41C,0.767080*%
%ADD42C,0.533400*%
%ADD43C,0.512060*%
%ADD44C,0.513080*%
%ADD45C,0.449580*%
%ADD46C,0.148040*%
%ADD47C,0.990600*%
%ADD48C,0.037730*%
%TD.AperFunction*%
D71*
X-104140Y-5712460D02*
X+678180Y-5712460D01*
X+678180Y-4803140D01*
X-104140Y-4803140D01*
X-104140Y-5712460D01*
D73*
X+355219Y-5530596D02*
X+218821Y-5530596D01*
X+218821Y-5416931D01*
X+241554Y-5394198D01*
X+264287Y-5394198D01*
X+287020Y-5416931D01*
X+287020Y-5530596D01*
X+218821Y-5348732D02*
X+355219Y-5348732D01*
X+287020Y-5280533D01*
X+355219Y-5212334D01*
X+218821Y-5212334D01*
X+355219Y-5166868D02*
X+218821Y-5166868D01*
X+218821Y-5053203D01*
X+241554Y-5030470D01*
X+264287Y-5030470D01*
X+287020Y-5053203D01*
X+287020Y-5166868D01*
X+287020Y-5053203D02*
X+309753Y-5030470D01*
X+355219Y-5030470D01*
D71*
X+1386840Y-5471160D02*
X+1661160Y-5471160D01*
X+1661160Y-4942840D01*
X+1386840Y-4942840D01*
X+1386840Y-5471160D01*
D30*
X+1563624Y-5365496D02*
X+1484376Y-5365496D01*
X+1484376Y-5299456D01*
X+1497584Y-5286248D01*
X+1510792Y-5286248D01*
X+1524000Y-5299456D01*
X+1524000Y-5365496D01*
X+1524000Y-5299456D02*
X+1537208Y-5286248D01*
X+1563624Y-5286248D01*
X+1550416Y-5259832D02*
X+1563624Y-5246624D01*
X+1563624Y-5193792D01*
X+1550416Y-5180584D01*
X+1537208Y-5180584D01*
X+1524000Y-5193792D01*
X+1524000Y-5246624D01*
X+1510792Y-5259832D01*
X+1497584Y-5259832D01*
X+1484376Y-5246624D01*
X+1484376Y-5193792D01*
X+1497584Y-5180584D01*
X+1484376Y-5154168D02*
X+1484376Y-5074920D01*
X+1484376Y-5114544D02*
X+1563624Y-5114544D01*
D71*
X-317500Y-4391660D02*
X+1879600Y-4391660D01*
X+1879600Y-3482340D01*
X-317500Y-3482340D01*
X-317500Y-4391660D01*
D31*
X+126341Y-3773323D02*
X+126341Y-4046119D01*
X+180900Y-4100678D01*
X+399136Y-4100678D01*
X+453695Y-4046119D01*
X+453695Y-3773323D01*
X+617373Y-3827882D02*
X+671932Y-3773323D01*
X+835609Y-3773323D01*
X+890168Y-3827882D01*
X+890168Y-3882441D01*
X+835609Y-3937000D01*
X+890168Y-3991560D01*
X+890168Y-4046119D01*
X+835609Y-4100678D01*
X+671932Y-4100678D01*
X+617373Y-4046119D01*
X+726491Y-3937000D02*
X+835609Y-3937000D01*
X+1053846Y-3827882D02*
X+1108405Y-3773323D01*
X+1272082Y-3773323D01*
X+1326641Y-3827882D01*
X+1326641Y-3882441D01*
X+1272082Y-3937000D01*
X+1326641Y-3991560D01*
X+1326641Y-4046119D01*
X+1272082Y-4100678D01*
X+1108405Y-4100678D01*
X+1053846Y-4046119D01*
X+1162964Y-3937000D02*
X+1272082Y-3937000D01*
D71*
X-215900Y-3136900D02*
X+977900Y-3136900D01*
X+977900Y-2959100D01*
X-215900Y-2959100D01*
X-215900Y-3136900D01*
D32*
X+295656Y-3080004D02*
X+295656Y-3015996D01*
X+348996Y-3015996D01*
X+359664Y-3026664D01*
X+359664Y-3037332D01*
X+348996Y-3048000D01*
X+295656Y-3048000D01*
X+348996Y-3048000D02*
X+359664Y-3058668D01*
X+359664Y-3080004D01*
X+391668Y-3026664D02*
X+402336Y-3015996D01*
X+434340Y-3015996D01*
X+445008Y-3026664D01*
X+445008Y-3037332D01*
X+434340Y-3048000D01*
X+402336Y-3048000D01*
X+391668Y-3058668D01*
X+391668Y-3080004D01*
X+445008Y-3080004D01*
D71*
X-215900Y-2882900D02*
X+977900Y-2882900D01*
X+977900Y-2705100D01*
X-215900Y-2705100D01*
X-215900Y-2882900D01*
D32*
X+295656Y-2826004D02*
X+295656Y-2761996D01*
X+348996Y-2761996D01*
X+359664Y-2772664D01*
X+359664Y-2783332D01*
X+348996Y-2794000D01*
X+295656Y-2794000D01*
X+348996Y-2794000D02*
X+359664Y-2804668D01*
X+359664Y-2826004D01*
X+391668Y-2772664D02*
X+402336Y-2761996D01*
X+434340Y-2761996D01*
X+445008Y-2772664D01*
X+445008Y-2783332D01*
X+434340Y-2794000D01*
X+445008Y-2804668D01*
X+445008Y-2815336D01*
X+434340Y-2826004D01*
X+402336Y-2826004D01*
X+391668Y-2815336D01*
X+413004Y-2794000D02*
X+434340Y-2794000D01*
D71*
X-215900Y-2374900D02*
X+977900Y-2374900D01*
X+977900Y-2197100D01*
X-215900Y-2197100D01*
X-215900Y-2374900D01*
D32*
X+295656Y-2318004D02*
X+295656Y-2253996D01*
X+348996Y-2253996D01*
X+359664Y-2264664D01*
X+359664Y-2275332D01*
X+348996Y-2286000D01*
X+295656Y-2286000D01*
X+348996Y-2286000D02*
X+359664Y-2296668D01*
X+359664Y-2318004D01*
X+445008Y-2253996D02*
X+391668Y-2253996D01*
X+391668Y-2275332D01*
X+434340Y-2275332D01*
X+445008Y-2286000D01*
X+445008Y-2307336D01*
X+434340Y-2318004D01*
X+402336Y-2318004D01*
X+391668Y-2307336D01*
D71*
X+1450340Y-2867660D02*
X+2105660Y-2867660D01*
X+2105660Y-2212340D01*
X+1450340Y-2212340D01*
X+1450340Y-2867660D01*
D33*
X+1734312Y-2583688D02*
X+1712468Y-2605532D01*
X+1646936Y-2605532D01*
X+1603248Y-2561844D01*
X+1603248Y-2518156D01*
X+1646936Y-2474468D01*
X+1712468Y-2474468D01*
X+1734312Y-2496312D01*
X+1821688Y-2518156D02*
X+1865376Y-2474468D01*
X+1865376Y-2605532D01*
D71*
X+1386840Y-2042160D02*
X+2423160Y-2042160D01*
X+2423160Y-1005840D01*
X+1386840Y-1005840D01*
X+1386840Y-2042160D01*
D34*
X+1835912Y-1593088D02*
X+1801368Y-1627632D01*
X+1697736Y-1627632D01*
X+1628648Y-1558544D01*
X+1628648Y-1489456D01*
X+1697736Y-1420368D01*
X+1801368Y-1420368D01*
X+1835912Y-1454912D01*
X+1939544Y-1454912D02*
X+1974088Y-1420368D01*
X+2077720Y-1420368D01*
X+2112264Y-1454912D01*
X+2112264Y-1489456D01*
X+2077720Y-1524000D01*
X+1974088Y-1524000D01*
X+1939544Y-1558544D01*
X+1939544Y-1627632D01*
X+2112264Y-1627632D01*
D71*
X+878840Y-1915160D02*
X+1153160Y-1915160D01*
X+1153160Y-1132840D01*
X+878840Y-1132840D01*
X+878840Y-1915160D01*
D35*
X+1048919Y-1556919D02*
X+1065378Y-1573378D01*
X+1065378Y-1622755D01*
X+1032460Y-1655673D01*
X+999541Y-1655673D01*
X+966623Y-1622755D01*
X+966623Y-1573378D01*
X+983082Y-1556919D01*
X+1032460Y-1425246D02*
X+1032460Y-1524000D01*
X+966623Y-1458164D01*
X+1065378Y-1458164D01*
D71*
X+80840Y-1859160D02*
X+609160Y-1859160D01*
X+609160Y-1330840D01*
X+80840Y-1330840D01*
X+80840Y-1859160D01*
D36*
X+309779Y-1630222D02*
X+292168Y-1647832D01*
X+239337Y-1647832D01*
X+204116Y-1612611D01*
X+204116Y-1577390D01*
X+239337Y-1542169D01*
X+292168Y-1542169D01*
X+309779Y-1559779D01*
X+450663Y-1542169D02*
X+362610Y-1542169D01*
X+362610Y-1577390D01*
X+433052Y-1577390D01*
X+450663Y-1595000D01*
X+450663Y-1630222D01*
X+433052Y-1647832D01*
X+380221Y-1647832D01*
X+362610Y-1630222D01*
D71*
X+2578100Y-4533900D02*
X+2755900Y-4533900D01*
X+2755900Y-3594100D01*
X+2578100Y-3594100D01*
X+2578100Y-4533900D01*
D32*
X+2699004Y-4149344D02*
X+2634996Y-4149344D01*
X+2634996Y-4106672D01*
X+2656332Y-4085336D01*
X+2677668Y-4085336D01*
X+2699004Y-4106672D01*
X+2699004Y-4149344D01*
X+2656332Y-4042664D02*
X+2634996Y-4021328D01*
X+2699004Y-4021328D01*
D71*
X+2324100Y-4533900D02*
X+2501900Y-4533900D01*
X+2501900Y-3594100D01*
X+2324100Y-3594100D01*
X+2324100Y-4533900D01*
D32*
X+2445004Y-4149344D02*
X+2380996Y-4149344D01*
X+2380996Y-4106672D01*
X+2402332Y-4085336D01*
X+2423668Y-4085336D01*
X+2445004Y-4106672D01*
X+2445004Y-4149344D01*
X+2391664Y-4053332D02*
X+2380996Y-4042664D01*
X+2380996Y-4010660D01*
X+2391664Y-3999992D01*
X+2402332Y-3999992D01*
X+2413000Y-4010660D01*
X+2413000Y-4042664D01*
X+2423668Y-4053332D01*
X+2445004Y-4053332D01*
X+2445004Y-3999992D01*
D71*
X+2212340Y-2804160D02*
X+2804160Y-2804160D01*
X+2804160Y-2212340D01*
X+2212340Y-2212340D01*
X+2212340Y-2804160D01*
D37*
X+2350432Y-2567432D02*
X+2350432Y-2449068D01*
X+2429341Y-2449068D01*
X+2468795Y-2488523D01*
X+2468795Y-2527977D01*
X+2429341Y-2567432D01*
X+2350432Y-2567432D01*
X+2527977Y-2468795D02*
X+2547704Y-2449068D01*
X+2606886Y-2449068D01*
X+2626613Y-2468795D01*
X+2626613Y-2488523D01*
X+2606886Y-2508250D01*
X+2626613Y-2527977D01*
X+2626613Y-2547705D01*
X+2606886Y-2567432D01*
X+2547704Y-2567432D01*
X+2527977Y-2547705D01*
X+2567431Y-2508250D02*
X+2606886Y-2508250D01*
D71*
X+116840Y+7355840D02*
X+645160Y+7355840D01*
X+645160Y+11694160D01*
X+116840Y+11694160D01*
X+116840Y+7355840D01*
D38*
X+476098Y+8193636D02*
X+476098Y+8003442D01*
X+285903Y+8003442D01*
X+285903Y+8193636D01*
X+381000Y+8003442D02*
X+381000Y+8130238D01*
X+285903Y+8257035D02*
X+476098Y+8447229D01*
X+476098Y+8257035D02*
X+285903Y+8447229D01*
X+476098Y+8510628D02*
X+285903Y+8510628D01*
X+285903Y+8669123D01*
X+317602Y+8700822D01*
X+349301Y+8700822D01*
X+381000Y+8669123D01*
X+381000Y+8510628D01*
X+476098Y+8764221D02*
X+349301Y+8764221D01*
X+285903Y+8827619D01*
X+285903Y+8891017D01*
X+349301Y+8954415D01*
X+476098Y+8954415D01*
X+412700Y+8764221D02*
X+412700Y+8954415D01*
X+476098Y+9017814D02*
X+285903Y+9017814D01*
X+476098Y+9208008D01*
X+285903Y+9208008D01*
X+444399Y+9271407D02*
X+476098Y+9303106D01*
X+476098Y+9429902D01*
X+444399Y+9461601D01*
X+412700Y+9461601D01*
X+381000Y+9429902D01*
X+381000Y+9303106D01*
X+349301Y+9271407D01*
X+317602Y+9271407D01*
X+285903Y+9303106D01*
X+285903Y+9429902D01*
X+317602Y+9461601D01*
X+285903Y+9556699D02*
X+285903Y+9683495D01*
X+285903Y+9620097D02*
X+476098Y+9620097D01*
X+476098Y+9556699D02*
X+476098Y+9683495D01*
X+349301Y+9778593D02*
X+285903Y+9841991D01*
X+285903Y+9905389D01*
X+349301Y+9968787D01*
X+412700Y+9968787D01*
X+476098Y+9905389D01*
X+476098Y+9841991D01*
X+412700Y+9778593D01*
X+349301Y+9778593D01*
X+476098Y+10032186D02*
X+285903Y+10032186D01*
X+476098Y+10222380D01*
X+285903Y+10222380D01*
X+476098Y+10285779D02*
X+285903Y+10285779D01*
X+285903Y+10444274D01*
X+317602Y+10475973D01*
X+349301Y+10475973D01*
X+381000Y+10444274D01*
X+412700Y+10475973D01*
X+444399Y+10475973D01*
X+476098Y+10444274D01*
X+476098Y+10285779D01*
X+381000Y+10285779D02*
X+381000Y+10444274D01*
X+285903Y+10539372D02*
X+444399Y+10539372D01*
X+476098Y+10571071D01*
X+476098Y+10697867D01*
X+444399Y+10729566D01*
X+285903Y+10729566D01*
X+444399Y+10792965D02*
X+476098Y+10824664D01*
X+476098Y+10951460D01*
X+444399Y+10983159D01*
X+412700Y+10983159D01*
X+381000Y+10951460D01*
X+381000Y+10824664D01*
X+349301Y+10792965D01*
X+317602Y+10792965D01*
X+285903Y+10824664D01*
X+285903Y+10951460D01*
X+317602Y+10983159D01*
D70*
X-508000Y-8255000D02*
X+15049500Y-8255000D01*
X+15049500Y+12573000D01*
X-508000Y+12573000D01*
X-508000Y-8255000D01*
D71*
X+243840Y+4889500D02*
X+3820160Y+4889500D01*
X+3820160Y+6540500D01*
X+243840Y+6540500D01*
X+243840Y+4889500D01*
D39*
X+959104Y+5983224D02*
X+959104Y+5536184D01*
X+1048512Y+5446776D01*
X+1406144Y+5446776D01*
X+1495552Y+5536184D01*
X+1495552Y+5983224D01*
X+1763776Y+5893816D02*
X+1853184Y+5983224D01*
X+2121408Y+5983224D01*
X+2210816Y+5893816D01*
X+2210816Y+5804408D01*
X+2121408Y+5715000D01*
X+1853184Y+5715000D01*
X+1763776Y+5625592D01*
X+1763776Y+5446776D01*
X+2210816Y+5446776D01*
X+2479040Y+5893816D02*
X+2568448Y+5983224D01*
X+2836672Y+5983224D01*
X+2926080Y+5893816D01*
X+2926080Y+5804408D01*
X+2836672Y+5715000D01*
X+2568448Y+5715000D01*
X+2479040Y+5625592D01*
X+2479040Y+5446776D01*
X+2926080Y+5446776D01*
D71*
X+243840Y+3111500D02*
X+3820160Y+3111500D01*
X+3820160Y+4762500D01*
X+243840Y+4762500D01*
X+243840Y+3111500D01*
D39*
X+959104Y+4205224D02*
X+959104Y+3758184D01*
X+1048512Y+3668776D01*
X+1406144Y+3668776D01*
X+1495552Y+3758184D01*
X+1495552Y+4205224D01*
X+1763776Y+4115816D02*
X+1853184Y+4205224D01*
X+2121408Y+4205224D01*
X+2210816Y+4115816D01*
X+2210816Y+4026408D01*
X+2121408Y+3937000D01*
X+1853184Y+3937000D01*
X+1763776Y+3847592D01*
X+1763776Y+3668776D01*
X+2210816Y+3668776D01*
X+2479040Y+4115816D02*
X+2568448Y+4205224D01*
X+2836672Y+4205224D01*
X+2926080Y+4115816D01*
X+2926080Y+4026408D01*
X+2836672Y+3937000D01*
X+2926080Y+3847592D01*
X+2926080Y+3758184D01*
X+2836672Y+3668776D01*
X+2568448Y+3668776D01*
X+2479040Y+3758184D01*
X+2657856Y+3937000D02*
X+2836672Y+3937000D01*
D71*
X+243840Y+1333500D02*
X+3820160Y+1333500D01*
X+3820160Y+2984500D01*
X+243840Y+2984500D01*
X+243840Y+1333500D01*
D39*
X+959104Y+2427224D02*
X+959104Y+1980184D01*
X+1048512Y+1890776D01*
X+1406144Y+1890776D01*
X+1495552Y+1980184D01*
X+1495552Y+2427224D01*
X+1763776Y+2337816D02*
X+1853184Y+2427224D01*
X+2121408Y+2427224D01*
X+2210816Y+2337816D01*
X+2210816Y+2248408D01*
X+2121408Y+2159000D01*
X+1853184Y+2159000D01*
X+1763776Y+2069592D01*
X+1763776Y+1890776D01*
X+2210816Y+1890776D01*
X+2926080Y+2069592D02*
X+2389632Y+2069592D01*
X+2747264Y+2427224D01*
X+2747264Y+1890776D01*
D71*
X+243840Y-444500D02*
X+3820160Y-444500D01*
X+3820160Y+1206500D01*
X+243840Y+1206500D01*
X+243840Y-444500D01*
D39*
X+959104Y+649224D02*
X+959104Y+202184D01*
X+1048512Y+112776D01*
X+1406144Y+112776D01*
X+1495552Y+202184D01*
X+1495552Y+649224D01*
X+1763776Y+559816D02*
X+1853184Y+649224D01*
X+2121408Y+649224D01*
X+2210816Y+559816D01*
X+2210816Y+470408D01*
X+2121408Y+381000D01*
X+1853184Y+381000D01*
X+1763776Y+291592D01*
X+1763776Y+112776D01*
X+2210816Y+112776D01*
X+2926080Y+649224D02*
X+2479040Y+649224D01*
X+2479040Y+470408D01*
X+2836672Y+470408D01*
X+2926080Y+381000D01*
X+2926080Y+202184D01*
X+2836672Y+112776D01*
X+2568448Y+112776D01*
X+2479040Y+202184D01*
D71*
X+5016500Y+8244840D02*
X+6667500Y+8244840D01*
X+6667500Y+11821160D01*
X+5016500Y+11821160D01*
X+5016500Y+8244840D01*
D40*
X+5627421Y+8888578D02*
X+5985053Y+8888578D01*
X+6056580Y+8960104D01*
X+6056580Y+9246209D01*
X+5985053Y+9317736D01*
X+5627421Y+9317736D01*
X+5770474Y+9603841D02*
X+5627421Y+9746894D01*
X+6056580Y+9746894D01*
X+5698948Y+10104526D02*
X+5627421Y+10176052D01*
X+5627421Y+10390631D01*
X+5698948Y+10462158D01*
X+5770474Y+10462158D01*
X+5842000Y+10390631D01*
X+5842000Y+10176052D01*
X+5913527Y+10104526D01*
X+6056580Y+10104526D01*
X+6056580Y+10462158D01*
X+5627421Y+11034369D02*
X+5627421Y+10676737D01*
X+5770474Y+10676737D01*
X+5770474Y+10962842D01*
X+5842000Y+11034369D01*
X+5985053Y+11034369D01*
X+6056580Y+10962842D01*
X+6056580Y+10748263D01*
X+5985053Y+10676737D01*
D71*
X+7302500Y+8752840D02*
X+8953500Y+8752840D01*
X+8953500Y+11821160D01*
X+7302500Y+11821160D01*
X+7302500Y+8752840D01*
D41*
X+7897876Y+9366504D02*
X+8281416Y+9366504D01*
X+8358124Y+9443212D01*
X+8358124Y+9750044D01*
X+8281416Y+9826752D01*
X+7897876Y+9826752D01*
X+7974584Y+10056876D02*
X+7897876Y+10133584D01*
X+7897876Y+10363708D01*
X+7974584Y+10440416D01*
X+8051292Y+10440416D01*
X+8128000Y+10363708D01*
X+8204708Y+10440416D01*
X+8281416Y+10440416D01*
X+8358124Y+10363708D01*
X+8358124Y+10133584D01*
X+8281416Y+10056876D01*
X+8128000Y+10210292D02*
X+8128000Y+10363708D01*
X+8281416Y+10593832D02*
X+7974584Y+10593832D01*
X+7897876Y+10670540D01*
X+7897876Y+10977372D01*
X+7974584Y+11054080D01*
X+8281416Y+11054080D01*
X+8358124Y+10977372D01*
X+8358124Y+10670540D01*
X+8281416Y+10593832D01*
X+8358124Y+10593832D02*
X+7897876Y+11054080D01*
D71*
X+10858500Y+8244840D02*
X+12509500Y+8244840D01*
X+12509500Y+11821160D01*
X+10858500Y+11821160D01*
X+10858500Y+8244840D01*
D39*
X+11415776Y+8960104D02*
X+11862816Y+8960104D01*
X+11952224Y+9049512D01*
X+11952224Y+9407144D01*
X+11862816Y+9496552D01*
X+11415776Y+9496552D01*
X+11415776Y+10211816D02*
X+11415776Y+9764776D01*
X+11594592Y+9764776D01*
X+11594592Y+10122408D01*
X+11684000Y+10211816D01*
X+11862816Y+10211816D01*
X+11952224Y+10122408D01*
X+11952224Y+9854184D01*
X+11862816Y+9764776D01*
X+11505184Y+10480040D02*
X+11415776Y+10569448D01*
X+11415776Y+10837672D01*
X+11505184Y+10927080D01*
X+11594592Y+10927080D01*
X+11684000Y+10837672D01*
X+11773408Y+10927080D01*
X+11862816Y+10927080D01*
X+11952224Y+10837672D01*
X+11952224Y+10569448D01*
X+11862816Y+10480040D01*
X+11684000Y+10658856D02*
X+11684000Y+10837672D01*
D71*
X+12636500Y+8244840D02*
X+14287500Y+8244840D01*
X+14287500Y+11821160D01*
X+12636500Y+11821160D01*
X+12636500Y+8244840D01*
D39*
X+13193776Y+8960104D02*
X+13640816Y+8960104D01*
X+13730224Y+9049512D01*
X+13730224Y+9407144D01*
X+13640816Y+9496552D01*
X+13193776Y+9496552D01*
X+13193776Y+10211816D02*
X+13193776Y+9764776D01*
X+13372592Y+9764776D01*
X+13372592Y+10122408D01*
X+13462000Y+10211816D01*
X+13640816Y+10211816D01*
X+13730224Y+10122408D01*
X+13730224Y+9854184D01*
X+13640816Y+9764776D01*
X+13551408Y+10927080D02*
X+13551408Y+10390632D01*
X+13193776Y+10748264D01*
X+13730224Y+10748264D01*
D71*
X+952500Y+7355840D02*
X+1841500Y+7355840D01*
X+1841500Y+9916160D01*
X+952500Y+9916160D01*
X+952500Y+7355840D01*
D42*
X+1236980Y+7995920D02*
X+1503680Y+7995920D01*
X+1557020Y+8049260D01*
X+1557020Y+8262620D01*
X+1503680Y+8315960D01*
X+1236980Y+8315960D01*
X+1343660Y+8529320D02*
X+1236980Y+8636000D01*
X+1557020Y+8636000D01*
X+1450340Y+9169400D02*
X+1450340Y+8849360D01*
X+1236980Y+9062720D01*
X+1557020Y+9062720D01*
D71*
X+2095500Y+9260840D02*
X+2984500Y+9260840D01*
X+2984500Y+11821160D01*
X+2095500Y+11821160D01*
X+2095500Y+9260840D01*
D42*
X+2379980Y+9900920D02*
X+2646680Y+9900920D01*
X+2700020Y+9954260D01*
X+2700020Y+10167620D01*
X+2646680Y+10220960D01*
X+2379980Y+10220960D01*
X+2540000Y+10434320D02*
X+2486660Y+10380980D01*
X+2433320Y+10380980D01*
X+2379980Y+10434320D01*
X+2379980Y+10594340D01*
X+2433320Y+10647680D01*
X+2486660Y+10647680D01*
X+2540000Y+10594340D01*
X+2540000Y+10434320D01*
X+2593340Y+10380980D01*
X+2646680Y+10380980D01*
X+2700020Y+10434320D01*
X+2700020Y+10594340D01*
X+2646680Y+10647680D01*
X+2593340Y+10647680D01*
X+2540000Y+10594340D01*
X+2646680Y+10754360D02*
X+2433320Y+10754360D01*
X+2379980Y+10807700D01*
X+2379980Y+11021060D01*
X+2433320Y+11074400D01*
X+2646680Y+11074400D01*
X+2700020Y+11021060D01*
X+2700020Y+10807700D01*
X+2646680Y+10754360D01*
X+2700020Y+10754360D02*
X+2379980Y+11074400D01*
D71*
X+3111500Y-3312160D02*
X+4000500Y-3312160D01*
X+4000500Y-751840D01*
X+3111500Y-751840D01*
X+3111500Y-3312160D01*
D42*
X+3395980Y-2672080D02*
X+3662680Y-2672080D01*
X+3716020Y-2618740D01*
X+3716020Y-2405380D01*
X+3662680Y-2352040D01*
X+3395980Y-2352040D01*
X+3502660Y-2138680D02*
X+3395980Y-2032000D01*
X+3716020Y-2032000D01*
X+3395980Y-1498600D02*
X+3395980Y-1765300D01*
X+3502660Y-1765300D01*
X+3502660Y-1551940D01*
X+3556000Y-1498600D01*
X+3662680Y-1498600D01*
X+3716020Y-1551940D01*
X+3716020Y-1711960D01*
X+3662680Y-1765300D01*
D71*
X+3238500Y+7609840D02*
X+4127500Y+7609840D01*
X+4127500Y+10170160D01*
X+3238500Y+10170160D01*
X+3238500Y+7609840D01*
D42*
X+3522980Y+8249920D02*
X+3789680Y+8249920D01*
X+3843020Y+8303260D01*
X+3843020Y+8516620D01*
X+3789680Y+8569960D01*
X+3522980Y+8569960D01*
X+3683000Y+8783320D02*
X+3629660Y+8729980D01*
X+3576320Y+8729980D01*
X+3522980Y+8783320D01*
X+3522980Y+8943340D01*
X+3576320Y+8996680D01*
X+3629660Y+8996680D01*
X+3683000Y+8943340D01*
X+3683000Y+8783320D01*
X+3736340Y+8729980D01*
X+3789680Y+8729980D01*
X+3843020Y+8783320D01*
X+3843020Y+8943340D01*
X+3789680Y+8996680D01*
X+3736340Y+8996680D01*
X+3683000Y+8943340D01*
X+3629660Y+9210040D02*
X+3522980Y+9316720D01*
X+3843020Y+9316720D01*
D71*
X+5143500Y+5196840D02*
X+6032500Y+5196840D01*
X+6032500Y+7757160D01*
X+5143500Y+7757160D01*
X+5143500Y+5196840D01*
D42*
X+5427980Y+5836920D02*
X+5694680Y+5836920D01*
X+5748020Y+5890260D01*
X+5748020Y+6103620D01*
X+5694680Y+6156960D01*
X+5427980Y+6156960D01*
X+5534660Y+6370320D02*
X+5427980Y+6477000D01*
X+5748020Y+6477000D01*
X+5481320Y+7010400D02*
X+5427980Y+6957060D01*
X+5427980Y+6797040D01*
X+5481320Y+6743700D01*
X+5694680Y+6743700D01*
X+5748020Y+6797040D01*
X+5748020Y+6957060D01*
X+5694680Y+7010400D01*
X+5641340Y+7010400D01*
X+5588000Y+6957060D01*
X+5588000Y+6743700D01*
D71*
X+6159500Y+5196840D02*
X+7048500Y+5196840D01*
X+7048500Y+7757160D01*
X+6159500Y+7757160D01*
X+6159500Y+5196840D01*
D42*
X+6443980Y+5836920D02*
X+6710680Y+5836920D01*
X+6764020Y+5890260D01*
X+6764020Y+6103620D01*
X+6710680Y+6156960D01*
X+6443980Y+6156960D01*
X+6550660Y+6370320D02*
X+6443980Y+6477000D01*
X+6764020Y+6477000D01*
X+6443980Y+6743700D02*
X+6443980Y+7010400D01*
X+6497320Y+7010400D01*
X+6764020Y+6743700D01*
D71*
X+7175500Y+5196840D02*
X+8064500Y+5196840D01*
X+8064500Y+7757160D01*
X+7175500Y+7757160D01*
X+7175500Y+5196840D01*
D42*
X+7459980Y+5836920D02*
X+7726680Y+5836920D01*
X+7780020Y+5890260D01*
X+7780020Y+6103620D01*
X+7726680Y+6156960D01*
X+7459980Y+6156960D01*
X+7673340Y+6583680D02*
X+7673340Y+6263640D01*
X+7459980Y+6477000D01*
X+7780020Y+6477000D01*
X+7620000Y+6797040D02*
X+7566660Y+6743700D01*
X+7513320Y+6743700D01*
X+7459980Y+6797040D01*
X+7459980Y+6957060D01*
X+7513320Y+7010400D01*
X+7566660Y+7010400D01*
X+7620000Y+6957060D01*
X+7620000Y+6797040D01*
X+7673340Y+6743700D01*
X+7726680Y+6743700D01*
X+7780020Y+6797040D01*
X+7780020Y+6957060D01*
X+7726680Y+7010400D01*
X+7673340Y+7010400D01*
X+7620000Y+6957060D01*
D71*
X+7228840Y+3619500D02*
X+9789160Y+3619500D01*
X+9789160Y+4508500D01*
X+7228840Y+4508500D01*
X+7228840Y+3619500D01*
D42*
X+7868920Y+4224020D02*
X+7868920Y+3957320D01*
X+7922260Y+3903980D01*
X+8135620Y+3903980D01*
X+8188960Y+3957320D01*
X+8188960Y+4224020D01*
X+8402320Y+4064000D02*
X+8348980Y+4117340D01*
X+8348980Y+4170680D01*
X+8402320Y+4224020D01*
X+8562340Y+4224020D01*
X+8615680Y+4170680D01*
X+8615680Y+4117340D01*
X+8562340Y+4064000D01*
X+8402320Y+4064000D01*
X+8348980Y+4010660D01*
X+8348980Y+3957320D01*
X+8402320Y+3903980D01*
X+8562340Y+3903980D01*
X+8615680Y+3957320D01*
X+8615680Y+4010660D01*
X+8562340Y+4064000D01*
X+8775700Y+4170680D02*
X+8829040Y+4224020D01*
X+8989060Y+4224020D01*
X+9042400Y+4170680D01*
X+9042400Y+4117340D01*
X+8989060Y+4064000D01*
X+8829040Y+4064000D01*
X+8775700Y+4010660D01*
X+8775700Y+3903980D01*
X+9042400Y+3903980D01*
D71*
X+4254500Y-1788160D02*
X+5143500Y-1788160D01*
X+5143500Y+772160D01*
X+4254500Y+772160D01*
X+4254500Y-1788160D01*
D42*
X+4538980Y-1148080D02*
X+4805680Y-1148080D01*
X+4859020Y-1094740D01*
X+4859020Y-881380D01*
X+4805680Y-828040D01*
X+4538980Y-828040D01*
X+4645660Y-614680D02*
X+4538980Y-508000D01*
X+4859020Y-508000D01*
X+4699000Y-187960D02*
X+4645660Y-241300D01*
X+4592320Y-241300D01*
X+4538980Y-187960D01*
X+4538980Y-27940D01*
X+4592320Y+25400D01*
X+4645660Y+25400D01*
X+4699000Y-27940D01*
X+4699000Y-187960D01*
X+4752340Y-241300D01*
X+4805680Y-241300D01*
X+4859020Y-187960D01*
X+4859020Y-27940D01*
X+4805680Y+25400D01*
X+4752340Y+25400D01*
X+4699000Y-27940D01*
D71*
X+5397500Y-1788160D02*
X+6286500Y-1788160D01*
X+6286500Y+772160D01*
X+5397500Y+772160D01*
X+5397500Y-1788160D01*
D42*
X+5681980Y-1148080D02*
X+5948680Y-1148080D01*
X+6002020Y-1094740D01*
X+6002020Y-881380D01*
X+5948680Y-828040D01*
X+5681980Y-828040D01*
X+5788660Y-614680D02*
X+5681980Y-508000D01*
X+6002020Y-508000D01*
X+5788660Y+25400D02*
X+5842000Y-27940D01*
X+5842000Y-187960D01*
X+5788660Y-241300D01*
X+5735320Y-241300D01*
X+5681980Y-187960D01*
X+5681980Y-27940D01*
X+5735320Y+25400D01*
X+5948680Y+25400D01*
X+6002020Y-27940D01*
X+6002020Y-187960D01*
D71*
X+6413500Y-1788160D02*
X+7302500Y-1788160D01*
X+7302500Y+772160D01*
X+6413500Y+772160D01*
X+6413500Y-1788160D01*
D42*
X+6697980Y-1148080D02*
X+6964680Y-1148080D01*
X+7018020Y-1094740D01*
X+7018020Y-881380D01*
X+6964680Y-828040D01*
X+6697980Y-828040D01*
X+6751320Y-668020D02*
X+6697980Y-614680D01*
X+6697980Y-454660D01*
X+6751320Y-401320D01*
X+6804660Y-401320D01*
X+6858000Y-454660D01*
X+6858000Y-614680D01*
X+6911340Y-668020D01*
X+7018020Y-668020D01*
X+7018020Y-401320D01*
X+6964680Y-294640D02*
X+6751320Y-294640D01*
X+6697980Y-241300D01*
X+6697980Y-27940D01*
X+6751320Y+25400D01*
X+6964680Y+25400D01*
X+7018020Y-27940D01*
X+7018020Y-241300D01*
X+6964680Y-294640D01*
X+7018020Y-294640D02*
X+6697980Y+25400D01*
D71*
X+7355840Y+2603500D02*
X+9916160Y+2603500D01*
X+9916160Y+3492500D01*
X+7355840Y+3492500D01*
X+7355840Y+2603500D01*
D42*
X+7995920Y+3208020D02*
X+7995920Y+2941320D01*
X+8049260Y+2887980D01*
X+8262620Y+2887980D01*
X+8315960Y+2941320D01*
X+8315960Y+3208020D01*
X+8475980Y+3154680D02*
X+8529320Y+3208020D01*
X+8689340Y+3208020D01*
X+8742680Y+3154680D01*
X+8742680Y+3101340D01*
X+8689340Y+3048000D01*
X+8529320Y+3048000D01*
X+8475980Y+2994660D01*
X+8475980Y+2887980D01*
X+8742680Y+2887980D01*
X+8956040Y+3101340D02*
X+9062720Y+3208020D01*
X+9062720Y+2887980D01*
D71*
X+7355840Y+1333500D02*
X+9916160Y+1333500D01*
X+9916160Y+2222500D01*
X+7355840Y+2222500D01*
X+7355840Y+1333500D01*
D42*
X+7995920Y+1938020D02*
X+7995920Y+1671320D01*
X+8049260Y+1617980D01*
X+8262620Y+1617980D01*
X+8315960Y+1671320D01*
X+8315960Y+1938020D01*
X+8475980Y+1884680D02*
X+8529320Y+1938020D01*
X+8689340Y+1938020D01*
X+8742680Y+1884680D01*
X+8742680Y+1831340D01*
X+8689340Y+1778000D01*
X+8529320Y+1778000D01*
X+8475980Y+1724660D01*
X+8475980Y+1617980D01*
X+8742680Y+1617980D01*
X+9169400Y+1884680D02*
X+9116060Y+1938020D01*
X+8956040Y+1938020D01*
X+8902700Y+1884680D01*
X+8902700Y+1671320D01*
X+8956040Y+1617980D01*
X+9116060Y+1617980D01*
X+9169400Y+1671320D01*
X+9169400Y+1724660D01*
X+9116060Y+1778000D01*
X+8902700Y+1778000D01*
D71*
X+9461500Y+8498840D02*
X+10350500Y+8498840D01*
X+10350500Y+11059160D01*
X+9461500Y+11059160D01*
X+9461500Y+8498840D01*
D42*
X+9745980Y+9138920D02*
X+10012680Y+9138920D01*
X+10066020Y+9192260D01*
X+10066020Y+9405620D01*
X+10012680Y+9458960D01*
X+9745980Y+9458960D01*
X+9799320Y+9618980D02*
X+9745980Y+9672320D01*
X+9745980Y+9832340D01*
X+9799320Y+9885680D01*
X+9852660Y+9885680D01*
X+9906000Y+9832340D01*
X+9906000Y+9672320D01*
X+9959340Y+9618980D01*
X+10066020Y+9618980D01*
X+10066020Y+9885680D01*
X+9745980Y+10045700D02*
X+9745980Y+10312400D01*
X+9799320Y+10312400D01*
X+10066020Y+10045700D01*
D71*
X+8953500Y+5196840D02*
X+9842500Y+5196840D01*
X+9842500Y+7757160D01*
X+8953500Y+7757160D01*
X+8953500Y+5196840D01*
D42*
X+9237980Y+5836920D02*
X+9504680Y+5836920D01*
X+9558020Y+5890260D01*
X+9558020Y+6103620D01*
X+9504680Y+6156960D01*
X+9237980Y+6156960D01*
X+9291320Y+6316980D02*
X+9237980Y+6370320D01*
X+9237980Y+6530340D01*
X+9291320Y+6583680D01*
X+9344660Y+6583680D01*
X+9398000Y+6530340D01*
X+9398000Y+6370320D01*
X+9451340Y+6316980D01*
X+9558020Y+6316980D01*
X+9558020Y+6583680D01*
X+9398000Y+6797040D02*
X+9344660Y+6743700D01*
X+9291320Y+6743700D01*
X+9237980Y+6797040D01*
X+9237980Y+6957060D01*
X+9291320Y+7010400D01*
X+9344660Y+7010400D01*
X+9398000Y+6957060D01*
X+9398000Y+6797040D01*
X+9451340Y+6743700D01*
X+9504680Y+6743700D01*
X+9558020Y+6797040D01*
X+9558020Y+6957060D01*
X+9504680Y+7010400D01*
X+9451340Y+7010400D01*
X+9398000Y+6957060D01*
D71*
X+9969500Y+5196840D02*
X+10858500Y+5196840D01*
X+10858500Y+7757160D01*
X+9969500Y+7757160D01*
X+9969500Y+5196840D01*
D42*
X+10253980Y+5836920D02*
X+10520680Y+5836920D01*
X+10574020Y+5890260D01*
X+10574020Y+6103620D01*
X+10520680Y+6156960D01*
X+10253980Y+6156960D01*
X+10253980Y+6583680D02*
X+10253980Y+6316980D01*
X+10360660Y+6316980D01*
X+10360660Y+6530340D01*
X+10414000Y+6583680D01*
X+10520680Y+6583680D01*
X+10574020Y+6530340D01*
X+10574020Y+6370320D01*
X+10520680Y+6316980D01*
X+10520680Y+6690360D02*
X+10307320Y+6690360D01*
X+10253980Y+6743700D01*
X+10253980Y+6957060D01*
X+10307320Y+7010400D01*
X+10520680Y+7010400D01*
X+10574020Y+6957060D01*
X+10574020Y+6743700D01*
X+10520680Y+6690360D01*
X+10574020Y+6690360D02*
X+10253980Y+7010400D01*
D71*
X+10985500Y+5196840D02*
X+11874500Y+5196840D01*
X+11874500Y+7757160D01*
X+10985500Y+7757160D01*
X+10985500Y+5196840D01*
D42*
X+11269980Y+5836920D02*
X+11536680Y+5836920D01*
X+11590020Y+5890260D01*
X+11590020Y+6103620D01*
X+11536680Y+6156960D01*
X+11269980Y+6156960D01*
X+11269980Y+6583680D02*
X+11269980Y+6316980D01*
X+11376660Y+6316980D01*
X+11376660Y+6530340D01*
X+11430000Y+6583680D01*
X+11536680Y+6583680D01*
X+11590020Y+6530340D01*
X+11590020Y+6370320D01*
X+11536680Y+6316980D01*
X+11376660Y+6797040D02*
X+11269980Y+6903720D01*
X+11590020Y+6903720D01*
D71*
X+12001500Y+5196840D02*
X+12890500Y+5196840D01*
X+12890500Y+7757160D01*
X+12001500Y+7757160D01*
X+12001500Y+5196840D01*
D42*
X+12285980Y+5836920D02*
X+12552680Y+5836920D01*
X+12606020Y+5890260D01*
X+12606020Y+6103620D01*
X+12552680Y+6156960D01*
X+12285980Y+6156960D01*
X+12285980Y+6583680D02*
X+12285980Y+6316980D01*
X+12392660Y+6316980D01*
X+12392660Y+6530340D01*
X+12446000Y+6583680D01*
X+12552680Y+6583680D01*
X+12606020Y+6530340D01*
X+12606020Y+6370320D01*
X+12552680Y+6316980D01*
X+12285980Y+7010400D02*
X+12285980Y+6743700D01*
X+12392660Y+6743700D01*
X+12392660Y+6957060D01*
X+12446000Y+7010400D01*
X+12552680Y+7010400D01*
X+12606020Y+6957060D01*
X+12606020Y+6797040D01*
X+12552680Y+6743700D01*
D71*
X+7429500Y-1788160D02*
X+8318500Y-1788160D01*
X+8318500Y+772160D01*
X+7429500Y+772160D01*
X+7429500Y-1788160D01*
D42*
X+7713980Y-1148080D02*
X+7980680Y-1148080D01*
X+8034020Y-1094740D01*
X+8034020Y-881380D01*
X+7980680Y-828040D01*
X+7713980Y-828040D01*
X+7767320Y-668020D02*
X+7713980Y-614680D01*
X+7713980Y-454660D01*
X+7767320Y-401320D01*
X+7820660Y-401320D01*
X+7874000Y-454660D01*
X+7874000Y-614680D01*
X+7927340Y-668020D01*
X+8034020Y-668020D01*
X+8034020Y-401320D01*
X+7820660Y+25400D02*
X+7874000Y-27940D01*
X+7874000Y-187960D01*
X+7820660Y-241300D01*
X+7767320Y-241300D01*
X+7713980Y-187960D01*
X+7713980Y-27940D01*
X+7767320Y+25400D01*
X+7980680Y+25400D01*
X+8034020Y-27940D01*
X+8034020Y-187960D01*
D71*
X+13271500Y+5069840D02*
X+14160500Y+5069840D01*
X+14160500Y+7630160D01*
X+13271500Y+7630160D01*
X+13271500Y+5069840D01*
D42*
X+13555980Y+5709920D02*
X+13822680Y+5709920D01*
X+13876020Y+5763260D01*
X+13876020Y+5976620D01*
X+13822680Y+6029960D01*
X+13555980Y+6029960D01*
X+13769340Y+6456680D02*
X+13769340Y+6136640D01*
X+13555980Y+6350000D01*
X+13876020Y+6350000D01*
X+13822680Y+6563360D02*
X+13609320Y+6563360D01*
X+13555980Y+6616700D01*
X+13555980Y+6830060D01*
X+13609320Y+6883400D01*
X+13822680Y+6883400D01*
X+13876020Y+6830060D01*
X+13876020Y+6616700D01*
X+13822680Y+6563360D01*
X+13876020Y+6563360D02*
X+13555980Y+6883400D01*
D71*
X+10350500Y+2148840D02*
X+11239500Y+2148840D01*
X+11239500Y+4709160D01*
X+10350500Y+4709160D01*
X+10350500Y+2148840D01*
D42*
X+10634980Y+2788920D02*
X+10901680Y+2788920D01*
X+10955020Y+2842260D01*
X+10955020Y+3055620D01*
X+10901680Y+3108960D01*
X+10634980Y+3108960D01*
X+10848340Y+3535680D02*
X+10848340Y+3215640D01*
X+10634980Y+3429000D01*
X+10955020Y+3429000D01*
X+10741660Y+3749040D02*
X+10634980Y+3855720D01*
X+10955020Y+3855720D01*
D71*
X+8572500Y-1788160D02*
X+9461500Y-1788160D01*
X+9461500Y+772160D01*
X+8572500Y+772160D01*
X+8572500Y-1788160D01*
D42*
X+8856980Y-1148080D02*
X+9123680Y-1148080D01*
X+9177020Y-1094740D01*
X+9177020Y-881380D01*
X+9123680Y-828040D01*
X+8856980Y-828040D01*
X+9070340Y-401320D02*
X+9070340Y-721360D01*
X+8856980Y-508000D01*
X+9177020Y-508000D01*
X+8910320Y-241300D02*
X+8856980Y-187960D01*
X+8856980Y-27940D01*
X+8910320Y+25400D01*
X+8963660Y+25400D01*
X+9017000Y-27940D01*
X+9017000Y-187960D01*
X+9070340Y-241300D01*
X+9177020Y-241300D01*
X+9177020Y+25400D01*
D71*
X+11366500Y+2148840D02*
X+12255500Y+2148840D01*
X+12255500Y+4709160D01*
X+11366500Y+4709160D01*
X+11366500Y+2148840D01*
D42*
X+11650980Y+2788920D02*
X+11917680Y+2788920D01*
X+11971020Y+2842260D01*
X+11971020Y+3055620D01*
X+11917680Y+3108960D01*
X+11650980Y+3108960D01*
X+11864340Y+3535680D02*
X+11864340Y+3215640D01*
X+11650980Y+3429000D01*
X+11971020Y+3429000D01*
X+11704320Y+3695700D02*
X+11650980Y+3749040D01*
X+11650980Y+3909060D01*
X+11704320Y+3962400D01*
X+11757660Y+3962400D01*
X+11811000Y+3909060D01*
X+11864340Y+3962400D01*
X+11917680Y+3962400D01*
X+11971020Y+3909060D01*
X+11971020Y+3749040D01*
X+11917680Y+3695700D01*
X+11811000Y+3802380D02*
X+11811000Y+3909060D01*
D71*
X+12382500Y+2148840D02*
X+13271500Y+2148840D01*
X+13271500Y+4709160D01*
X+12382500Y+4709160D01*
X+12382500Y+2148840D01*
D42*
X+12666980Y+2788920D02*
X+12933680Y+2788920D01*
X+12987020Y+2842260D01*
X+12987020Y+3055620D01*
X+12933680Y+3108960D01*
X+12666980Y+3108960D01*
X+12880340Y+3535680D02*
X+12880340Y+3215640D01*
X+12666980Y+3429000D01*
X+12987020Y+3429000D01*
X+12880340Y+3962400D02*
X+12880340Y+3642360D01*
X+12666980Y+3855720D01*
X+12987020Y+3855720D01*
D71*
X+13398500Y+2148840D02*
X+14287500Y+2148840D01*
X+14287500Y+4709160D01*
X+13398500Y+4709160D01*
X+13398500Y+2148840D01*
D42*
X+13682980Y+2788920D02*
X+13949680Y+2788920D01*
X+14003020Y+2842260D01*
X+14003020Y+3055620D01*
X+13949680Y+3108960D01*
X+13682980Y+3108960D01*
X+13896340Y+3535680D02*
X+13896340Y+3215640D01*
X+13682980Y+3429000D01*
X+14003020Y+3429000D01*
X+13682980Y+3962400D02*
X+13682980Y+3695700D01*
X+13789660Y+3695700D01*
X+13789660Y+3909060D01*
X+13843000Y+3962400D01*
X+13949680Y+3962400D01*
X+14003020Y+3909060D01*
X+14003020Y+3749040D01*
X+13949680Y+3695700D01*
D71*
X+13398500Y-772160D02*
X+14287500Y-772160D01*
X+14287500Y+1788160D01*
X+13398500Y+1788160D01*
X+13398500Y-772160D01*
D42*
X+13682980Y-132080D02*
X+13949680Y-132080D01*
X+14003020Y-78740D01*
X+14003020Y+134620D01*
X+13949680Y+187960D01*
X+13682980Y+187960D01*
X+13896340Y+614680D02*
X+13896340Y+294640D01*
X+13682980Y+508000D01*
X+14003020Y+508000D01*
X+13736320Y+1041400D02*
X+13682980Y+988060D01*
X+13682980Y+828040D01*
X+13736320Y+774700D01*
X+13949680Y+774700D01*
X+14003020Y+828040D01*
X+14003020Y+988060D01*
X+13949680Y+1041400D01*
X+13896340Y+1041400D01*
X+13843000Y+988060D01*
X+13843000Y+774700D01*
D71*
X+5397500Y-4836160D02*
X+6286500Y-4836160D01*
X+6286500Y-2275840D01*
X+5397500Y-2275840D01*
X+5397500Y-4836160D01*
D42*
X+5681980Y-4196080D02*
X+5948680Y-4196080D01*
X+6002020Y-4142740D01*
X+6002020Y-3929380D01*
X+5948680Y-3876040D01*
X+5681980Y-3876040D01*
X+5895340Y-3449320D02*
X+5895340Y-3769360D01*
X+5681980Y-3556000D01*
X+6002020Y-3556000D01*
X+5681980Y-3289300D02*
X+5681980Y-3022600D01*
X+5735320Y-3022600D01*
X+6002020Y-3289300D01*
D71*
X+4254500Y-4836160D02*
X+5143500Y-4836160D01*
X+5143500Y-2275840D01*
X+4254500Y-2275840D01*
X+4254500Y-4836160D01*
D42*
X+4538980Y-4196080D02*
X+4805680Y-4196080D01*
X+4859020Y-4142740D01*
X+4859020Y-3929380D01*
X+4805680Y-3876040D01*
X+4538980Y-3876040D01*
X+4752340Y-3449320D02*
X+4752340Y-3769360D01*
X+4538980Y-3556000D01*
X+4859020Y-3556000D01*
X+4645660Y-3022600D02*
X+4699000Y-3075940D01*
X+4699000Y-3235960D01*
X+4645660Y-3289300D01*
X+4592320Y-3289300D01*
X+4538980Y-3235960D01*
X+4538980Y-3075940D01*
X+4592320Y-3022600D01*
X+4805680Y-3022600D01*
X+4859020Y-3075940D01*
X+4859020Y-3235960D01*
D71*
X+6413500Y-4836160D02*
X+7302500Y-4836160D01*
X+7302500Y-2275840D01*
X+6413500Y-2275840D01*
X+6413500Y-4836160D01*
D42*
X+6697980Y-4196080D02*
X+6964680Y-4196080D01*
X+7018020Y-4142740D01*
X+7018020Y-3929380D01*
X+6964680Y-3876040D01*
X+6697980Y-3876040D01*
X+6697980Y-3449320D02*
X+6697980Y-3716020D01*
X+6804660Y-3716020D01*
X+6804660Y-3502660D01*
X+6858000Y-3449320D01*
X+6964680Y-3449320D01*
X+7018020Y-3502660D01*
X+7018020Y-3662680D01*
X+6964680Y-3716020D01*
X+6751320Y-3289300D02*
X+6697980Y-3235960D01*
X+6697980Y-3075940D01*
X+6751320Y-3022600D01*
X+6804660Y-3022600D01*
X+6858000Y-3075940D01*
X+6858000Y-3235960D01*
X+6911340Y-3289300D01*
X+7018020Y-3289300D01*
X+7018020Y-3022600D01*
D71*
X+7429500Y-4836160D02*
X+8318500Y-4836160D01*
X+8318500Y-2275840D01*
X+7429500Y-2275840D01*
X+7429500Y-4836160D01*
D42*
X+7713980Y-4196080D02*
X+7980680Y-4196080D01*
X+8034020Y-4142740D01*
X+8034020Y-3929380D01*
X+7980680Y-3876040D01*
X+7713980Y-3876040D01*
X+7713980Y-3449320D02*
X+7713980Y-3716020D01*
X+7820660Y-3716020D01*
X+7820660Y-3502660D01*
X+7874000Y-3449320D01*
X+7980680Y-3449320D01*
X+8034020Y-3502660D01*
X+8034020Y-3662680D01*
X+7980680Y-3716020D01*
X+7767320Y-3022600D02*
X+7713980Y-3075940D01*
X+7713980Y-3235960D01*
X+7767320Y-3289300D01*
X+7980680Y-3289300D01*
X+8034020Y-3235960D01*
X+8034020Y-3075940D01*
X+7980680Y-3022600D01*
X+7927340Y-3022600D01*
X+7874000Y-3075940D01*
X+7874000Y-3289300D01*
D71*
X+9969500Y-3693160D02*
X+10858500Y-3693160D01*
X+10858500Y-1132840D01*
X+9969500Y-1132840D01*
X+9969500Y-3693160D01*
D43*
X+10260381Y-3232302D02*
X+10516413Y-3232302D01*
X+10567620Y-3181096D01*
X+10567620Y-2976271D01*
X+10516413Y-2925064D01*
X+10260381Y-2925064D01*
X+10362794Y-2720239D02*
X+10260381Y-2617826D01*
X+10567620Y-2617826D01*
X+10311588Y-2361794D02*
X+10260381Y-2310588D01*
X+10260381Y-2156969D01*
X+10311588Y-2105762D01*
X+10362794Y-2105762D01*
X+10414000Y-2156969D01*
X+10414000Y-2310588D01*
X+10465207Y-2361794D01*
X+10567620Y-2361794D01*
X+10567620Y-2105762D01*
X+10362794Y-1696111D02*
X+10414000Y-1747318D01*
X+10414000Y-1900937D01*
X+10362794Y-1952143D01*
X+10311588Y-1952143D01*
X+10260381Y-1900937D01*
X+10260381Y-1747318D01*
X+10311588Y-1696111D01*
X+10516413Y-1696111D01*
X+10567620Y-1747318D01*
X+10567620Y-1900937D01*
D71*
X+8572500Y-4328160D02*
X+9461500Y-4328160D01*
X+9461500Y-2275840D01*
X+8572500Y-2275840D01*
X+8572500Y-4328160D01*
D44*
X+8863076Y-3917696D02*
X+9119616Y-3917696D01*
X+9170924Y-3866388D01*
X+9170924Y-3661156D01*
X+9119616Y-3609848D01*
X+8863076Y-3609848D01*
X+8965692Y-3404616D02*
X+8863076Y-3302000D01*
X+9170924Y-3302000D01*
X+9119616Y-3096768D02*
X+8914384Y-3096768D01*
X+8863076Y-3045460D01*
X+8863076Y-2840228D01*
X+8914384Y-2788920D01*
X+9119616Y-2788920D01*
X+9170924Y-2840228D01*
X+9170924Y-3045460D01*
X+9119616Y-3096768D01*
X+9170924Y-3096768D02*
X+8863076Y-2788920D01*
D71*
X+11239500Y-3185160D02*
X+12128500Y-3185160D01*
X+12128500Y-1132840D01*
X+11239500Y-1132840D01*
X+11239500Y-3185160D01*
D44*
X+11530076Y-2774696D02*
X+11786616Y-2774696D01*
X+11837924Y-2723388D01*
X+11837924Y-2518156D01*
X+11786616Y-2466848D01*
X+11530076Y-2466848D01*
X+11632692Y-2261616D02*
X+11530076Y-2159000D01*
X+11837924Y-2159000D01*
X+11632692Y-1851152D02*
X+11530076Y-1748536D01*
X+11837924Y-1748536D01*
D71*
X+3111500Y-5725160D02*
X+4000500Y-5725160D01*
X+4000500Y-3672840D01*
X+3111500Y-3672840D01*
X+3111500Y-5725160D01*
D44*
X+3402076Y-5314696D02*
X+3658616Y-5314696D01*
X+3709924Y-5263388D01*
X+3709924Y-5058156D01*
X+3658616Y-5006848D01*
X+3402076Y-5006848D01*
X+3504692Y-4801616D02*
X+3402076Y-4699000D01*
X+3709924Y-4699000D01*
X+3453384Y-4442460D02*
X+3402076Y-4391152D01*
X+3402076Y-4237228D01*
X+3453384Y-4185920D01*
X+3504692Y-4185920D01*
X+3556000Y-4237228D01*
X+3556000Y-4391152D01*
X+3607308Y-4442460D01*
X+3709924Y-4442460D01*
X+3709924Y-4185920D01*
D71*
X+11874500Y-899160D02*
X+12763500Y-899160D01*
X+12763500Y+1153160D01*
X+11874500Y+1153160D01*
X+11874500Y-899160D01*
D44*
X+12165076Y-488696D02*
X+12421616Y-488696D01*
X+12472924Y-437388D01*
X+12472924Y-232156D01*
X+12421616Y-180848D01*
X+12165076Y-180848D01*
X+12267692Y+24384D02*
X+12165076Y+127000D01*
X+12472924Y+127000D01*
X+12216384Y+383540D02*
X+12165076Y+434848D01*
X+12165076Y+588772D01*
X+12216384Y+640080D01*
X+12267692Y+640080D01*
X+12319000Y+588772D01*
X+12370308Y+640080D01*
X+12421616Y+640080D01*
X+12472924Y+588772D01*
X+12472924Y+434848D01*
X+12421616Y+383540D01*
X+12319000Y+486156D02*
X+12319000Y+588772D01*
D71*
X+4508500Y+2148840D02*
X+5397500Y+2148840D01*
X+5397500Y+4201160D01*
X+4508500Y+4201160D01*
X+4508500Y+2148840D01*
D44*
X+4799076Y+2559304D02*
X+5055616Y+2559304D01*
X+5106924Y+2610612D01*
X+5106924Y+2815844D01*
X+5055616Y+2867152D01*
X+4799076Y+2867152D01*
X+4850384Y+3021076D02*
X+4799076Y+3072384D01*
X+4799076Y+3226308D01*
X+4850384Y+3277616D01*
X+4901692Y+3277616D01*
X+4953000Y+3226308D01*
X+5004308Y+3277616D01*
X+5055616Y+3277616D01*
X+5106924Y+3226308D01*
X+5106924Y+3072384D01*
X+5055616Y+3021076D01*
X+4953000Y+3123692D02*
X+4953000Y+3226308D01*
X+4850384Y+3688080D02*
X+4799076Y+3636772D01*
X+4799076Y+3482848D01*
X+4850384Y+3431540D01*
X+5055616Y+3431540D01*
X+5106924Y+3482848D01*
X+5106924Y+3636772D01*
X+5055616Y+3688080D01*
X+5004308Y+3688080D01*
X+4953000Y+3636772D01*
X+4953000Y+3431540D01*
D71*
X+5905500Y+2148840D02*
X+6794500Y+2148840D01*
X+6794500Y+4201160D01*
X+5905500Y+4201160D01*
X+5905500Y+2148840D01*
D44*
X+6196076Y+2559304D02*
X+6452616Y+2559304D01*
X+6503924Y+2610612D01*
X+6503924Y+2815844D01*
X+6452616Y+2867152D01*
X+6196076Y+2867152D01*
X+6247384Y+3277616D02*
X+6196076Y+3226308D01*
X+6196076Y+3072384D01*
X+6247384Y+3021076D01*
X+6452616Y+3021076D01*
X+6503924Y+3072384D01*
X+6503924Y+3226308D01*
X+6452616Y+3277616D01*
X+6401308Y+3277616D01*
X+6350000Y+3226308D01*
X+6350000Y+3021076D01*
X+6452616Y+3380232D02*
X+6247384Y+3380232D01*
X+6196076Y+3431540D01*
X+6196076Y+3636772D01*
X+6247384Y+3688080D01*
X+6452616Y+3688080D01*
X+6503924Y+3636772D01*
X+6503924Y+3431540D01*
X+6452616Y+3380232D01*
X+6503924Y+3380232D02*
X+6196076Y+3688080D01*
D71*
X+4254500Y-7630160D02*
X+5143500Y-7630160D01*
X+5143500Y-5577840D01*
X+4254500Y-5577840D01*
X+4254500Y-7630160D01*
D44*
X+4545076Y-7219696D02*
X+4801616Y-7219696D01*
X+4852924Y-7168388D01*
X+4852924Y-6963156D01*
X+4801616Y-6911848D01*
X+4545076Y-6911848D01*
X+4596384Y-6501384D02*
X+4545076Y-6552692D01*
X+4545076Y-6706616D01*
X+4596384Y-6757924D01*
X+4801616Y-6757924D01*
X+4852924Y-6706616D01*
X+4852924Y-6552692D01*
X+4801616Y-6501384D01*
X+4750308Y-6501384D01*
X+4699000Y-6552692D01*
X+4699000Y-6757924D01*
X+4647692Y-6296152D02*
X+4545076Y-6193536D01*
X+4852924Y-6193536D01*
D71*
X+5397500Y-6995160D02*
X+6286500Y-6995160D01*
X+6286500Y-5196840D01*
X+5397500Y-5196840D01*
X+5397500Y-6995160D01*
D42*
X+5681980Y-6522720D02*
X+5948680Y-6522720D01*
X+6002020Y-6469380D01*
X+6002020Y-6256020D01*
X+5948680Y-6202680D01*
X+5681980Y-6202680D01*
X+5788660Y-5989320D02*
X+5681980Y-5882640D01*
X+6002020Y-5882640D01*
D71*
X+10096500Y-5852160D02*
X+10985500Y-5852160D01*
X+10985500Y-4053840D01*
X+10096500Y-4053840D01*
X+10096500Y-5852160D01*
D42*
X+10380980Y-5379720D02*
X+10647680Y-5379720D01*
X+10701020Y-5326380D01*
X+10701020Y-5113020D01*
X+10647680Y-5059680D01*
X+10380980Y-5059680D01*
X+10434320Y-4899660D02*
X+10380980Y-4846320D01*
X+10380980Y-4686300D01*
X+10434320Y-4632960D01*
X+10487660Y-4632960D01*
X+10541000Y-4686300D01*
X+10541000Y-4846320D01*
X+10594340Y-4899660D01*
X+10701020Y-4899660D01*
X+10701020Y-4632960D01*
D71*
X+11112500Y-5852160D02*
X+12001500Y-5852160D01*
X+12001500Y-4053840D01*
X+11112500Y-4053840D01*
X+11112500Y-5852160D01*
D42*
X+11396980Y-5379720D02*
X+11663680Y-5379720D01*
X+11717020Y-5326380D01*
X+11717020Y-5113020D01*
X+11663680Y-5059680D01*
X+11396980Y-5059680D01*
X+11450320Y-4899660D02*
X+11396980Y-4846320D01*
X+11396980Y-4686300D01*
X+11450320Y-4632960D01*
X+11503660Y-4632960D01*
X+11557000Y-4686300D01*
X+11610340Y-4632960D01*
X+11663680Y-4632960D01*
X+11717020Y-4686300D01*
X+11717020Y-4846320D01*
X+11663680Y-4899660D01*
X+11557000Y-4792980D02*
X+11557000Y-4686300D01*
D71*
X+8572500Y-6995160D02*
X+9461500Y-6995160D01*
X+9461500Y-5196840D01*
X+8572500Y-5196840D01*
X+8572500Y-6995160D01*
D42*
X+8856980Y-6522720D02*
X+9123680Y-6522720D01*
X+9177020Y-6469380D01*
X+9177020Y-6256020D01*
X+9123680Y-6202680D01*
X+8856980Y-6202680D01*
X+9070340Y-5775960D02*
X+9070340Y-6096000D01*
X+8856980Y-5882640D01*
X+9177020Y-5882640D01*
D71*
X+7556500Y-6995160D02*
X+8445500Y-6995160D01*
X+8445500Y-5196840D01*
X+7556500Y-5196840D01*
X+7556500Y-6995160D01*
D45*
X+7866126Y-6635496D02*
X+8090916Y-6635496D01*
X+8135874Y-6590538D01*
X+8135874Y-6410706D01*
X+8090916Y-6365748D01*
X+7866126Y-6365748D01*
X+7911084Y-6230874D02*
X+7866126Y-6185916D01*
X+7866126Y-6051042D01*
X+7911084Y-6006084D01*
X+7956042Y-6006084D01*
X+8001000Y-6051042D01*
X+8045958Y-6006084D01*
X+8090916Y-6006084D01*
X+8135874Y-6051042D01*
X+8135874Y-6185916D01*
X+8090916Y-6230874D01*
X+8001000Y-6140958D02*
X+8001000Y-6051042D01*
X+8045958Y-5646420D02*
X+8045958Y-5916168D01*
X+7866126Y-5736336D01*
X+8135874Y-5736336D01*
D71*
X+10858500Y-645160D02*
X+11747500Y-645160D01*
X+11747500Y+1153160D01*
X+10858500Y+1153160D01*
X+10858500Y-645160D01*
D42*
X+11142980Y-172720D02*
X+11409680Y-172720D01*
X+11463020Y-119380D01*
X+11463020Y+93980D01*
X+11409680Y+147320D01*
X+11142980Y+147320D01*
X+11196320Y+574040D02*
X+11142980Y+520700D01*
X+11142980Y+360680D01*
X+11196320Y+307340D01*
X+11409680Y+307340D01*
X+11463020Y+360680D01*
X+11463020Y+520700D01*
X+11409680Y+574040D01*
X+11356340Y+574040D01*
X+11303000Y+520700D01*
X+11303000Y+307340D01*
D71*
X+3111500Y-7630160D02*
X+4000500Y-7630160D01*
X+4000500Y-5831840D01*
X+3111500Y-5831840D01*
X+3111500Y-7630160D01*
D42*
X+3395980Y-7157720D02*
X+3662680Y-7157720D01*
X+3716020Y-7104380D01*
X+3716020Y-6891020D01*
X+3662680Y-6837680D01*
X+3395980Y-6837680D01*
X+3556000Y-6624320D02*
X+3502660Y-6677660D01*
X+3449320Y-6677660D01*
X+3395980Y-6624320D01*
X+3395980Y-6464300D01*
X+3449320Y-6410960D01*
X+3502660Y-6410960D01*
X+3556000Y-6464300D01*
X+3556000Y-6624320D01*
X+3609340Y-6677660D01*
X+3662680Y-6677660D01*
X+3716020Y-6624320D01*
X+3716020Y-6464300D01*
X+3662680Y-6410960D01*
X+3609340Y-6410960D01*
X+3556000Y-6464300D01*
D71*
X+10096500Y-7757160D02*
X+10985500Y-7757160D01*
X+10985500Y-5958840D01*
X+10096500Y-5958840D01*
X+10096500Y-7757160D01*
D42*
X+10380980Y-7284720D02*
X+10647680Y-7284720D01*
X+10701020Y-7231380D01*
X+10701020Y-7018020D01*
X+10647680Y-6964680D01*
X+10380980Y-6964680D01*
X+10487660Y-6537960D02*
X+10541000Y-6591300D01*
X+10541000Y-6751320D01*
X+10487660Y-6804660D01*
X+10434320Y-6804660D01*
X+10380980Y-6751320D01*
X+10380980Y-6591300D01*
X+10434320Y-6537960D01*
X+10647680Y-6537960D01*
X+10701020Y-6591300D01*
X+10701020Y-6751320D01*
D71*
X+444500Y-7630160D02*
X+1333500Y-7630160D01*
X+1333500Y-6593840D01*
X+444500Y-6593840D01*
X+444500Y-7630160D01*
D46*
X+874195Y-7467308D02*
X+844586Y-7437699D01*
X+844586Y-7408090D01*
X+874195Y-7378481D01*
X+903804Y-7378481D01*
X+933413Y-7408090D01*
X+933413Y-7437699D01*
X+903804Y-7467308D01*
X+874195Y-7467308D01*
X+918609Y-7348872D02*
X+933413Y-7334068D01*
X+933413Y-7274850D01*
X+918609Y-7260045D01*
X+903804Y-7260045D01*
X+889000Y-7274850D01*
X+889000Y-7334068D01*
X+874195Y-7348872D01*
X+859391Y-7348872D01*
X+844586Y-7334068D01*
X+844586Y-7274850D01*
X+859391Y-7260045D01*
X+918609Y-7141609D02*
X+933413Y-7156414D01*
X+933413Y-7200827D01*
X+903804Y-7230436D01*
X+874195Y-7230436D01*
X+844586Y-7200827D01*
X+844586Y-7156414D01*
X+859391Y-7141609D01*
X+918609Y-7023173D02*
X+933413Y-7037978D01*
X+933413Y-7082391D01*
X+903804Y-7112000D01*
X+874195Y-7112000D01*
X+844586Y-7082391D01*
X+844586Y-7037978D01*
X+859391Y-7023173D01*
X+844586Y-6993564D02*
X+933413Y-6993564D01*
X+933413Y-6904737D01*
X+844586Y-6875128D02*
X+933413Y-6875128D01*
X+844586Y-6786301D02*
X+889000Y-6830715D01*
X+933413Y-6786301D01*
X+889000Y-6875128D02*
X+889000Y-6830715D01*
D71*
X+12890500Y-7884160D02*
X+13779500Y-7884160D01*
X+13779500Y-5323840D01*
X+12890500Y-5323840D01*
X+12890500Y-7884160D01*
D42*
X+13174980Y-7244080D02*
X+13441680Y-7244080D01*
X+13495020Y-7190740D01*
X+13495020Y-6977380D01*
X+13441680Y-6924040D01*
X+13174980Y-6924040D01*
X+13228320Y-6764020D02*
X+13174980Y-6710680D01*
X+13174980Y-6550660D01*
X+13228320Y-6497320D01*
X+13281660Y-6497320D01*
X+13335000Y-6550660D01*
X+13388340Y-6497320D01*
X+13441680Y-6497320D01*
X+13495020Y-6550660D01*
X+13495020Y-6710680D01*
X+13441680Y-6764020D01*
X+13335000Y-6657340D02*
X+13335000Y-6550660D01*
X+13281660Y-6283960D02*
X+13174980Y-6177280D01*
X+13495020Y-6177280D01*
D71*
X+12382500Y-4709160D02*
X+14033500Y-4709160D01*
X+14033500Y-1640840D01*
X+12382500Y-1640840D01*
X+12382500Y-4709160D01*
D47*
X+12910820Y-3967480D02*
X+13406120Y-3967480D01*
X+13505180Y-3868420D01*
X+13505180Y-3472180D01*
X+13406120Y-3373120D01*
X+12910820Y-3373120D01*
X+12910820Y-2580640D02*
X+12910820Y-3075940D01*
X+13108940Y-3075940D01*
X+13108940Y-2679700D01*
X+13208000Y-2580640D01*
X+13406120Y-2580640D01*
X+13505180Y-2679700D01*
X+13505180Y-2976880D01*
X+13406120Y-3075940D01*
D71*
X+6413500Y-6995160D02*
X+7302500Y-6995160D01*
X+7302500Y-5196840D01*
X+6413500Y-5196840D01*
X+6413500Y-6995160D01*
D42*
X+6697980Y-6522720D02*
X+6964680Y-6522720D01*
X+7018020Y-6469380D01*
X+7018020Y-6256020D01*
X+6964680Y-6202680D01*
X+6697980Y-6202680D01*
X+6697980Y-6042660D02*
X+6697980Y-5775960D01*
X+6751320Y-5775960D01*
X+7018020Y-6042660D01*
D71*
X+116840Y+6720840D02*
X+645160Y+6720840D01*
X+645160Y+6995160D01*
X+116840Y+6995160D01*
X+116840Y+6720840D01*
D48*
X+207413Y+6846679D02*
X+184772Y+6846679D01*
X+184772Y+6869321D01*
X+207413Y+6869321D01*
X+184772Y+6858000D02*
X+199866Y+6858000D01*
X+214961Y+6869321D02*
X+237602Y+6846679D01*
X+214961Y+6846679D02*
X+237602Y+6869321D01*
X+245150Y+6846679D02*
X+245150Y+6869321D01*
X+264018Y+6869321D01*
X+267791Y+6865547D01*
X+267791Y+6861774D01*
X+264018Y+6858000D01*
X+245150Y+6858000D01*
X+275339Y+6846679D02*
X+275339Y+6861774D01*
X+282886Y+6869321D01*
X+290433Y+6869321D01*
X+297980Y+6861774D01*
X+297980Y+6846679D01*
X+275339Y+6854226D02*
X+297980Y+6854226D01*
X+305528Y+6846679D02*
X+305528Y+6869321D01*
X+328169Y+6846679D01*
X+328169Y+6869321D01*
X+335717Y+6850453D02*
X+339490Y+6846679D01*
X+354585Y+6846679D01*
X+358358Y+6850453D01*
X+358358Y+6854226D01*
X+354585Y+6858000D01*
X+339490Y+6858000D01*
X+335717Y+6861774D01*
X+335717Y+6865547D01*
X+339490Y+6869321D01*
X+354585Y+6869321D01*
X+358358Y+6865547D01*
X+369679Y+6869321D02*
X+384774Y+6869321D01*
X+377226Y+6869321D02*
X+377226Y+6846679D01*
X+369679Y+6846679D02*
X+384774Y+6846679D01*
X+396095Y+6861774D02*
X+403642Y+6869321D01*
X+411189Y+6869321D01*
X+418736Y+6861774D01*
X+418736Y+6854226D01*
X+411189Y+6846679D01*
X+403642Y+6846679D01*
X+396095Y+6854226D01*
X+396095Y+6861774D01*
X+426284Y+6846679D02*
X+426284Y+6869321D01*
X+448925Y+6846679D01*
X+448925Y+6869321D01*
X+456473Y+6846679D02*
X+456473Y+6869321D01*
X+475341Y+6869321D01*
X+479114Y+6865547D01*
X+479114Y+6861774D01*
X+475341Y+6858000D01*
X+479114Y+6854226D01*
X+479114Y+6850453D01*
X+475341Y+6846679D01*
X+456473Y+6846679D01*
X+456473Y+6858000D02*
X+475341Y+6858000D01*
X+486662Y+6869321D02*
X+486662Y+6850453D01*
X+490435Y+6846679D01*
X+505530Y+6846679D01*
X+509303Y+6850453D01*
X+509303Y+6869321D01*
X+516851Y+6850453D02*
X+520624Y+6846679D01*
X+535719Y+6846679D01*
X+539492Y+6850453D01*
X+539492Y+6854226D01*
X+535719Y+6858000D01*
X+520624Y+6858000D01*
X+516851Y+6861774D01*
X+516851Y+6865547D01*
X+520624Y+6869321D01*
X+535719Y+6869321D01*
X+539492Y+6865547D01*
X+550813Y+6865547D02*
X+554587Y+6869321D01*
X+565908Y+6869321D01*
X+569681Y+6865547D01*
X+569681Y+6861774D01*
X+565908Y+6858000D01*
X+554587Y+6858000D01*
X+550813Y+6854226D01*
X+550813Y+6846679D01*
X+569681Y+6846679D01*
M02*
