G04 PROTEUS GERBER X2 FILE*
%TF.GenerationSoftware,Labcenter,Proteus,8.6-SP1-Build23413*%
%TF.CreationDate,2017-02-04T10:42:02+00:00*%
%TF.FileFunction,Legend,Top*%
%TF.FilePolarity,Positive*%
%TF.Part,Single*%
%FSLAX45Y45*%
%MOMM*%
G01*
%TA.AperFunction,Material*%
%ADD71C,0.203200*%
%TA.AperFunction,Profile*%
%ADD70C,0.203200*%
%TD.AperFunction*%
D71*
X-93980Y-5702300D02*
X+668020Y-5702300D01*
X+668020Y-4813300D01*
X-93980Y-4813300D01*
X-93980Y-5702300D01*
X+33020Y-5702300D02*
X+33020Y-4813300D01*
X-134620Y-5448300D02*
X-226060Y-5448300D01*
X-226060Y-5368925D01*
X-210820Y-5353050D01*
X-195580Y-5353050D01*
X-180340Y-5368925D01*
X-180340Y-5448300D01*
X-226060Y-5321300D02*
X-134620Y-5321300D01*
X-180340Y-5273675D01*
X-134620Y-5226050D01*
X-226060Y-5226050D01*
X-134620Y-5194300D02*
X-226060Y-5194300D01*
X-226060Y-5114925D01*
X-210820Y-5099050D01*
X-195580Y-5099050D01*
X-180340Y-5114925D01*
X-180340Y-5194300D01*
X-180340Y-5114925D02*
X-165100Y-5099050D01*
X-134620Y-5099050D01*
X+1397000Y-5461000D02*
X+1651000Y-5461000D01*
X+1651000Y-4953000D01*
X+1397000Y-4953000D01*
X+1397000Y-5461000D01*
X+1356360Y-5397500D02*
X+1264920Y-5397500D01*
X+1264920Y-5318125D01*
X+1280160Y-5302250D01*
X+1295400Y-5302250D01*
X+1310640Y-5318125D01*
X+1310640Y-5397500D01*
X+1310640Y-5318125D02*
X+1325880Y-5302250D01*
X+1356360Y-5302250D01*
X+1341120Y-5270500D02*
X+1356360Y-5254625D01*
X+1356360Y-5191125D01*
X+1341120Y-5175250D01*
X+1325880Y-5175250D01*
X+1310640Y-5191125D01*
X+1310640Y-5254625D01*
X+1295400Y-5270500D01*
X+1280160Y-5270500D01*
X+1264920Y-5254625D01*
X+1264920Y-5191125D01*
X+1280160Y-5175250D01*
X+1264920Y-5143500D02*
X+1264920Y-5048250D01*
X+1264920Y-5095875D02*
X+1356360Y-5095875D01*
X+381000Y-4381500D02*
X+1143000Y-4381500D01*
X+1143000Y-3492500D01*
X+381000Y-3492500D01*
X+381000Y-4381500D01*
X-254000Y-4381500D01*
X-254000Y-3492500D01*
X+381000Y-3492500D01*
X+1143000Y-3987800D02*
X+1346200Y-3987800D01*
X+1143000Y-3886200D02*
X+1346200Y-3886200D01*
X+1346200Y-3987800D02*
X+1346200Y-3886200D01*
X+1346200Y-3937000D02*
X+1549400Y-3937000D01*
X+1143000Y-4248150D02*
X+1346200Y-4248150D01*
X+1143000Y-4146550D02*
X+1346200Y-4146550D01*
X+1346200Y-4248150D02*
X+1346200Y-4146550D01*
X+1346200Y-4197350D02*
X+1549400Y-4197350D01*
X+1143000Y-3727450D02*
X+1346200Y-3727450D01*
X+1143000Y-3625850D02*
X+1346200Y-3625850D01*
X+1346200Y-3727450D02*
X+1346200Y-3625850D01*
X+1346200Y-3676650D02*
X+1549400Y-3676650D01*
X+590550Y-4422140D02*
X+590550Y-4498340D01*
X+606425Y-4513580D01*
X+669925Y-4513580D01*
X+685800Y-4498340D01*
X+685800Y-4422140D01*
X+733425Y-4437380D02*
X+749300Y-4422140D01*
X+796925Y-4422140D01*
X+812800Y-4437380D01*
X+812800Y-4452620D01*
X+796925Y-4467860D01*
X+812800Y-4483100D01*
X+812800Y-4498340D01*
X+796925Y-4513580D01*
X+749300Y-4513580D01*
X+733425Y-4498340D01*
X+765175Y-4467860D02*
X+796925Y-4467860D01*
X+860425Y-4437380D02*
X+876300Y-4422140D01*
X+923925Y-4422140D01*
X+939800Y-4437380D01*
X+939800Y-4452620D01*
X+923925Y-4467860D01*
X+939800Y-4483100D01*
X+939800Y-4498340D01*
X+923925Y-4513580D01*
X+876300Y-4513580D01*
X+860425Y-4498340D01*
X+892175Y-4467860D02*
X+923925Y-4467860D01*
X+0Y-3048000D02*
X+127000Y-3048000D01*
X+127000Y-3111500D02*
X+635000Y-3111500D01*
X+635000Y-2984500D01*
X+127000Y-2984500D01*
X+127000Y-3111500D01*
X+635000Y-3048000D02*
X+762000Y-3048000D01*
X+254000Y-2943860D02*
X+254000Y-2852420D01*
X+333375Y-2852420D01*
X+349250Y-2867660D01*
X+349250Y-2882900D01*
X+333375Y-2898140D01*
X+254000Y-2898140D01*
X+333375Y-2898140D02*
X+349250Y-2913380D01*
X+349250Y-2943860D01*
X+396875Y-2867660D02*
X+412750Y-2852420D01*
X+460375Y-2852420D01*
X+476250Y-2867660D01*
X+476250Y-2882900D01*
X+460375Y-2898140D01*
X+412750Y-2898140D01*
X+396875Y-2913380D01*
X+396875Y-2943860D01*
X+476250Y-2943860D01*
X+0Y-2794000D02*
X+127000Y-2794000D01*
X+127000Y-2857500D02*
X+635000Y-2857500D01*
X+635000Y-2730500D01*
X+127000Y-2730500D01*
X+127000Y-2857500D01*
X+635000Y-2794000D02*
X+762000Y-2794000D01*
X+254000Y-2689860D02*
X+254000Y-2598420D01*
X+333375Y-2598420D01*
X+349250Y-2613660D01*
X+349250Y-2628900D01*
X+333375Y-2644140D01*
X+254000Y-2644140D01*
X+333375Y-2644140D02*
X+349250Y-2659380D01*
X+349250Y-2689860D01*
X+396875Y-2613660D02*
X+412750Y-2598420D01*
X+460375Y-2598420D01*
X+476250Y-2613660D01*
X+476250Y-2628900D01*
X+460375Y-2644140D01*
X+476250Y-2659380D01*
X+476250Y-2674620D01*
X+460375Y-2689860D01*
X+412750Y-2689860D01*
X+396875Y-2674620D01*
X+428625Y-2644140D02*
X+460375Y-2644140D01*
X+0Y-2286000D02*
X+127000Y-2286000D01*
X+127000Y-2349500D02*
X+635000Y-2349500D01*
X+635000Y-2222500D01*
X+127000Y-2222500D01*
X+127000Y-2349500D01*
X+635000Y-2286000D02*
X+762000Y-2286000D01*
X+254000Y-2181860D02*
X+254000Y-2090420D01*
X+333375Y-2090420D01*
X+349250Y-2105660D01*
X+349250Y-2120900D01*
X+333375Y-2136140D01*
X+254000Y-2136140D01*
X+333375Y-2136140D02*
X+349250Y-2151380D01*
X+349250Y-2181860D01*
X+476250Y-2090420D02*
X+396875Y-2090420D01*
X+396875Y-2120900D01*
X+460375Y-2120900D01*
X+476250Y-2136140D01*
X+476250Y-2166620D01*
X+460375Y-2181860D01*
X+412750Y-2181860D01*
X+396875Y-2166620D01*
X+2095500Y-2540000D02*
X+2094482Y-2514601D01*
X+2086221Y-2463801D01*
X+2068994Y-2413001D01*
X+2041047Y-2362201D01*
X+1998414Y-2311474D01*
X+1947614Y-2271602D01*
X+1896814Y-2245569D01*
X+1846014Y-2229870D01*
X+1795214Y-2222967D01*
X+1778000Y-2222500D01*
X+1460500Y-2540000D02*
X+1461518Y-2514601D01*
X+1469779Y-2463801D01*
X+1487006Y-2413001D01*
X+1514953Y-2362201D01*
X+1557586Y-2311474D01*
X+1608386Y-2271602D01*
X+1659186Y-2245569D01*
X+1709986Y-2229870D01*
X+1760786Y-2222967D01*
X+1778000Y-2222500D01*
X+1460500Y-2540000D02*
X+1461518Y-2565399D01*
X+1469779Y-2616199D01*
X+1487006Y-2666999D01*
X+1514953Y-2717799D01*
X+1557586Y-2768526D01*
X+1608386Y-2808398D01*
X+1659186Y-2834431D01*
X+1709986Y-2850130D01*
X+1760786Y-2857033D01*
X+1778000Y-2857500D01*
X+2095500Y-2540000D02*
X+2094482Y-2565399D01*
X+2086221Y-2616199D01*
X+2068994Y-2666999D01*
X+2041047Y-2717799D01*
X+1998414Y-2768526D01*
X+1947614Y-2808398D01*
X+1896814Y-2834431D01*
X+1846014Y-2850130D01*
X+1795214Y-2857033D01*
X+1778000Y-2857500D01*
X+1746250Y-2166620D02*
X+1730375Y-2181860D01*
X+1682750Y-2181860D01*
X+1651000Y-2151380D01*
X+1651000Y-2120900D01*
X+1682750Y-2090420D01*
X+1730375Y-2090420D01*
X+1746250Y-2105660D01*
X+1809750Y-2120900D02*
X+1841500Y-2090420D01*
X+1841500Y-2181860D01*
X+2413000Y-1524000D02*
X+2411447Y-1484313D01*
X+2398850Y-1404938D01*
X+2372640Y-1325563D01*
X+2330305Y-1246188D01*
X+2266222Y-1166813D01*
X+2186858Y-1101365D01*
X+2107483Y-1058098D01*
X+2028108Y-1031143D01*
X+1948733Y-1017886D01*
X+1905000Y-1016000D01*
X+1397000Y-1524000D02*
X+1398553Y-1484313D01*
X+1411150Y-1404938D01*
X+1437360Y-1325563D01*
X+1479695Y-1246188D01*
X+1543778Y-1166813D01*
X+1623142Y-1101365D01*
X+1702517Y-1058098D01*
X+1781892Y-1031143D01*
X+1861267Y-1017886D01*
X+1905000Y-1016000D01*
X+1397000Y-1524000D02*
X+1398553Y-1563687D01*
X+1411150Y-1643062D01*
X+1437360Y-1722437D01*
X+1479695Y-1801812D01*
X+1543778Y-1881187D01*
X+1623142Y-1946635D01*
X+1702517Y-1989902D01*
X+1781892Y-2016857D01*
X+1861267Y-2030114D01*
X+1905000Y-2032000D01*
X+2413000Y-1524000D02*
X+2411447Y-1563687D01*
X+2398850Y-1643062D01*
X+2372640Y-1722437D01*
X+2330305Y-1801812D01*
X+2266222Y-1881187D01*
X+2186858Y-1946635D01*
X+2107483Y-1989902D01*
X+2028108Y-2016857D01*
X+1948733Y-2030114D01*
X+1905000Y-2032000D01*
X+1587500Y-1270000D02*
X+1714500Y-1270000D01*
X+1651000Y-1206500D02*
X+1651000Y-1333500D01*
X+1873250Y-960120D02*
X+1857375Y-975360D01*
X+1809750Y-975360D01*
X+1778000Y-944880D01*
X+1778000Y-914400D01*
X+1809750Y-883920D01*
X+1857375Y-883920D01*
X+1873250Y-899160D01*
X+1920875Y-899160D02*
X+1936750Y-883920D01*
X+1984375Y-883920D01*
X+2000250Y-899160D01*
X+2000250Y-914400D01*
X+1984375Y-929640D01*
X+1936750Y-929640D01*
X+1920875Y-944880D01*
X+1920875Y-975360D01*
X+2000250Y-975360D01*
X+1016000Y-1143000D02*
X+1041876Y-1150516D01*
X+1065848Y-1172170D01*
X+1087438Y-1206624D01*
X+1106170Y-1252538D01*
X+1121569Y-1308571D01*
X+1133158Y-1373386D01*
X+1140460Y-1445642D01*
X+1143000Y-1524000D01*
X+1016000Y-1905000D02*
X+1041876Y-1897380D01*
X+1065848Y-1875472D01*
X+1087438Y-1840706D01*
X+1106170Y-1794510D01*
X+1121569Y-1738312D01*
X+1133158Y-1673542D01*
X+1140460Y-1601629D01*
X+1143000Y-1524000D01*
X+1016000Y-1905000D02*
X+990124Y-1897380D01*
X+966152Y-1875472D01*
X+944562Y-1840706D01*
X+925830Y-1794510D01*
X+910431Y-1738312D01*
X+898842Y-1673542D01*
X+891540Y-1601629D01*
X+889000Y-1524000D01*
X+1016000Y-1143000D02*
X+990124Y-1150516D01*
X+966152Y-1172170D01*
X+944562Y-1206624D01*
X+925830Y-1252538D01*
X+910431Y-1308571D01*
X+898842Y-1373386D01*
X+891540Y-1445642D01*
X+889000Y-1524000D01*
X+1259840Y-1555750D02*
X+1275080Y-1571625D01*
X+1275080Y-1619250D01*
X+1244600Y-1651000D01*
X+1214120Y-1651000D01*
X+1183640Y-1619250D01*
X+1183640Y-1571625D01*
X+1198880Y-1555750D01*
X+1244600Y-1428750D02*
X+1244600Y-1524000D01*
X+1183640Y-1460500D01*
X+1275080Y-1460500D01*
X+599000Y-1595000D02*
X+598173Y-1574517D01*
X+591455Y-1533550D01*
X+577437Y-1492583D01*
X+554659Y-1451616D01*
X+519859Y-1410771D01*
X+478892Y-1379155D01*
X+437925Y-1358608D01*
X+396958Y-1346371D01*
X+355991Y-1341238D01*
X+345000Y-1341000D01*
X+91000Y-1595000D02*
X+91827Y-1574517D01*
X+98545Y-1533550D01*
X+112563Y-1492583D01*
X+135341Y-1451616D01*
X+170141Y-1410771D01*
X+211108Y-1379155D01*
X+252075Y-1358608D01*
X+293042Y-1346371D01*
X+334009Y-1341238D01*
X+345000Y-1341000D01*
X+91000Y-1595000D02*
X+91827Y-1615483D01*
X+98545Y-1656450D01*
X+112563Y-1697417D01*
X+135341Y-1738384D01*
X+170141Y-1779229D01*
X+211108Y-1810845D01*
X+252075Y-1831392D01*
X+293042Y-1843629D01*
X+334009Y-1848762D01*
X+345000Y-1849000D01*
X+599000Y-1595000D02*
X+598173Y-1615483D01*
X+591455Y-1656450D01*
X+577437Y-1697417D01*
X+554659Y-1738384D01*
X+519859Y-1779229D01*
X+478892Y-1810845D01*
X+437925Y-1831392D01*
X+396958Y-1843629D01*
X+355991Y-1848762D01*
X+345000Y-1849000D01*
X+154500Y-1468000D02*
X+281500Y-1468000D01*
X+218000Y-1404500D02*
X+218000Y-1531500D01*
X+313250Y-1285120D02*
X+297375Y-1300360D01*
X+249750Y-1300360D01*
X+218000Y-1269880D01*
X+218000Y-1239400D01*
X+249750Y-1208920D01*
X+297375Y-1208920D01*
X+313250Y-1224160D01*
X+440250Y-1208920D02*
X+360875Y-1208920D01*
X+360875Y-1239400D01*
X+424375Y-1239400D01*
X+440250Y-1254640D01*
X+440250Y-1285120D01*
X+424375Y-1300360D01*
X+376750Y-1300360D01*
X+360875Y-1285120D01*
X+2730500Y-4013200D02*
X+2603500Y-4013200D01*
X+2730500Y-4013200D02*
X+2667000Y-4140200D01*
X+2603500Y-4013200D02*
X+2667000Y-4140200D01*
X+2730500Y-4140200D02*
X+2603500Y-4140200D01*
X+2667000Y-3810000D02*
X+2667000Y-4013200D01*
X+2667000Y-4140200D02*
X+2667000Y-4318000D01*
X+2862580Y-4191000D02*
X+2771140Y-4191000D01*
X+2771140Y-4127500D01*
X+2801620Y-4095750D01*
X+2832100Y-4095750D01*
X+2862580Y-4127500D01*
X+2862580Y-4191000D01*
X+2801620Y-4032250D02*
X+2771140Y-4000500D01*
X+2862580Y-4000500D01*
X+2476500Y-4013200D02*
X+2349500Y-4013200D01*
X+2476500Y-4013200D02*
X+2413000Y-4140200D01*
X+2349500Y-4013200D02*
X+2413000Y-4140200D01*
X+2476500Y-4140200D02*
X+2349500Y-4140200D01*
X+2413000Y-3810000D02*
X+2413000Y-4013200D01*
X+2413000Y-4140200D02*
X+2413000Y-4318000D01*
X+2608580Y-4191000D02*
X+2517140Y-4191000D01*
X+2517140Y-4127500D01*
X+2547620Y-4095750D01*
X+2578100Y-4095750D01*
X+2608580Y-4127500D01*
X+2608580Y-4191000D01*
X+2532380Y-4048125D02*
X+2517140Y-4032250D01*
X+2517140Y-3984625D01*
X+2532380Y-3968750D01*
X+2547620Y-3968750D01*
X+2562860Y-3984625D01*
X+2562860Y-4032250D01*
X+2578100Y-4048125D01*
X+2608580Y-4048125D01*
X+2608580Y-3968750D01*
X+2794000Y-2540000D02*
X+2793173Y-2519517D01*
X+2786455Y-2478550D01*
X+2772437Y-2437583D01*
X+2749659Y-2396616D01*
X+2714859Y-2355771D01*
X+2673892Y-2324155D01*
X+2632925Y-2303608D01*
X+2591958Y-2291371D01*
X+2550991Y-2286238D01*
X+2540000Y-2286000D01*
X+2286000Y-2540000D02*
X+2286827Y-2519517D01*
X+2293545Y-2478550D01*
X+2307563Y-2437583D01*
X+2330341Y-2396616D01*
X+2365141Y-2355771D01*
X+2406108Y-2324155D01*
X+2447075Y-2303608D01*
X+2488042Y-2291371D01*
X+2529009Y-2286238D01*
X+2540000Y-2286000D01*
X+2286000Y-2540000D02*
X+2286827Y-2560483D01*
X+2293545Y-2601450D01*
X+2307563Y-2642417D01*
X+2330341Y-2683384D01*
X+2365141Y-2724229D01*
X+2406108Y-2755845D01*
X+2447075Y-2776392D01*
X+2488042Y-2788629D01*
X+2529009Y-2793762D01*
X+2540000Y-2794000D01*
X+2794000Y-2540000D02*
X+2793173Y-2560483D01*
X+2786455Y-2601450D01*
X+2772437Y-2642417D01*
X+2749659Y-2683384D01*
X+2714859Y-2724229D01*
X+2673892Y-2755845D01*
X+2632925Y-2776392D01*
X+2591958Y-2788629D01*
X+2550991Y-2793762D01*
X+2540000Y-2794000D01*
X+2222500Y-2286000D02*
X+2349500Y-2286000D01*
X+2286000Y-2222500D02*
X+2286000Y-2349500D01*
X+2381250Y-2181860D02*
X+2381250Y-2090420D01*
X+2444750Y-2090420D01*
X+2476500Y-2120900D01*
X+2476500Y-2151380D01*
X+2444750Y-2181860D01*
X+2381250Y-2181860D01*
X+2524125Y-2105660D02*
X+2540000Y-2090420D01*
X+2587625Y-2090420D01*
X+2603500Y-2105660D01*
X+2603500Y-2120900D01*
X+2587625Y-2136140D01*
X+2603500Y-2151380D01*
X+2603500Y-2166620D01*
X+2587625Y-2181860D01*
X+2540000Y-2181860D01*
X+2524125Y-2166620D01*
X+2555875Y-2136140D02*
X+2587625Y-2136140D01*
X+127000Y+7366000D02*
X+635000Y+7366000D01*
X+635000Y+11684000D01*
X+127000Y+11684000D01*
X+127000Y+7366000D01*
X+767080Y+8858250D02*
X+767080Y+8763000D01*
X+675640Y+8763000D01*
X+675640Y+8858250D01*
X+721360Y+8763000D02*
X+721360Y+8826500D01*
X+675640Y+8890000D02*
X+767080Y+8985250D01*
X+767080Y+8890000D02*
X+675640Y+8985250D01*
X+767080Y+9017000D02*
X+675640Y+9017000D01*
X+675640Y+9096375D01*
X+690880Y+9112250D01*
X+706120Y+9112250D01*
X+721360Y+9096375D01*
X+721360Y+9017000D01*
X+767080Y+9144000D02*
X+706120Y+9144000D01*
X+675640Y+9175750D01*
X+675640Y+9207500D01*
X+706120Y+9239250D01*
X+767080Y+9239250D01*
X+736600Y+9144000D02*
X+736600Y+9239250D01*
X+767080Y+9271000D02*
X+675640Y+9271000D01*
X+767080Y+9366250D01*
X+675640Y+9366250D01*
X+751840Y+9398000D02*
X+767080Y+9413875D01*
X+767080Y+9477375D01*
X+751840Y+9493250D01*
X+736600Y+9493250D01*
X+721360Y+9477375D01*
X+721360Y+9413875D01*
X+706120Y+9398000D01*
X+690880Y+9398000D01*
X+675640Y+9413875D01*
X+675640Y+9477375D01*
X+690880Y+9493250D01*
X+675640Y+9540875D02*
X+675640Y+9604375D01*
X+675640Y+9572625D02*
X+767080Y+9572625D01*
X+767080Y+9540875D02*
X+767080Y+9604375D01*
X+706120Y+9652000D02*
X+675640Y+9683750D01*
X+675640Y+9715500D01*
X+706120Y+9747250D01*
X+736600Y+9747250D01*
X+767080Y+9715500D01*
X+767080Y+9683750D01*
X+736600Y+9652000D01*
X+706120Y+9652000D01*
X+767080Y+9779000D02*
X+675640Y+9779000D01*
X+767080Y+9874250D01*
X+675640Y+9874250D01*
X+767080Y+9906000D02*
X+675640Y+9906000D01*
X+675640Y+9985375D01*
X+690880Y+10001250D01*
X+706120Y+10001250D01*
X+721360Y+9985375D01*
X+736600Y+10001250D01*
X+751840Y+10001250D01*
X+767080Y+9985375D01*
X+767080Y+9906000D01*
X+721360Y+9906000D02*
X+721360Y+9985375D01*
X+675640Y+10033000D02*
X+751840Y+10033000D01*
X+767080Y+10048875D01*
X+767080Y+10112375D01*
X+751840Y+10128250D01*
X+675640Y+10128250D01*
X+751840Y+10160000D02*
X+767080Y+10175875D01*
X+767080Y+10239375D01*
X+751840Y+10255250D01*
X+736600Y+10255250D01*
X+721360Y+10239375D01*
X+721360Y+10175875D01*
X+706120Y+10160000D01*
X+690880Y+10160000D01*
X+675640Y+10175875D01*
X+675640Y+10239375D01*
X+690880Y+10255250D01*
D70*
X-508000Y-8255000D02*
X+15049500Y-8255000D01*
X+15049500Y+12573000D01*
X-508000Y+12573000D01*
X-508000Y-8255000D01*
D71*
X+508000Y+5715000D02*
X+502920Y+5766752D01*
X+488315Y+5814695D01*
X+465138Y+5857875D01*
X+434340Y+5895340D01*
X+396875Y+5926138D01*
X+353695Y+5949315D01*
X+305752Y+5963920D01*
X+254000Y+5969000D01*
X+508000Y+5715000D02*
X+502920Y+5662518D01*
X+488315Y+5614233D01*
X+465138Y+5571009D01*
X+434340Y+5533708D01*
X+396875Y+5503193D01*
X+353695Y+5480328D01*
X+305752Y+5465976D01*
X+254000Y+5461000D01*
X+254000Y+5969000D02*
X+254000Y+6350000D01*
X+3810000Y+6350000D02*
X+3810000Y+5080000D01*
X+254000Y+5080000D02*
X+254000Y+5461000D01*
X+254000Y+6350000D02*
X+3810000Y+6350000D01*
X+254000Y+5080000D02*
X+3810000Y+5080000D01*
X+121920Y+5524500D02*
X+198120Y+5524500D01*
X+213360Y+5540375D01*
X+213360Y+5603875D01*
X+198120Y+5619750D01*
X+121920Y+5619750D01*
X+137160Y+5667375D02*
X+121920Y+5683250D01*
X+121920Y+5730875D01*
X+137160Y+5746750D01*
X+152400Y+5746750D01*
X+167640Y+5730875D01*
X+167640Y+5683250D01*
X+182880Y+5667375D01*
X+213360Y+5667375D01*
X+213360Y+5746750D01*
X+137160Y+5794375D02*
X+121920Y+5810250D01*
X+121920Y+5857875D01*
X+137160Y+5873750D01*
X+152400Y+5873750D01*
X+167640Y+5857875D01*
X+167640Y+5810250D01*
X+182880Y+5794375D01*
X+213360Y+5794375D01*
X+213360Y+5873750D01*
X+508000Y+3937000D02*
X+502920Y+3988752D01*
X+488315Y+4036695D01*
X+465138Y+4079875D01*
X+434340Y+4117340D01*
X+396875Y+4148138D01*
X+353695Y+4171315D01*
X+305752Y+4185920D01*
X+254000Y+4191000D01*
X+508000Y+3937000D02*
X+502920Y+3884518D01*
X+488315Y+3836233D01*
X+465138Y+3793009D01*
X+434340Y+3755708D01*
X+396875Y+3725193D01*
X+353695Y+3702328D01*
X+305752Y+3687976D01*
X+254000Y+3683000D01*
X+254000Y+4191000D02*
X+254000Y+4572000D01*
X+3810000Y+4572000D02*
X+3810000Y+3302000D01*
X+254000Y+3302000D02*
X+254000Y+3683000D01*
X+254000Y+4572000D02*
X+3810000Y+4572000D01*
X+254000Y+3302000D02*
X+3810000Y+3302000D01*
X+121920Y+3746500D02*
X+198120Y+3746500D01*
X+213360Y+3762375D01*
X+213360Y+3825875D01*
X+198120Y+3841750D01*
X+121920Y+3841750D01*
X+137160Y+3889375D02*
X+121920Y+3905250D01*
X+121920Y+3952875D01*
X+137160Y+3968750D01*
X+152400Y+3968750D01*
X+167640Y+3952875D01*
X+167640Y+3905250D01*
X+182880Y+3889375D01*
X+213360Y+3889375D01*
X+213360Y+3968750D01*
X+137160Y+4016375D02*
X+121920Y+4032250D01*
X+121920Y+4079875D01*
X+137160Y+4095750D01*
X+152400Y+4095750D01*
X+167640Y+4079875D01*
X+182880Y+4095750D01*
X+198120Y+4095750D01*
X+213360Y+4079875D01*
X+213360Y+4032250D01*
X+198120Y+4016375D01*
X+167640Y+4048125D02*
X+167640Y+4079875D01*
X+508000Y+2159000D02*
X+502920Y+2210752D01*
X+488315Y+2258695D01*
X+465138Y+2301875D01*
X+434340Y+2339340D01*
X+396875Y+2370138D01*
X+353695Y+2393315D01*
X+305752Y+2407920D01*
X+254000Y+2413000D01*
X+508000Y+2159000D02*
X+502920Y+2106518D01*
X+488315Y+2058233D01*
X+465138Y+2015009D01*
X+434340Y+1977708D01*
X+396875Y+1947193D01*
X+353695Y+1924328D01*
X+305752Y+1909976D01*
X+254000Y+1905000D01*
X+254000Y+2413000D02*
X+254000Y+2794000D01*
X+3810000Y+2794000D02*
X+3810000Y+1524000D01*
X+254000Y+1524000D02*
X+254000Y+1905000D01*
X+254000Y+2794000D02*
X+3810000Y+2794000D01*
X+254000Y+1524000D02*
X+3810000Y+1524000D01*
X+121920Y+1968500D02*
X+198120Y+1968500D01*
X+213360Y+1984375D01*
X+213360Y+2047875D01*
X+198120Y+2063750D01*
X+121920Y+2063750D01*
X+137160Y+2111375D02*
X+121920Y+2127250D01*
X+121920Y+2174875D01*
X+137160Y+2190750D01*
X+152400Y+2190750D01*
X+167640Y+2174875D01*
X+167640Y+2127250D01*
X+182880Y+2111375D01*
X+213360Y+2111375D01*
X+213360Y+2190750D01*
X+182880Y+2317750D02*
X+182880Y+2222500D01*
X+121920Y+2286000D01*
X+213360Y+2286000D01*
X+508000Y+381000D02*
X+502920Y+432752D01*
X+488315Y+480695D01*
X+465138Y+523875D01*
X+434340Y+561340D01*
X+396875Y+592138D01*
X+353695Y+615315D01*
X+305752Y+629920D01*
X+254000Y+635000D01*
X+508000Y+381000D02*
X+502920Y+328518D01*
X+488315Y+280233D01*
X+465138Y+237009D01*
X+434340Y+199708D01*
X+396875Y+169193D01*
X+353695Y+146328D01*
X+305752Y+131976D01*
X+254000Y+127000D01*
X+254000Y+635000D02*
X+254000Y+1016000D01*
X+3810000Y+1016000D02*
X+3810000Y-254000D01*
X+254000Y-254000D02*
X+254000Y+127000D01*
X+254000Y+1016000D02*
X+3810000Y+1016000D01*
X+254000Y-254000D02*
X+3810000Y-254000D01*
X+121920Y+190500D02*
X+198120Y+190500D01*
X+213360Y+206375D01*
X+213360Y+269875D01*
X+198120Y+285750D01*
X+121920Y+285750D01*
X+137160Y+333375D02*
X+121920Y+349250D01*
X+121920Y+396875D01*
X+137160Y+412750D01*
X+152400Y+412750D01*
X+167640Y+396875D01*
X+167640Y+349250D01*
X+182880Y+333375D01*
X+213360Y+333375D01*
X+213360Y+412750D01*
X+121920Y+539750D02*
X+121920Y+460375D01*
X+152400Y+460375D01*
X+152400Y+523875D01*
X+167640Y+539750D01*
X+198120Y+539750D01*
X+213360Y+523875D01*
X+213360Y+476250D01*
X+198120Y+460375D01*
X+5842000Y+11557000D02*
X+5893752Y+11562080D01*
X+5941695Y+11576685D01*
X+5984875Y+11599862D01*
X+6022340Y+11630660D01*
X+6053138Y+11668125D01*
X+6076315Y+11711305D01*
X+6090920Y+11759248D01*
X+6096000Y+11811000D01*
X+5842000Y+11557000D02*
X+5789518Y+11562080D01*
X+5741234Y+11576685D01*
X+5698009Y+11599862D01*
X+5660708Y+11630660D01*
X+5630193Y+11668125D01*
X+5607328Y+11711305D01*
X+5592976Y+11759248D01*
X+5588000Y+11811000D01*
X+6096000Y+11811000D02*
X+6477000Y+11811000D01*
X+6477000Y+8255000D02*
X+5207000Y+8255000D01*
X+5207000Y+11811000D02*
X+5588000Y+11811000D01*
X+6477000Y+11811000D02*
X+6477000Y+8255000D01*
X+5207000Y+11811000D02*
X+5207000Y+8255000D01*
X+5588000Y+11943080D02*
X+5588000Y+11866880D01*
X+5603875Y+11851640D01*
X+5667375Y+11851640D01*
X+5683250Y+11866880D01*
X+5683250Y+11943080D01*
X+5746750Y+11912600D02*
X+5778500Y+11943080D01*
X+5778500Y+11851640D01*
X+5857875Y+11927840D02*
X+5873750Y+11943080D01*
X+5921375Y+11943080D01*
X+5937250Y+11927840D01*
X+5937250Y+11912600D01*
X+5921375Y+11897360D01*
X+5873750Y+11897360D01*
X+5857875Y+11882120D01*
X+5857875Y+11851640D01*
X+5937250Y+11851640D01*
X+6064250Y+11943080D02*
X+5984875Y+11943080D01*
X+5984875Y+11912600D01*
X+6048375Y+11912600D01*
X+6064250Y+11897360D01*
X+6064250Y+11866880D01*
X+6048375Y+11851640D01*
X+6000750Y+11851640D01*
X+5984875Y+11866880D01*
X+8128000Y+11557000D02*
X+8179752Y+11562080D01*
X+8227695Y+11576685D01*
X+8270875Y+11599862D01*
X+8308340Y+11630660D01*
X+8339138Y+11668125D01*
X+8362315Y+11711305D01*
X+8376920Y+11759248D01*
X+8382000Y+11811000D01*
X+8128000Y+11557000D02*
X+8075518Y+11562080D01*
X+8027234Y+11576685D01*
X+7984009Y+11599862D01*
X+7946708Y+11630660D01*
X+7916193Y+11668125D01*
X+7893328Y+11711305D01*
X+7878976Y+11759248D01*
X+7874000Y+11811000D01*
X+8382000Y+11811000D02*
X+8763000Y+11811000D01*
X+8763000Y+8763000D01*
X+7493000Y+8763000D01*
X+7493000Y+11811000D01*
X+7874000Y+11811000D01*
X+7937500Y+11943080D02*
X+7937500Y+11866880D01*
X+7953375Y+11851640D01*
X+8016875Y+11851640D01*
X+8032750Y+11866880D01*
X+8032750Y+11943080D01*
X+8080375Y+11927840D02*
X+8096250Y+11943080D01*
X+8143875Y+11943080D01*
X+8159750Y+11927840D01*
X+8159750Y+11912600D01*
X+8143875Y+11897360D01*
X+8159750Y+11882120D01*
X+8159750Y+11866880D01*
X+8143875Y+11851640D01*
X+8096250Y+11851640D01*
X+8080375Y+11866880D01*
X+8112125Y+11897360D02*
X+8143875Y+11897360D01*
X+8191500Y+11866880D02*
X+8191500Y+11927840D01*
X+8207375Y+11943080D01*
X+8270875Y+11943080D01*
X+8286750Y+11927840D01*
X+8286750Y+11866880D01*
X+8270875Y+11851640D01*
X+8207375Y+11851640D01*
X+8191500Y+11866880D01*
X+8191500Y+11851640D02*
X+8286750Y+11943080D01*
X+11684000Y+8509000D02*
X+11632248Y+8503920D01*
X+11584305Y+8489315D01*
X+11541125Y+8466138D01*
X+11503660Y+8435340D01*
X+11472862Y+8397875D01*
X+11449685Y+8354695D01*
X+11435080Y+8306752D01*
X+11430000Y+8255000D01*
X+11684000Y+8509000D02*
X+11736482Y+8503920D01*
X+11784766Y+8489315D01*
X+11827991Y+8466138D01*
X+11865292Y+8435340D01*
X+11895807Y+8397875D01*
X+11918672Y+8354695D01*
X+11933024Y+8306752D01*
X+11938000Y+8255000D01*
X+11430000Y+8255000D02*
X+11049000Y+8255000D01*
X+11049000Y+11811000D02*
X+12319000Y+11811000D01*
X+12319000Y+8255000D02*
X+11938000Y+8255000D01*
X+11049000Y+8255000D02*
X+11049000Y+11811000D01*
X+12319000Y+8255000D02*
X+12319000Y+11811000D01*
X+11493500Y+8214360D02*
X+11493500Y+8138160D01*
X+11509375Y+8122920D01*
X+11572875Y+8122920D01*
X+11588750Y+8138160D01*
X+11588750Y+8214360D01*
X+11715750Y+8214360D02*
X+11636375Y+8214360D01*
X+11636375Y+8183880D01*
X+11699875Y+8183880D01*
X+11715750Y+8168640D01*
X+11715750Y+8138160D01*
X+11699875Y+8122920D01*
X+11652250Y+8122920D01*
X+11636375Y+8138160D01*
X+11763375Y+8199120D02*
X+11779250Y+8214360D01*
X+11826875Y+8214360D01*
X+11842750Y+8199120D01*
X+11842750Y+8183880D01*
X+11826875Y+8168640D01*
X+11842750Y+8153400D01*
X+11842750Y+8138160D01*
X+11826875Y+8122920D01*
X+11779250Y+8122920D01*
X+11763375Y+8138160D01*
X+11795125Y+8168640D02*
X+11826875Y+8168640D01*
X+13462000Y+11557000D02*
X+13513752Y+11562080D01*
X+13561695Y+11576685D01*
X+13604875Y+11599862D01*
X+13642340Y+11630660D01*
X+13673138Y+11668125D01*
X+13696315Y+11711305D01*
X+13710920Y+11759248D01*
X+13716000Y+11811000D01*
X+13462000Y+11557000D02*
X+13409518Y+11562080D01*
X+13361234Y+11576685D01*
X+13318009Y+11599862D01*
X+13280708Y+11630660D01*
X+13250193Y+11668125D01*
X+13227328Y+11711305D01*
X+13212976Y+11759248D01*
X+13208000Y+11811000D01*
X+13716000Y+11811000D02*
X+14097000Y+11811000D01*
X+14097000Y+8255000D02*
X+12827000Y+8255000D01*
X+12827000Y+11811000D02*
X+13208000Y+11811000D01*
X+14097000Y+11811000D02*
X+14097000Y+8255000D01*
X+12827000Y+11811000D02*
X+12827000Y+8255000D01*
X+13271500Y+11943080D02*
X+13271500Y+11866880D01*
X+13287375Y+11851640D01*
X+13350875Y+11851640D01*
X+13366750Y+11866880D01*
X+13366750Y+11943080D01*
X+13493750Y+11943080D02*
X+13414375Y+11943080D01*
X+13414375Y+11912600D01*
X+13477875Y+11912600D01*
X+13493750Y+11897360D01*
X+13493750Y+11866880D01*
X+13477875Y+11851640D01*
X+13430250Y+11851640D01*
X+13414375Y+11866880D01*
X+13620750Y+11882120D02*
X+13525500Y+11882120D01*
X+13589000Y+11943080D01*
X+13589000Y+11851640D01*
X+1143000Y+9906000D02*
X+1270000Y+9906000D01*
X+1397000Y+9779000D02*
X+1422876Y+9781436D01*
X+1446848Y+9788485D01*
X+1468438Y+9799762D01*
X+1487170Y+9814878D01*
X+1502569Y+9833446D01*
X+1514158Y+9855081D01*
X+1521460Y+9879394D01*
X+1524000Y+9906000D01*
X+1397000Y+9779000D02*
X+1370394Y+9781436D01*
X+1346081Y+9788485D01*
X+1324446Y+9799762D01*
X+1305878Y+9814878D01*
X+1290762Y+9833446D01*
X+1279485Y+9855081D01*
X+1272436Y+9879394D01*
X+1270000Y+9906000D01*
X+1524000Y+9906000D02*
X+1651000Y+9906000D01*
X+1143000Y+7366000D02*
X+1651000Y+7366000D01*
X+1143000Y+9906000D02*
X+1143000Y+7366000D01*
X+1651000Y+9906000D02*
X+1651000Y+7366000D01*
X+1206500Y+10038080D02*
X+1206500Y+9961880D01*
X+1222375Y+9946640D01*
X+1285875Y+9946640D01*
X+1301750Y+9961880D01*
X+1301750Y+10038080D01*
X+1365250Y+10007600D02*
X+1397000Y+10038080D01*
X+1397000Y+9946640D01*
X+1555750Y+9977120D02*
X+1460500Y+9977120D01*
X+1524000Y+10038080D01*
X+1524000Y+9946640D01*
X+2286000Y+11811000D02*
X+2413000Y+11811000D01*
X+2540000Y+11684000D02*
X+2565876Y+11686436D01*
X+2589848Y+11693485D01*
X+2611438Y+11704762D01*
X+2630170Y+11719878D01*
X+2645569Y+11738446D01*
X+2657158Y+11760081D01*
X+2664460Y+11784394D01*
X+2667000Y+11811000D01*
X+2540000Y+11684000D02*
X+2513394Y+11686436D01*
X+2489081Y+11693485D01*
X+2467446Y+11704762D01*
X+2448878Y+11719878D01*
X+2433762Y+11738446D01*
X+2422485Y+11760081D01*
X+2415436Y+11784394D01*
X+2413000Y+11811000D01*
X+2667000Y+11811000D02*
X+2794000Y+11811000D01*
X+2286000Y+9271000D02*
X+2794000Y+9271000D01*
X+2286000Y+11811000D02*
X+2286000Y+9271000D01*
X+2794000Y+11811000D02*
X+2794000Y+9271000D01*
X+2349500Y+11943080D02*
X+2349500Y+11866880D01*
X+2365375Y+11851640D01*
X+2428875Y+11851640D01*
X+2444750Y+11866880D01*
X+2444750Y+11943080D01*
X+2508250Y+11897360D02*
X+2492375Y+11912600D01*
X+2492375Y+11927840D01*
X+2508250Y+11943080D01*
X+2555875Y+11943080D01*
X+2571750Y+11927840D01*
X+2571750Y+11912600D01*
X+2555875Y+11897360D01*
X+2508250Y+11897360D01*
X+2492375Y+11882120D01*
X+2492375Y+11866880D01*
X+2508250Y+11851640D01*
X+2555875Y+11851640D01*
X+2571750Y+11866880D01*
X+2571750Y+11882120D01*
X+2555875Y+11897360D01*
X+2603500Y+11866880D02*
X+2603500Y+11927840D01*
X+2619375Y+11943080D01*
X+2682875Y+11943080D01*
X+2698750Y+11927840D01*
X+2698750Y+11866880D01*
X+2682875Y+11851640D01*
X+2619375Y+11851640D01*
X+2603500Y+11866880D01*
X+2603500Y+11851640D02*
X+2698750Y+11943080D01*
X+3810000Y-3302000D02*
X+3683000Y-3302000D01*
X+3556000Y-3175000D02*
X+3530124Y-3177436D01*
X+3506152Y-3184485D01*
X+3484562Y-3195762D01*
X+3465830Y-3210878D01*
X+3450431Y-3229446D01*
X+3438842Y-3251081D01*
X+3431540Y-3275394D01*
X+3429000Y-3302000D01*
X+3556000Y-3175000D02*
X+3582606Y-3177436D01*
X+3606919Y-3184485D01*
X+3628554Y-3195762D01*
X+3647122Y-3210878D01*
X+3662238Y-3229446D01*
X+3673515Y-3251081D01*
X+3680564Y-3275394D01*
X+3683000Y-3302000D01*
X+3429000Y-3302000D02*
X+3302000Y-3302000D01*
X+3810000Y-762000D02*
X+3302000Y-762000D01*
X+3810000Y-3302000D02*
X+3810000Y-762000D01*
X+3302000Y-3302000D02*
X+3302000Y-762000D01*
X+3365500Y-3342640D02*
X+3365500Y-3418840D01*
X+3381375Y-3434080D01*
X+3444875Y-3434080D01*
X+3460750Y-3418840D01*
X+3460750Y-3342640D01*
X+3524250Y-3373120D02*
X+3556000Y-3342640D01*
X+3556000Y-3434080D01*
X+3714750Y-3342640D02*
X+3635375Y-3342640D01*
X+3635375Y-3373120D01*
X+3698875Y-3373120D01*
X+3714750Y-3388360D01*
X+3714750Y-3418840D01*
X+3698875Y-3434080D01*
X+3651250Y-3434080D01*
X+3635375Y-3418840D01*
X+3429000Y+10160000D02*
X+3556000Y+10160000D01*
X+3683000Y+10033000D02*
X+3708876Y+10035436D01*
X+3732848Y+10042485D01*
X+3754438Y+10053762D01*
X+3773170Y+10068878D01*
X+3788569Y+10087446D01*
X+3800158Y+10109081D01*
X+3807460Y+10133394D01*
X+3810000Y+10160000D01*
X+3683000Y+10033000D02*
X+3656394Y+10035436D01*
X+3632081Y+10042485D01*
X+3610446Y+10053762D01*
X+3591878Y+10068878D01*
X+3576762Y+10087446D01*
X+3565485Y+10109081D01*
X+3558436Y+10133394D01*
X+3556000Y+10160000D01*
X+3810000Y+10160000D02*
X+3937000Y+10160000D01*
X+3429000Y+7620000D02*
X+3937000Y+7620000D01*
X+3429000Y+10160000D02*
X+3429000Y+7620000D01*
X+3937000Y+10160000D02*
X+3937000Y+7620000D01*
X+3492500Y+10292080D02*
X+3492500Y+10215880D01*
X+3508375Y+10200640D01*
X+3571875Y+10200640D01*
X+3587750Y+10215880D01*
X+3587750Y+10292080D01*
X+3651250Y+10246360D02*
X+3635375Y+10261600D01*
X+3635375Y+10276840D01*
X+3651250Y+10292080D01*
X+3698875Y+10292080D01*
X+3714750Y+10276840D01*
X+3714750Y+10261600D01*
X+3698875Y+10246360D01*
X+3651250Y+10246360D01*
X+3635375Y+10231120D01*
X+3635375Y+10215880D01*
X+3651250Y+10200640D01*
X+3698875Y+10200640D01*
X+3714750Y+10215880D01*
X+3714750Y+10231120D01*
X+3698875Y+10246360D01*
X+3778250Y+10261600D02*
X+3810000Y+10292080D01*
X+3810000Y+10200640D01*
X+5334000Y+7747000D02*
X+5461000Y+7747000D01*
X+5588000Y+7620000D02*
X+5613876Y+7622436D01*
X+5637848Y+7629485D01*
X+5659438Y+7640762D01*
X+5678170Y+7655878D01*
X+5693569Y+7674446D01*
X+5705158Y+7696081D01*
X+5712460Y+7720394D01*
X+5715000Y+7747000D01*
X+5588000Y+7620000D02*
X+5561394Y+7622436D01*
X+5537081Y+7629485D01*
X+5515446Y+7640762D01*
X+5496878Y+7655878D01*
X+5481762Y+7674446D01*
X+5470485Y+7696081D01*
X+5463436Y+7720394D01*
X+5461000Y+7747000D01*
X+5715000Y+7747000D02*
X+5842000Y+7747000D01*
X+5334000Y+5207000D02*
X+5842000Y+5207000D01*
X+5334000Y+7747000D02*
X+5334000Y+5207000D01*
X+5842000Y+7747000D02*
X+5842000Y+5207000D01*
X+5397500Y+7879080D02*
X+5397500Y+7802880D01*
X+5413375Y+7787640D01*
X+5476875Y+7787640D01*
X+5492750Y+7802880D01*
X+5492750Y+7879080D01*
X+5556250Y+7848600D02*
X+5588000Y+7879080D01*
X+5588000Y+7787640D01*
X+5746750Y+7863840D02*
X+5730875Y+7879080D01*
X+5683250Y+7879080D01*
X+5667375Y+7863840D01*
X+5667375Y+7802880D01*
X+5683250Y+7787640D01*
X+5730875Y+7787640D01*
X+5746750Y+7802880D01*
X+5746750Y+7818120D01*
X+5730875Y+7833360D01*
X+5667375Y+7833360D01*
X+6350000Y+7747000D02*
X+6477000Y+7747000D01*
X+6604000Y+7620000D02*
X+6629876Y+7622436D01*
X+6653848Y+7629485D01*
X+6675438Y+7640762D01*
X+6694170Y+7655878D01*
X+6709569Y+7674446D01*
X+6721158Y+7696081D01*
X+6728460Y+7720394D01*
X+6731000Y+7747000D01*
X+6604000Y+7620000D02*
X+6577394Y+7622436D01*
X+6553081Y+7629485D01*
X+6531446Y+7640762D01*
X+6512878Y+7655878D01*
X+6497762Y+7674446D01*
X+6486485Y+7696081D01*
X+6479436Y+7720394D01*
X+6477000Y+7747000D01*
X+6731000Y+7747000D02*
X+6858000Y+7747000D01*
X+6350000Y+5207000D02*
X+6858000Y+5207000D01*
X+6350000Y+7747000D02*
X+6350000Y+5207000D01*
X+6858000Y+7747000D02*
X+6858000Y+5207000D01*
X+6413500Y+7879080D02*
X+6413500Y+7802880D01*
X+6429375Y+7787640D01*
X+6492875Y+7787640D01*
X+6508750Y+7802880D01*
X+6508750Y+7879080D01*
X+6572250Y+7848600D02*
X+6604000Y+7879080D01*
X+6604000Y+7787640D01*
X+6683375Y+7879080D02*
X+6762750Y+7879080D01*
X+6762750Y+7863840D01*
X+6683375Y+7787640D01*
X+7366000Y+7747000D02*
X+7493000Y+7747000D01*
X+7620000Y+7620000D02*
X+7645876Y+7622436D01*
X+7669848Y+7629485D01*
X+7691438Y+7640762D01*
X+7710170Y+7655878D01*
X+7725569Y+7674446D01*
X+7737158Y+7696081D01*
X+7744460Y+7720394D01*
X+7747000Y+7747000D01*
X+7620000Y+7620000D02*
X+7593394Y+7622436D01*
X+7569081Y+7629485D01*
X+7547446Y+7640762D01*
X+7528878Y+7655878D01*
X+7513762Y+7674446D01*
X+7502485Y+7696081D01*
X+7495436Y+7720394D01*
X+7493000Y+7747000D01*
X+7747000Y+7747000D02*
X+7874000Y+7747000D01*
X+7366000Y+5207000D02*
X+7874000Y+5207000D01*
X+7366000Y+7747000D02*
X+7366000Y+5207000D01*
X+7874000Y+7747000D02*
X+7874000Y+5207000D01*
X+7429500Y+7879080D02*
X+7429500Y+7802880D01*
X+7445375Y+7787640D01*
X+7508875Y+7787640D01*
X+7524750Y+7802880D01*
X+7524750Y+7879080D01*
X+7651750Y+7818120D02*
X+7556500Y+7818120D01*
X+7620000Y+7879080D01*
X+7620000Y+7787640D01*
X+7715250Y+7833360D02*
X+7699375Y+7848600D01*
X+7699375Y+7863840D01*
X+7715250Y+7879080D01*
X+7762875Y+7879080D01*
X+7778750Y+7863840D01*
X+7778750Y+7848600D01*
X+7762875Y+7833360D01*
X+7715250Y+7833360D01*
X+7699375Y+7818120D01*
X+7699375Y+7802880D01*
X+7715250Y+7787640D01*
X+7762875Y+7787640D01*
X+7778750Y+7802880D01*
X+7778750Y+7818120D01*
X+7762875Y+7833360D01*
X+9779000Y+4318000D02*
X+9779000Y+4191000D01*
X+9652000Y+4064000D02*
X+9654436Y+4038124D01*
X+9661485Y+4014152D01*
X+9672762Y+3992562D01*
X+9687878Y+3973830D01*
X+9706446Y+3958431D01*
X+9728081Y+3946842D01*
X+9752394Y+3939540D01*
X+9779000Y+3937000D01*
X+9652000Y+4064000D02*
X+9654436Y+4090606D01*
X+9661485Y+4114919D01*
X+9672762Y+4136554D01*
X+9687878Y+4155122D01*
X+9706446Y+4170238D01*
X+9728081Y+4181515D01*
X+9752394Y+4188564D01*
X+9779000Y+4191000D01*
X+9779000Y+3937000D02*
X+9779000Y+3810000D01*
X+7239000Y+4318000D02*
X+7239000Y+3810000D01*
X+9779000Y+4318000D02*
X+7239000Y+4318000D01*
X+9779000Y+3810000D02*
X+7239000Y+3810000D01*
X+9819640Y+3873500D02*
X+9895840Y+3873500D01*
X+9911080Y+3889375D01*
X+9911080Y+3952875D01*
X+9895840Y+3968750D01*
X+9819640Y+3968750D01*
X+9865360Y+4032250D02*
X+9850120Y+4016375D01*
X+9834880Y+4016375D01*
X+9819640Y+4032250D01*
X+9819640Y+4079875D01*
X+9834880Y+4095750D01*
X+9850120Y+4095750D01*
X+9865360Y+4079875D01*
X+9865360Y+4032250D01*
X+9880600Y+4016375D01*
X+9895840Y+4016375D01*
X+9911080Y+4032250D01*
X+9911080Y+4079875D01*
X+9895840Y+4095750D01*
X+9880600Y+4095750D01*
X+9865360Y+4079875D01*
X+9834880Y+4143375D02*
X+9819640Y+4159250D01*
X+9819640Y+4206875D01*
X+9834880Y+4222750D01*
X+9850120Y+4222750D01*
X+9865360Y+4206875D01*
X+9865360Y+4159250D01*
X+9880600Y+4143375D01*
X+9911080Y+4143375D01*
X+9911080Y+4222750D01*
X+4445000Y+762000D02*
X+4572000Y+762000D01*
X+4699000Y+635000D02*
X+4724876Y+637436D01*
X+4748848Y+644485D01*
X+4770438Y+655762D01*
X+4789170Y+670878D01*
X+4804569Y+689446D01*
X+4816158Y+711081D01*
X+4823460Y+735394D01*
X+4826000Y+762000D01*
X+4699000Y+635000D02*
X+4672394Y+637436D01*
X+4648081Y+644485D01*
X+4626446Y+655762D01*
X+4607878Y+670878D01*
X+4592762Y+689446D01*
X+4581485Y+711081D01*
X+4574436Y+735394D01*
X+4572000Y+762000D01*
X+4826000Y+762000D02*
X+4953000Y+762000D01*
X+4445000Y-1778000D02*
X+4953000Y-1778000D01*
X+4445000Y+762000D02*
X+4445000Y-1778000D01*
X+4953000Y+762000D02*
X+4953000Y-1778000D01*
X+4508500Y+894080D02*
X+4508500Y+817880D01*
X+4524375Y+802640D01*
X+4587875Y+802640D01*
X+4603750Y+817880D01*
X+4603750Y+894080D01*
X+4667250Y+863600D02*
X+4699000Y+894080D01*
X+4699000Y+802640D01*
X+4794250Y+848360D02*
X+4778375Y+863600D01*
X+4778375Y+878840D01*
X+4794250Y+894080D01*
X+4841875Y+894080D01*
X+4857750Y+878840D01*
X+4857750Y+863600D01*
X+4841875Y+848360D01*
X+4794250Y+848360D01*
X+4778375Y+833120D01*
X+4778375Y+817880D01*
X+4794250Y+802640D01*
X+4841875Y+802640D01*
X+4857750Y+817880D01*
X+4857750Y+833120D01*
X+4841875Y+848360D01*
X+5588000Y+762000D02*
X+5715000Y+762000D01*
X+5842000Y+635000D02*
X+5867876Y+637436D01*
X+5891848Y+644485D01*
X+5913438Y+655762D01*
X+5932170Y+670878D01*
X+5947569Y+689446D01*
X+5959158Y+711081D01*
X+5966460Y+735394D01*
X+5969000Y+762000D01*
X+5842000Y+635000D02*
X+5815394Y+637436D01*
X+5791081Y+644485D01*
X+5769446Y+655762D01*
X+5750878Y+670878D01*
X+5735762Y+689446D01*
X+5724485Y+711081D01*
X+5717436Y+735394D01*
X+5715000Y+762000D01*
X+5969000Y+762000D02*
X+6096000Y+762000D01*
X+5588000Y-1778000D02*
X+6096000Y-1778000D01*
X+5588000Y+762000D02*
X+5588000Y-1778000D01*
X+6096000Y+762000D02*
X+6096000Y-1778000D01*
X+5651500Y+894080D02*
X+5651500Y+817880D01*
X+5667375Y+802640D01*
X+5730875Y+802640D01*
X+5746750Y+817880D01*
X+5746750Y+894080D01*
X+5810250Y+863600D02*
X+5842000Y+894080D01*
X+5842000Y+802640D01*
X+6000750Y+863600D02*
X+5984875Y+848360D01*
X+5937250Y+848360D01*
X+5921375Y+863600D01*
X+5921375Y+878840D01*
X+5937250Y+894080D01*
X+5984875Y+894080D01*
X+6000750Y+878840D01*
X+6000750Y+817880D01*
X+5984875Y+802640D01*
X+5937250Y+802640D01*
X+6604000Y+762000D02*
X+6731000Y+762000D01*
X+6858000Y+635000D02*
X+6883876Y+637436D01*
X+6907848Y+644485D01*
X+6929438Y+655762D01*
X+6948170Y+670878D01*
X+6963569Y+689446D01*
X+6975158Y+711081D01*
X+6982460Y+735394D01*
X+6985000Y+762000D01*
X+6858000Y+635000D02*
X+6831394Y+637436D01*
X+6807081Y+644485D01*
X+6785446Y+655762D01*
X+6766878Y+670878D01*
X+6751762Y+689446D01*
X+6740485Y+711081D01*
X+6733436Y+735394D01*
X+6731000Y+762000D01*
X+6985000Y+762000D02*
X+7112000Y+762000D01*
X+6604000Y-1778000D02*
X+7112000Y-1778000D01*
X+6604000Y+762000D02*
X+6604000Y-1778000D01*
X+7112000Y+762000D02*
X+7112000Y-1778000D01*
X+6667500Y+894080D02*
X+6667500Y+817880D01*
X+6683375Y+802640D01*
X+6746875Y+802640D01*
X+6762750Y+817880D01*
X+6762750Y+894080D01*
X+6810375Y+878840D02*
X+6826250Y+894080D01*
X+6873875Y+894080D01*
X+6889750Y+878840D01*
X+6889750Y+863600D01*
X+6873875Y+848360D01*
X+6826250Y+848360D01*
X+6810375Y+833120D01*
X+6810375Y+802640D01*
X+6889750Y+802640D01*
X+6921500Y+817880D02*
X+6921500Y+878840D01*
X+6937375Y+894080D01*
X+7000875Y+894080D01*
X+7016750Y+878840D01*
X+7016750Y+817880D01*
X+7000875Y+802640D01*
X+6937375Y+802640D01*
X+6921500Y+817880D01*
X+6921500Y+802640D02*
X+7016750Y+894080D01*
X+7366000Y+2794000D02*
X+7366000Y+2921000D01*
X+7493000Y+3048000D02*
X+7490564Y+3073876D01*
X+7483515Y+3097848D01*
X+7472238Y+3119438D01*
X+7457122Y+3138170D01*
X+7438554Y+3153569D01*
X+7416919Y+3165158D01*
X+7392606Y+3172460D01*
X+7366000Y+3175000D01*
X+7493000Y+3048000D02*
X+7490564Y+3021394D01*
X+7483515Y+2997081D01*
X+7472238Y+2975446D01*
X+7457122Y+2956878D01*
X+7438554Y+2941762D01*
X+7416919Y+2930485D01*
X+7392606Y+2923436D01*
X+7366000Y+2921000D01*
X+7366000Y+3175000D02*
X+7366000Y+3302000D01*
X+9906000Y+2794000D02*
X+9906000Y+3302000D01*
X+7366000Y+2794000D02*
X+9906000Y+2794000D01*
X+7366000Y+3302000D02*
X+9906000Y+3302000D01*
X+7233920Y+2857500D02*
X+7310120Y+2857500D01*
X+7325360Y+2873375D01*
X+7325360Y+2936875D01*
X+7310120Y+2952750D01*
X+7233920Y+2952750D01*
X+7249160Y+3000375D02*
X+7233920Y+3016250D01*
X+7233920Y+3063875D01*
X+7249160Y+3079750D01*
X+7264400Y+3079750D01*
X+7279640Y+3063875D01*
X+7279640Y+3016250D01*
X+7294880Y+3000375D01*
X+7325360Y+3000375D01*
X+7325360Y+3079750D01*
X+7264400Y+3143250D02*
X+7233920Y+3175000D01*
X+7325360Y+3175000D01*
X+7366000Y+1524000D02*
X+7366000Y+1651000D01*
X+7493000Y+1778000D02*
X+7490564Y+1803876D01*
X+7483515Y+1827848D01*
X+7472238Y+1849438D01*
X+7457122Y+1868170D01*
X+7438554Y+1883569D01*
X+7416919Y+1895158D01*
X+7392606Y+1902460D01*
X+7366000Y+1905000D01*
X+7493000Y+1778000D02*
X+7490564Y+1751394D01*
X+7483515Y+1727081D01*
X+7472238Y+1705446D01*
X+7457122Y+1686878D01*
X+7438554Y+1671762D01*
X+7416919Y+1660485D01*
X+7392606Y+1653436D01*
X+7366000Y+1651000D01*
X+7366000Y+1905000D02*
X+7366000Y+2032000D01*
X+9906000Y+1524000D02*
X+9906000Y+2032000D01*
X+7366000Y+1524000D02*
X+9906000Y+1524000D01*
X+7366000Y+2032000D02*
X+9906000Y+2032000D01*
X+7233920Y+1587500D02*
X+7310120Y+1587500D01*
X+7325360Y+1603375D01*
X+7325360Y+1666875D01*
X+7310120Y+1682750D01*
X+7233920Y+1682750D01*
X+7249160Y+1730375D02*
X+7233920Y+1746250D01*
X+7233920Y+1793875D01*
X+7249160Y+1809750D01*
X+7264400Y+1809750D01*
X+7279640Y+1793875D01*
X+7279640Y+1746250D01*
X+7294880Y+1730375D01*
X+7325360Y+1730375D01*
X+7325360Y+1809750D01*
X+7249160Y+1936750D02*
X+7233920Y+1920875D01*
X+7233920Y+1873250D01*
X+7249160Y+1857375D01*
X+7310120Y+1857375D01*
X+7325360Y+1873250D01*
X+7325360Y+1920875D01*
X+7310120Y+1936750D01*
X+7294880Y+1936750D01*
X+7279640Y+1920875D01*
X+7279640Y+1857375D01*
X+9652000Y+11049000D02*
X+9779000Y+11049000D01*
X+9906000Y+10922000D02*
X+9931876Y+10924436D01*
X+9955848Y+10931485D01*
X+9977438Y+10942762D01*
X+9996170Y+10957878D01*
X+10011569Y+10976446D01*
X+10023158Y+10998081D01*
X+10030460Y+11022394D01*
X+10033000Y+11049000D01*
X+9906000Y+10922000D02*
X+9879394Y+10924436D01*
X+9855081Y+10931485D01*
X+9833446Y+10942762D01*
X+9814878Y+10957878D01*
X+9799762Y+10976446D01*
X+9788485Y+10998081D01*
X+9781436Y+11022394D01*
X+9779000Y+11049000D01*
X+10033000Y+11049000D02*
X+10160000Y+11049000D01*
X+9652000Y+8509000D02*
X+10160000Y+8509000D01*
X+9652000Y+11049000D02*
X+9652000Y+8509000D01*
X+10160000Y+11049000D02*
X+10160000Y+8509000D01*
X+9715500Y+11181080D02*
X+9715500Y+11104880D01*
X+9731375Y+11089640D01*
X+9794875Y+11089640D01*
X+9810750Y+11104880D01*
X+9810750Y+11181080D01*
X+9858375Y+11165840D02*
X+9874250Y+11181080D01*
X+9921875Y+11181080D01*
X+9937750Y+11165840D01*
X+9937750Y+11150600D01*
X+9921875Y+11135360D01*
X+9874250Y+11135360D01*
X+9858375Y+11120120D01*
X+9858375Y+11089640D01*
X+9937750Y+11089640D01*
X+9985375Y+11181080D02*
X+10064750Y+11181080D01*
X+10064750Y+11165840D01*
X+9985375Y+11089640D01*
X+9144000Y+7747000D02*
X+9271000Y+7747000D01*
X+9398000Y+7620000D02*
X+9423876Y+7622436D01*
X+9447848Y+7629485D01*
X+9469438Y+7640762D01*
X+9488170Y+7655878D01*
X+9503569Y+7674446D01*
X+9515158Y+7696081D01*
X+9522460Y+7720394D01*
X+9525000Y+7747000D01*
X+9398000Y+7620000D02*
X+9371394Y+7622436D01*
X+9347081Y+7629485D01*
X+9325446Y+7640762D01*
X+9306878Y+7655878D01*
X+9291762Y+7674446D01*
X+9280485Y+7696081D01*
X+9273436Y+7720394D01*
X+9271000Y+7747000D01*
X+9525000Y+7747000D02*
X+9652000Y+7747000D01*
X+9144000Y+5207000D02*
X+9652000Y+5207000D01*
X+9144000Y+7747000D02*
X+9144000Y+5207000D01*
X+9652000Y+7747000D02*
X+9652000Y+5207000D01*
X+9207500Y+7879080D02*
X+9207500Y+7802880D01*
X+9223375Y+7787640D01*
X+9286875Y+7787640D01*
X+9302750Y+7802880D01*
X+9302750Y+7879080D01*
X+9350375Y+7863840D02*
X+9366250Y+7879080D01*
X+9413875Y+7879080D01*
X+9429750Y+7863840D01*
X+9429750Y+7848600D01*
X+9413875Y+7833360D01*
X+9366250Y+7833360D01*
X+9350375Y+7818120D01*
X+9350375Y+7787640D01*
X+9429750Y+7787640D01*
X+9493250Y+7833360D02*
X+9477375Y+7848600D01*
X+9477375Y+7863840D01*
X+9493250Y+7879080D01*
X+9540875Y+7879080D01*
X+9556750Y+7863840D01*
X+9556750Y+7848600D01*
X+9540875Y+7833360D01*
X+9493250Y+7833360D01*
X+9477375Y+7818120D01*
X+9477375Y+7802880D01*
X+9493250Y+7787640D01*
X+9540875Y+7787640D01*
X+9556750Y+7802880D01*
X+9556750Y+7818120D01*
X+9540875Y+7833360D01*
X+10668000Y+5207000D02*
X+10541000Y+5207000D01*
X+10414000Y+5334000D02*
X+10388124Y+5331564D01*
X+10364152Y+5324515D01*
X+10342562Y+5313238D01*
X+10323830Y+5298122D01*
X+10308431Y+5279554D01*
X+10296842Y+5257919D01*
X+10289540Y+5233606D01*
X+10287000Y+5207000D01*
X+10414000Y+5334000D02*
X+10440606Y+5331564D01*
X+10464919Y+5324515D01*
X+10486554Y+5313238D01*
X+10505122Y+5298122D01*
X+10520238Y+5279554D01*
X+10531515Y+5257919D01*
X+10538564Y+5233606D01*
X+10541000Y+5207000D01*
X+10287000Y+5207000D02*
X+10160000Y+5207000D01*
X+10668000Y+7747000D02*
X+10160000Y+7747000D01*
X+10668000Y+5207000D02*
X+10668000Y+7747000D01*
X+10160000Y+5207000D02*
X+10160000Y+7747000D01*
X+10223500Y+5166360D02*
X+10223500Y+5090160D01*
X+10239375Y+5074920D01*
X+10302875Y+5074920D01*
X+10318750Y+5090160D01*
X+10318750Y+5166360D01*
X+10445750Y+5166360D02*
X+10366375Y+5166360D01*
X+10366375Y+5135880D01*
X+10429875Y+5135880D01*
X+10445750Y+5120640D01*
X+10445750Y+5090160D01*
X+10429875Y+5074920D01*
X+10382250Y+5074920D01*
X+10366375Y+5090160D01*
X+10477500Y+5090160D02*
X+10477500Y+5151120D01*
X+10493375Y+5166360D01*
X+10556875Y+5166360D01*
X+10572750Y+5151120D01*
X+10572750Y+5090160D01*
X+10556875Y+5074920D01*
X+10493375Y+5074920D01*
X+10477500Y+5090160D01*
X+10477500Y+5074920D02*
X+10572750Y+5166360D01*
X+11176000Y+7747000D02*
X+11303000Y+7747000D01*
X+11430000Y+7620000D02*
X+11455876Y+7622436D01*
X+11479848Y+7629485D01*
X+11501438Y+7640762D01*
X+11520170Y+7655878D01*
X+11535569Y+7674446D01*
X+11547158Y+7696081D01*
X+11554460Y+7720394D01*
X+11557000Y+7747000D01*
X+11430000Y+7620000D02*
X+11403394Y+7622436D01*
X+11379081Y+7629485D01*
X+11357446Y+7640762D01*
X+11338878Y+7655878D01*
X+11323762Y+7674446D01*
X+11312485Y+7696081D01*
X+11305436Y+7720394D01*
X+11303000Y+7747000D01*
X+11557000Y+7747000D02*
X+11684000Y+7747000D01*
X+11176000Y+5207000D02*
X+11684000Y+5207000D01*
X+11176000Y+7747000D02*
X+11176000Y+5207000D01*
X+11684000Y+7747000D02*
X+11684000Y+5207000D01*
X+11239500Y+7879080D02*
X+11239500Y+7802880D01*
X+11255375Y+7787640D01*
X+11318875Y+7787640D01*
X+11334750Y+7802880D01*
X+11334750Y+7879080D01*
X+11461750Y+7879080D02*
X+11382375Y+7879080D01*
X+11382375Y+7848600D01*
X+11445875Y+7848600D01*
X+11461750Y+7833360D01*
X+11461750Y+7802880D01*
X+11445875Y+7787640D01*
X+11398250Y+7787640D01*
X+11382375Y+7802880D01*
X+11525250Y+7848600D02*
X+11557000Y+7879080D01*
X+11557000Y+7787640D01*
X+12192000Y+7747000D02*
X+12319000Y+7747000D01*
X+12446000Y+7620000D02*
X+12471876Y+7622436D01*
X+12495848Y+7629485D01*
X+12517438Y+7640762D01*
X+12536170Y+7655878D01*
X+12551569Y+7674446D01*
X+12563158Y+7696081D01*
X+12570460Y+7720394D01*
X+12573000Y+7747000D01*
X+12446000Y+7620000D02*
X+12419394Y+7622436D01*
X+12395081Y+7629485D01*
X+12373446Y+7640762D01*
X+12354878Y+7655878D01*
X+12339762Y+7674446D01*
X+12328485Y+7696081D01*
X+12321436Y+7720394D01*
X+12319000Y+7747000D01*
X+12573000Y+7747000D02*
X+12700000Y+7747000D01*
X+12192000Y+5207000D02*
X+12700000Y+5207000D01*
X+12192000Y+7747000D02*
X+12192000Y+5207000D01*
X+12700000Y+7747000D02*
X+12700000Y+5207000D01*
X+12255500Y+7879080D02*
X+12255500Y+7802880D01*
X+12271375Y+7787640D01*
X+12334875Y+7787640D01*
X+12350750Y+7802880D01*
X+12350750Y+7879080D01*
X+12477750Y+7879080D02*
X+12398375Y+7879080D01*
X+12398375Y+7848600D01*
X+12461875Y+7848600D01*
X+12477750Y+7833360D01*
X+12477750Y+7802880D01*
X+12461875Y+7787640D01*
X+12414250Y+7787640D01*
X+12398375Y+7802880D01*
X+12604750Y+7879080D02*
X+12525375Y+7879080D01*
X+12525375Y+7848600D01*
X+12588875Y+7848600D01*
X+12604750Y+7833360D01*
X+12604750Y+7802880D01*
X+12588875Y+7787640D01*
X+12541250Y+7787640D01*
X+12525375Y+7802880D01*
X+7620000Y+762000D02*
X+7747000Y+762000D01*
X+7874000Y+635000D02*
X+7899876Y+637436D01*
X+7923848Y+644485D01*
X+7945438Y+655762D01*
X+7964170Y+670878D01*
X+7979569Y+689446D01*
X+7991158Y+711081D01*
X+7998460Y+735394D01*
X+8001000Y+762000D01*
X+7874000Y+635000D02*
X+7847394Y+637436D01*
X+7823081Y+644485D01*
X+7801446Y+655762D01*
X+7782878Y+670878D01*
X+7767762Y+689446D01*
X+7756485Y+711081D01*
X+7749436Y+735394D01*
X+7747000Y+762000D01*
X+8001000Y+762000D02*
X+8128000Y+762000D01*
X+7620000Y-1778000D02*
X+8128000Y-1778000D01*
X+7620000Y+762000D02*
X+7620000Y-1778000D01*
X+8128000Y+762000D02*
X+8128000Y-1778000D01*
X+7683500Y+894080D02*
X+7683500Y+817880D01*
X+7699375Y+802640D01*
X+7762875Y+802640D01*
X+7778750Y+817880D01*
X+7778750Y+894080D01*
X+7826375Y+878840D02*
X+7842250Y+894080D01*
X+7889875Y+894080D01*
X+7905750Y+878840D01*
X+7905750Y+863600D01*
X+7889875Y+848360D01*
X+7842250Y+848360D01*
X+7826375Y+833120D01*
X+7826375Y+802640D01*
X+7905750Y+802640D01*
X+8032750Y+863600D02*
X+8016875Y+848360D01*
X+7969250Y+848360D01*
X+7953375Y+863600D01*
X+7953375Y+878840D01*
X+7969250Y+894080D01*
X+8016875Y+894080D01*
X+8032750Y+878840D01*
X+8032750Y+817880D01*
X+8016875Y+802640D01*
X+7969250Y+802640D01*
X+13462000Y+7620000D02*
X+13589000Y+7620000D01*
X+13716000Y+7493000D02*
X+13741876Y+7495436D01*
X+13765848Y+7502485D01*
X+13787438Y+7513762D01*
X+13806170Y+7528878D01*
X+13821569Y+7547446D01*
X+13833158Y+7569081D01*
X+13840460Y+7593394D01*
X+13843000Y+7620000D01*
X+13716000Y+7493000D02*
X+13689394Y+7495436D01*
X+13665081Y+7502485D01*
X+13643446Y+7513762D01*
X+13624878Y+7528878D01*
X+13609762Y+7547446D01*
X+13598485Y+7569081D01*
X+13591436Y+7593394D01*
X+13589000Y+7620000D01*
X+13843000Y+7620000D02*
X+13970000Y+7620000D01*
X+13462000Y+5080000D02*
X+13970000Y+5080000D01*
X+13462000Y+7620000D02*
X+13462000Y+5080000D01*
X+13970000Y+7620000D02*
X+13970000Y+5080000D01*
X+13525500Y+7752080D02*
X+13525500Y+7675880D01*
X+13541375Y+7660640D01*
X+13604875Y+7660640D01*
X+13620750Y+7675880D01*
X+13620750Y+7752080D01*
X+13747750Y+7691120D02*
X+13652500Y+7691120D01*
X+13716000Y+7752080D01*
X+13716000Y+7660640D01*
X+13779500Y+7675880D02*
X+13779500Y+7736840D01*
X+13795375Y+7752080D01*
X+13858875Y+7752080D01*
X+13874750Y+7736840D01*
X+13874750Y+7675880D01*
X+13858875Y+7660640D01*
X+13795375Y+7660640D01*
X+13779500Y+7675880D01*
X+13779500Y+7660640D02*
X+13874750Y+7752080D01*
X+10541000Y+4699000D02*
X+10668000Y+4699000D01*
X+10795000Y+4572000D02*
X+10820876Y+4574436D01*
X+10844848Y+4581485D01*
X+10866438Y+4592762D01*
X+10885170Y+4607878D01*
X+10900569Y+4626446D01*
X+10912158Y+4648081D01*
X+10919460Y+4672394D01*
X+10922000Y+4699000D01*
X+10795000Y+4572000D02*
X+10768394Y+4574436D01*
X+10744081Y+4581485D01*
X+10722446Y+4592762D01*
X+10703878Y+4607878D01*
X+10688762Y+4626446D01*
X+10677485Y+4648081D01*
X+10670436Y+4672394D01*
X+10668000Y+4699000D01*
X+10922000Y+4699000D02*
X+11049000Y+4699000D01*
X+10541000Y+2159000D02*
X+11049000Y+2159000D01*
X+10541000Y+4699000D02*
X+10541000Y+2159000D01*
X+11049000Y+4699000D02*
X+11049000Y+2159000D01*
X+10604500Y+4831080D02*
X+10604500Y+4754880D01*
X+10620375Y+4739640D01*
X+10683875Y+4739640D01*
X+10699750Y+4754880D01*
X+10699750Y+4831080D01*
X+10826750Y+4770120D02*
X+10731500Y+4770120D01*
X+10795000Y+4831080D01*
X+10795000Y+4739640D01*
X+10890250Y+4800600D02*
X+10922000Y+4831080D01*
X+10922000Y+4739640D01*
X+8763000Y+762000D02*
X+8890000Y+762000D01*
X+9017000Y+635000D02*
X+9042876Y+637436D01*
X+9066848Y+644485D01*
X+9088438Y+655762D01*
X+9107170Y+670878D01*
X+9122569Y+689446D01*
X+9134158Y+711081D01*
X+9141460Y+735394D01*
X+9144000Y+762000D01*
X+9017000Y+635000D02*
X+8990394Y+637436D01*
X+8966081Y+644485D01*
X+8944446Y+655762D01*
X+8925878Y+670878D01*
X+8910762Y+689446D01*
X+8899485Y+711081D01*
X+8892436Y+735394D01*
X+8890000Y+762000D01*
X+9144000Y+762000D02*
X+9271000Y+762000D01*
X+8763000Y-1778000D02*
X+9271000Y-1778000D01*
X+8763000Y+762000D02*
X+8763000Y-1778000D01*
X+9271000Y+762000D02*
X+9271000Y-1778000D01*
X+8826500Y+894080D02*
X+8826500Y+817880D01*
X+8842375Y+802640D01*
X+8905875Y+802640D01*
X+8921750Y+817880D01*
X+8921750Y+894080D01*
X+9048750Y+833120D02*
X+8953500Y+833120D01*
X+9017000Y+894080D01*
X+9017000Y+802640D01*
X+9096375Y+878840D02*
X+9112250Y+894080D01*
X+9159875Y+894080D01*
X+9175750Y+878840D01*
X+9175750Y+863600D01*
X+9159875Y+848360D01*
X+9112250Y+848360D01*
X+9096375Y+833120D01*
X+9096375Y+802640D01*
X+9175750Y+802640D01*
X+11557000Y+4699000D02*
X+11684000Y+4699000D01*
X+11811000Y+4572000D02*
X+11836876Y+4574436D01*
X+11860848Y+4581485D01*
X+11882438Y+4592762D01*
X+11901170Y+4607878D01*
X+11916569Y+4626446D01*
X+11928158Y+4648081D01*
X+11935460Y+4672394D01*
X+11938000Y+4699000D01*
X+11811000Y+4572000D02*
X+11784394Y+4574436D01*
X+11760081Y+4581485D01*
X+11738446Y+4592762D01*
X+11719878Y+4607878D01*
X+11704762Y+4626446D01*
X+11693485Y+4648081D01*
X+11686436Y+4672394D01*
X+11684000Y+4699000D01*
X+11938000Y+4699000D02*
X+12065000Y+4699000D01*
X+11557000Y+2159000D02*
X+12065000Y+2159000D01*
X+11557000Y+4699000D02*
X+11557000Y+2159000D01*
X+12065000Y+4699000D02*
X+12065000Y+2159000D01*
X+11620500Y+4831080D02*
X+11620500Y+4754880D01*
X+11636375Y+4739640D01*
X+11699875Y+4739640D01*
X+11715750Y+4754880D01*
X+11715750Y+4831080D01*
X+11842750Y+4770120D02*
X+11747500Y+4770120D01*
X+11811000Y+4831080D01*
X+11811000Y+4739640D01*
X+11890375Y+4815840D02*
X+11906250Y+4831080D01*
X+11953875Y+4831080D01*
X+11969750Y+4815840D01*
X+11969750Y+4800600D01*
X+11953875Y+4785360D01*
X+11969750Y+4770120D01*
X+11969750Y+4754880D01*
X+11953875Y+4739640D01*
X+11906250Y+4739640D01*
X+11890375Y+4754880D01*
X+11922125Y+4785360D02*
X+11953875Y+4785360D01*
X+13081000Y+2159000D02*
X+12954000Y+2159000D01*
X+12827000Y+2286000D02*
X+12801124Y+2283564D01*
X+12777152Y+2276515D01*
X+12755562Y+2265238D01*
X+12736830Y+2250122D01*
X+12721431Y+2231554D01*
X+12709842Y+2209919D01*
X+12702540Y+2185606D01*
X+12700000Y+2159000D01*
X+12827000Y+2286000D02*
X+12853606Y+2283564D01*
X+12877919Y+2276515D01*
X+12899554Y+2265238D01*
X+12918122Y+2250122D01*
X+12933238Y+2231554D01*
X+12944515Y+2209919D01*
X+12951564Y+2185606D01*
X+12954000Y+2159000D01*
X+12700000Y+2159000D02*
X+12573000Y+2159000D01*
X+13081000Y+4699000D02*
X+12573000Y+4699000D01*
X+13081000Y+2159000D02*
X+13081000Y+4699000D01*
X+12573000Y+2159000D02*
X+12573000Y+4699000D01*
X+12636500Y+2118360D02*
X+12636500Y+2042160D01*
X+12652375Y+2026920D01*
X+12715875Y+2026920D01*
X+12731750Y+2042160D01*
X+12731750Y+2118360D01*
X+12858750Y+2057400D02*
X+12763500Y+2057400D01*
X+12827000Y+2118360D01*
X+12827000Y+2026920D01*
X+12985750Y+2057400D02*
X+12890500Y+2057400D01*
X+12954000Y+2118360D01*
X+12954000Y+2026920D01*
X+14097000Y+2159000D02*
X+13970000Y+2159000D01*
X+13843000Y+2286000D02*
X+13817124Y+2283564D01*
X+13793152Y+2276515D01*
X+13771562Y+2265238D01*
X+13752830Y+2250122D01*
X+13737431Y+2231554D01*
X+13725842Y+2209919D01*
X+13718540Y+2185606D01*
X+13716000Y+2159000D01*
X+13843000Y+2286000D02*
X+13869606Y+2283564D01*
X+13893919Y+2276515D01*
X+13915554Y+2265238D01*
X+13934122Y+2250122D01*
X+13949238Y+2231554D01*
X+13960515Y+2209919D01*
X+13967564Y+2185606D01*
X+13970000Y+2159000D01*
X+13716000Y+2159000D02*
X+13589000Y+2159000D01*
X+14097000Y+4699000D02*
X+13589000Y+4699000D01*
X+14097000Y+2159000D02*
X+14097000Y+4699000D01*
X+13589000Y+2159000D02*
X+13589000Y+4699000D01*
X+13652500Y+2118360D02*
X+13652500Y+2042160D01*
X+13668375Y+2026920D01*
X+13731875Y+2026920D01*
X+13747750Y+2042160D01*
X+13747750Y+2118360D01*
X+13874750Y+2057400D02*
X+13779500Y+2057400D01*
X+13843000Y+2118360D01*
X+13843000Y+2026920D01*
X+14001750Y+2118360D02*
X+13922375Y+2118360D01*
X+13922375Y+2087880D01*
X+13985875Y+2087880D01*
X+14001750Y+2072640D01*
X+14001750Y+2042160D01*
X+13985875Y+2026920D01*
X+13938250Y+2026920D01*
X+13922375Y+2042160D01*
X+14097000Y-762000D02*
X+13970000Y-762000D01*
X+13843000Y-635000D02*
X+13817124Y-637436D01*
X+13793152Y-644485D01*
X+13771562Y-655762D01*
X+13752830Y-670878D01*
X+13737431Y-689446D01*
X+13725842Y-711081D01*
X+13718540Y-735394D01*
X+13716000Y-762000D01*
X+13843000Y-635000D02*
X+13869606Y-637436D01*
X+13893919Y-644485D01*
X+13915554Y-655762D01*
X+13934122Y-670878D01*
X+13949238Y-689446D01*
X+13960515Y-711081D01*
X+13967564Y-735394D01*
X+13970000Y-762000D01*
X+13716000Y-762000D02*
X+13589000Y-762000D01*
X+14097000Y+1778000D02*
X+13589000Y+1778000D01*
X+14097000Y-762000D02*
X+14097000Y+1778000D01*
X+13589000Y-762000D02*
X+13589000Y+1778000D01*
X+13652500Y-802640D02*
X+13652500Y-878840D01*
X+13668375Y-894080D01*
X+13731875Y-894080D01*
X+13747750Y-878840D01*
X+13747750Y-802640D01*
X+13874750Y-863600D02*
X+13779500Y-863600D01*
X+13843000Y-802640D01*
X+13843000Y-894080D01*
X+14001750Y-817880D02*
X+13985875Y-802640D01*
X+13938250Y-802640D01*
X+13922375Y-817880D01*
X+13922375Y-878840D01*
X+13938250Y-894080D01*
X+13985875Y-894080D01*
X+14001750Y-878840D01*
X+14001750Y-863600D01*
X+13985875Y-848360D01*
X+13922375Y-848360D01*
X+5588000Y-2286000D02*
X+5715000Y-2286000D01*
X+5842000Y-2413000D02*
X+5867876Y-2410564D01*
X+5891848Y-2403515D01*
X+5913438Y-2392238D01*
X+5932170Y-2377122D01*
X+5947569Y-2358554D01*
X+5959158Y-2336919D01*
X+5966460Y-2312606D01*
X+5969000Y-2286000D01*
X+5842000Y-2413000D02*
X+5815394Y-2410564D01*
X+5791081Y-2403515D01*
X+5769446Y-2392238D01*
X+5750878Y-2377122D01*
X+5735762Y-2358554D01*
X+5724485Y-2336919D01*
X+5717436Y-2312606D01*
X+5715000Y-2286000D01*
X+5969000Y-2286000D02*
X+6096000Y-2286000D01*
X+5588000Y-4826000D02*
X+6096000Y-4826000D01*
X+5588000Y-2286000D02*
X+5588000Y-4826000D01*
X+6096000Y-2286000D02*
X+6096000Y-4826000D01*
X+5651500Y-2153920D02*
X+5651500Y-2230120D01*
X+5667375Y-2245360D01*
X+5730875Y-2245360D01*
X+5746750Y-2230120D01*
X+5746750Y-2153920D01*
X+5873750Y-2214880D02*
X+5778500Y-2214880D01*
X+5842000Y-2153920D01*
X+5842000Y-2245360D01*
X+5921375Y-2153920D02*
X+6000750Y-2153920D01*
X+6000750Y-2169160D01*
X+5921375Y-2245360D01*
X+4445000Y-2286000D02*
X+4572000Y-2286000D01*
X+4699000Y-2413000D02*
X+4724876Y-2410564D01*
X+4748848Y-2403515D01*
X+4770438Y-2392238D01*
X+4789170Y-2377122D01*
X+4804569Y-2358554D01*
X+4816158Y-2336919D01*
X+4823460Y-2312606D01*
X+4826000Y-2286000D01*
X+4699000Y-2413000D02*
X+4672394Y-2410564D01*
X+4648081Y-2403515D01*
X+4626446Y-2392238D01*
X+4607878Y-2377122D01*
X+4592762Y-2358554D01*
X+4581485Y-2336919D01*
X+4574436Y-2312606D01*
X+4572000Y-2286000D01*
X+4826000Y-2286000D02*
X+4953000Y-2286000D01*
X+4445000Y-4826000D02*
X+4953000Y-4826000D01*
X+4445000Y-2286000D02*
X+4445000Y-4826000D01*
X+4953000Y-2286000D02*
X+4953000Y-4826000D01*
X+4508500Y-2153920D02*
X+4508500Y-2230120D01*
X+4524375Y-2245360D01*
X+4587875Y-2245360D01*
X+4603750Y-2230120D01*
X+4603750Y-2153920D01*
X+4730750Y-2214880D02*
X+4635500Y-2214880D01*
X+4699000Y-2153920D01*
X+4699000Y-2245360D01*
X+4857750Y-2184400D02*
X+4841875Y-2199640D01*
X+4794250Y-2199640D01*
X+4778375Y-2184400D01*
X+4778375Y-2169160D01*
X+4794250Y-2153920D01*
X+4841875Y-2153920D01*
X+4857750Y-2169160D01*
X+4857750Y-2230120D01*
X+4841875Y-2245360D01*
X+4794250Y-2245360D01*
X+6604000Y-2286000D02*
X+6731000Y-2286000D01*
X+6858000Y-2413000D02*
X+6883876Y-2410564D01*
X+6907848Y-2403515D01*
X+6929438Y-2392238D01*
X+6948170Y-2377122D01*
X+6963569Y-2358554D01*
X+6975158Y-2336919D01*
X+6982460Y-2312606D01*
X+6985000Y-2286000D01*
X+6858000Y-2413000D02*
X+6831394Y-2410564D01*
X+6807081Y-2403515D01*
X+6785446Y-2392238D01*
X+6766878Y-2377122D01*
X+6751762Y-2358554D01*
X+6740485Y-2336919D01*
X+6733436Y-2312606D01*
X+6731000Y-2286000D01*
X+6985000Y-2286000D02*
X+7112000Y-2286000D01*
X+6604000Y-4826000D02*
X+7112000Y-4826000D01*
X+6604000Y-2286000D02*
X+6604000Y-4826000D01*
X+7112000Y-2286000D02*
X+7112000Y-4826000D01*
X+6667500Y-2153920D02*
X+6667500Y-2230120D01*
X+6683375Y-2245360D01*
X+6746875Y-2245360D01*
X+6762750Y-2230120D01*
X+6762750Y-2153920D01*
X+6889750Y-2153920D02*
X+6810375Y-2153920D01*
X+6810375Y-2184400D01*
X+6873875Y-2184400D01*
X+6889750Y-2199640D01*
X+6889750Y-2230120D01*
X+6873875Y-2245360D01*
X+6826250Y-2245360D01*
X+6810375Y-2230120D01*
X+6937375Y-2169160D02*
X+6953250Y-2153920D01*
X+7000875Y-2153920D01*
X+7016750Y-2169160D01*
X+7016750Y-2184400D01*
X+7000875Y-2199640D01*
X+6953250Y-2199640D01*
X+6937375Y-2214880D01*
X+6937375Y-2245360D01*
X+7016750Y-2245360D01*
X+7620000Y-2286000D02*
X+7747000Y-2286000D01*
X+7874000Y-2413000D02*
X+7899876Y-2410564D01*
X+7923848Y-2403515D01*
X+7945438Y-2392238D01*
X+7964170Y-2377122D01*
X+7979569Y-2358554D01*
X+7991158Y-2336919D01*
X+7998460Y-2312606D01*
X+8001000Y-2286000D01*
X+7874000Y-2413000D02*
X+7847394Y-2410564D01*
X+7823081Y-2403515D01*
X+7801446Y-2392238D01*
X+7782878Y-2377122D01*
X+7767762Y-2358554D01*
X+7756485Y-2336919D01*
X+7749436Y-2312606D01*
X+7747000Y-2286000D01*
X+8001000Y-2286000D02*
X+8128000Y-2286000D01*
X+7620000Y-4826000D02*
X+8128000Y-4826000D01*
X+7620000Y-2286000D02*
X+7620000Y-4826000D01*
X+8128000Y-2286000D02*
X+8128000Y-4826000D01*
X+7683500Y-2153920D02*
X+7683500Y-2230120D01*
X+7699375Y-2245360D01*
X+7762875Y-2245360D01*
X+7778750Y-2230120D01*
X+7778750Y-2153920D01*
X+7905750Y-2153920D02*
X+7826375Y-2153920D01*
X+7826375Y-2184400D01*
X+7889875Y-2184400D01*
X+7905750Y-2199640D01*
X+7905750Y-2230120D01*
X+7889875Y-2245360D01*
X+7842250Y-2245360D01*
X+7826375Y-2230120D01*
X+8032750Y-2169160D02*
X+8016875Y-2153920D01*
X+7969250Y-2153920D01*
X+7953375Y-2169160D01*
X+7953375Y-2230120D01*
X+7969250Y-2245360D01*
X+8016875Y-2245360D01*
X+8032750Y-2230120D01*
X+8032750Y-2214880D01*
X+8016875Y-2199640D01*
X+7953375Y-2199640D01*
X+10160000Y-1143000D02*
X+10287000Y-1143000D01*
X+10414000Y-1270000D02*
X+10439876Y-1267564D01*
X+10463848Y-1260515D01*
X+10485438Y-1249238D01*
X+10504170Y-1234122D01*
X+10519569Y-1215554D01*
X+10531158Y-1193919D01*
X+10538460Y-1169606D01*
X+10541000Y-1143000D01*
X+10414000Y-1270000D02*
X+10387394Y-1267564D01*
X+10363081Y-1260515D01*
X+10341446Y-1249238D01*
X+10322878Y-1234122D01*
X+10307762Y-1215554D01*
X+10296485Y-1193919D01*
X+10289436Y-1169606D01*
X+10287000Y-1143000D01*
X+10541000Y-1143000D02*
X+10668000Y-1143000D01*
X+10160000Y-3683000D02*
X+10668000Y-3683000D01*
X+10160000Y-1143000D02*
X+10160000Y-3683000D01*
X+10668000Y-1143000D02*
X+10668000Y-3683000D01*
X+10160000Y-1010920D02*
X+10160000Y-1087120D01*
X+10175875Y-1102360D01*
X+10239375Y-1102360D01*
X+10255250Y-1087120D01*
X+10255250Y-1010920D01*
X+10318750Y-1041400D02*
X+10350500Y-1010920D01*
X+10350500Y-1102360D01*
X+10429875Y-1026160D02*
X+10445750Y-1010920D01*
X+10493375Y-1010920D01*
X+10509250Y-1026160D01*
X+10509250Y-1041400D01*
X+10493375Y-1056640D01*
X+10445750Y-1056640D01*
X+10429875Y-1071880D01*
X+10429875Y-1102360D01*
X+10509250Y-1102360D01*
X+10636250Y-1041400D02*
X+10620375Y-1056640D01*
X+10572750Y-1056640D01*
X+10556875Y-1041400D01*
X+10556875Y-1026160D01*
X+10572750Y-1010920D01*
X+10620375Y-1010920D01*
X+10636250Y-1026160D01*
X+10636250Y-1087120D01*
X+10620375Y-1102360D01*
X+10572750Y-1102360D01*
X+8763000Y-2286000D02*
X+8890000Y-2286000D01*
X+9017000Y-2413000D02*
X+9042876Y-2410564D01*
X+9066848Y-2403515D01*
X+9088438Y-2392238D01*
X+9107170Y-2377122D01*
X+9122569Y-2358554D01*
X+9134158Y-2336919D01*
X+9141460Y-2312606D01*
X+9144000Y-2286000D01*
X+9017000Y-2413000D02*
X+8990394Y-2410564D01*
X+8966081Y-2403515D01*
X+8944446Y-2392238D01*
X+8925878Y-2377122D01*
X+8910762Y-2358554D01*
X+8899485Y-2336919D01*
X+8892436Y-2312606D01*
X+8890000Y-2286000D01*
X+9144000Y-2286000D02*
X+9271000Y-2286000D01*
X+8763000Y-4318000D02*
X+9271000Y-4318000D01*
X+8763000Y-2286000D02*
X+8763000Y-4318000D01*
X+9271000Y-4318000D02*
X+9271000Y-2286000D01*
X+8826500Y-2153920D02*
X+8826500Y-2230120D01*
X+8842375Y-2245360D01*
X+8905875Y-2245360D01*
X+8921750Y-2230120D01*
X+8921750Y-2153920D01*
X+8985250Y-2184400D02*
X+9017000Y-2153920D01*
X+9017000Y-2245360D01*
X+9080500Y-2230120D02*
X+9080500Y-2169160D01*
X+9096375Y-2153920D01*
X+9159875Y-2153920D01*
X+9175750Y-2169160D01*
X+9175750Y-2230120D01*
X+9159875Y-2245360D01*
X+9096375Y-2245360D01*
X+9080500Y-2230120D01*
X+9080500Y-2245360D02*
X+9175750Y-2153920D01*
X+11430000Y-1143000D02*
X+11557000Y-1143000D01*
X+11684000Y-1270000D02*
X+11709876Y-1267564D01*
X+11733848Y-1260515D01*
X+11755438Y-1249238D01*
X+11774170Y-1234122D01*
X+11789569Y-1215554D01*
X+11801158Y-1193919D01*
X+11808460Y-1169606D01*
X+11811000Y-1143000D01*
X+11684000Y-1270000D02*
X+11657394Y-1267564D01*
X+11633081Y-1260515D01*
X+11611446Y-1249238D01*
X+11592878Y-1234122D01*
X+11577762Y-1215554D01*
X+11566485Y-1193919D01*
X+11559436Y-1169606D01*
X+11557000Y-1143000D01*
X+11811000Y-1143000D02*
X+11938000Y-1143000D01*
X+11430000Y-3175000D02*
X+11938000Y-3175000D01*
X+11430000Y-1143000D02*
X+11430000Y-3175000D01*
X+11938000Y-3175000D02*
X+11938000Y-1143000D01*
X+11493500Y-1010920D02*
X+11493500Y-1087120D01*
X+11509375Y-1102360D01*
X+11572875Y-1102360D01*
X+11588750Y-1087120D01*
X+11588750Y-1010920D01*
X+11652250Y-1041400D02*
X+11684000Y-1010920D01*
X+11684000Y-1102360D01*
X+11779250Y-1041400D02*
X+11811000Y-1010920D01*
X+11811000Y-1102360D01*
X+3302000Y-3683000D02*
X+3429000Y-3683000D01*
X+3556000Y-3810000D02*
X+3581876Y-3807564D01*
X+3605848Y-3800515D01*
X+3627438Y-3789238D01*
X+3646170Y-3774122D01*
X+3661569Y-3755554D01*
X+3673158Y-3733919D01*
X+3680460Y-3709606D01*
X+3683000Y-3683000D01*
X+3556000Y-3810000D02*
X+3529394Y-3807564D01*
X+3505081Y-3800515D01*
X+3483446Y-3789238D01*
X+3464878Y-3774122D01*
X+3449762Y-3755554D01*
X+3438485Y-3733919D01*
X+3431436Y-3709606D01*
X+3429000Y-3683000D01*
X+3683000Y-3683000D02*
X+3810000Y-3683000D01*
X+3302000Y-5715000D02*
X+3810000Y-5715000D01*
X+3302000Y-3683000D02*
X+3302000Y-5715000D01*
X+3810000Y-5715000D02*
X+3810000Y-3683000D01*
X+3365500Y-3550920D02*
X+3365500Y-3627120D01*
X+3381375Y-3642360D01*
X+3444875Y-3642360D01*
X+3460750Y-3627120D01*
X+3460750Y-3550920D01*
X+3524250Y-3581400D02*
X+3556000Y-3550920D01*
X+3556000Y-3642360D01*
X+3635375Y-3566160D02*
X+3651250Y-3550920D01*
X+3698875Y-3550920D01*
X+3714750Y-3566160D01*
X+3714750Y-3581400D01*
X+3698875Y-3596640D01*
X+3651250Y-3596640D01*
X+3635375Y-3611880D01*
X+3635375Y-3642360D01*
X+3714750Y-3642360D01*
X+12065000Y+1143000D02*
X+12192000Y+1143000D01*
X+12319000Y+1016000D02*
X+12344876Y+1018436D01*
X+12368848Y+1025485D01*
X+12390438Y+1036762D01*
X+12409170Y+1051878D01*
X+12424569Y+1070446D01*
X+12436158Y+1092081D01*
X+12443460Y+1116394D01*
X+12446000Y+1143000D01*
X+12319000Y+1016000D02*
X+12292394Y+1018436D01*
X+12268081Y+1025485D01*
X+12246446Y+1036762D01*
X+12227878Y+1051878D01*
X+12212762Y+1070446D01*
X+12201485Y+1092081D01*
X+12194436Y+1116394D01*
X+12192000Y+1143000D01*
X+12446000Y+1143000D02*
X+12573000Y+1143000D01*
X+12065000Y-889000D02*
X+12573000Y-889000D01*
X+12065000Y+1143000D02*
X+12065000Y-889000D01*
X+12573000Y-889000D02*
X+12573000Y+1143000D01*
X+12128500Y+1275080D02*
X+12128500Y+1198880D01*
X+12144375Y+1183640D01*
X+12207875Y+1183640D01*
X+12223750Y+1198880D01*
X+12223750Y+1275080D01*
X+12287250Y+1244600D02*
X+12319000Y+1275080D01*
X+12319000Y+1183640D01*
X+12398375Y+1259840D02*
X+12414250Y+1275080D01*
X+12461875Y+1275080D01*
X+12477750Y+1259840D01*
X+12477750Y+1244600D01*
X+12461875Y+1229360D01*
X+12477750Y+1214120D01*
X+12477750Y+1198880D01*
X+12461875Y+1183640D01*
X+12414250Y+1183640D01*
X+12398375Y+1198880D01*
X+12430125Y+1229360D02*
X+12461875Y+1229360D01*
X+4699000Y+4191000D02*
X+4826000Y+4191000D01*
X+4953000Y+4064000D02*
X+4978876Y+4066436D01*
X+5002848Y+4073485D01*
X+5024438Y+4084762D01*
X+5043170Y+4099878D01*
X+5058569Y+4118446D01*
X+5070158Y+4140081D01*
X+5077460Y+4164394D01*
X+5080000Y+4191000D01*
X+4953000Y+4064000D02*
X+4926394Y+4066436D01*
X+4902081Y+4073485D01*
X+4880446Y+4084762D01*
X+4861878Y+4099878D01*
X+4846762Y+4118446D01*
X+4835485Y+4140081D01*
X+4828436Y+4164394D01*
X+4826000Y+4191000D01*
X+5080000Y+4191000D02*
X+5207000Y+4191000D01*
X+4699000Y+2159000D02*
X+5207000Y+2159000D01*
X+4699000Y+4191000D02*
X+4699000Y+2159000D01*
X+5207000Y+2159000D02*
X+5207000Y+4191000D01*
X+4762500Y+4323080D02*
X+4762500Y+4246880D01*
X+4778375Y+4231640D01*
X+4841875Y+4231640D01*
X+4857750Y+4246880D01*
X+4857750Y+4323080D01*
X+4905375Y+4307840D02*
X+4921250Y+4323080D01*
X+4968875Y+4323080D01*
X+4984750Y+4307840D01*
X+4984750Y+4292600D01*
X+4968875Y+4277360D01*
X+4984750Y+4262120D01*
X+4984750Y+4246880D01*
X+4968875Y+4231640D01*
X+4921250Y+4231640D01*
X+4905375Y+4246880D01*
X+4937125Y+4277360D02*
X+4968875Y+4277360D01*
X+5111750Y+4307840D02*
X+5095875Y+4323080D01*
X+5048250Y+4323080D01*
X+5032375Y+4307840D01*
X+5032375Y+4246880D01*
X+5048250Y+4231640D01*
X+5095875Y+4231640D01*
X+5111750Y+4246880D01*
X+5111750Y+4262120D01*
X+5095875Y+4277360D01*
X+5032375Y+4277360D01*
X+6096000Y+4191000D02*
X+6223000Y+4191000D01*
X+6350000Y+4064000D02*
X+6375876Y+4066436D01*
X+6399848Y+4073485D01*
X+6421438Y+4084762D01*
X+6440170Y+4099878D01*
X+6455569Y+4118446D01*
X+6467158Y+4140081D01*
X+6474460Y+4164394D01*
X+6477000Y+4191000D01*
X+6350000Y+4064000D02*
X+6323394Y+4066436D01*
X+6299081Y+4073485D01*
X+6277446Y+4084762D01*
X+6258878Y+4099878D01*
X+6243762Y+4118446D01*
X+6232485Y+4140081D01*
X+6225436Y+4164394D01*
X+6223000Y+4191000D01*
X+6477000Y+4191000D02*
X+6604000Y+4191000D01*
X+6096000Y+2159000D02*
X+6604000Y+2159000D01*
X+6096000Y+4191000D02*
X+6096000Y+2159000D01*
X+6604000Y+2159000D02*
X+6604000Y+4191000D01*
X+6159500Y+4323080D02*
X+6159500Y+4246880D01*
X+6175375Y+4231640D01*
X+6238875Y+4231640D01*
X+6254750Y+4246880D01*
X+6254750Y+4323080D01*
X+6381750Y+4307840D02*
X+6365875Y+4323080D01*
X+6318250Y+4323080D01*
X+6302375Y+4307840D01*
X+6302375Y+4246880D01*
X+6318250Y+4231640D01*
X+6365875Y+4231640D01*
X+6381750Y+4246880D01*
X+6381750Y+4262120D01*
X+6365875Y+4277360D01*
X+6302375Y+4277360D01*
X+6413500Y+4246880D02*
X+6413500Y+4307840D01*
X+6429375Y+4323080D01*
X+6492875Y+4323080D01*
X+6508750Y+4307840D01*
X+6508750Y+4246880D01*
X+6492875Y+4231640D01*
X+6429375Y+4231640D01*
X+6413500Y+4246880D01*
X+6413500Y+4231640D02*
X+6508750Y+4323080D01*
X+4445000Y-5588000D02*
X+4572000Y-5588000D01*
X+4699000Y-5715000D02*
X+4724876Y-5712564D01*
X+4748848Y-5705515D01*
X+4770438Y-5694238D01*
X+4789170Y-5679122D01*
X+4804569Y-5660554D01*
X+4816158Y-5638919D01*
X+4823460Y-5614606D01*
X+4826000Y-5588000D01*
X+4699000Y-5715000D02*
X+4672394Y-5712564D01*
X+4648081Y-5705515D01*
X+4626446Y-5694238D01*
X+4607878Y-5679122D01*
X+4592762Y-5660554D01*
X+4581485Y-5638919D01*
X+4574436Y-5614606D01*
X+4572000Y-5588000D01*
X+4826000Y-5588000D02*
X+4953000Y-5588000D01*
X+4445000Y-7620000D02*
X+4953000Y-7620000D01*
X+4445000Y-5588000D02*
X+4445000Y-7620000D01*
X+4953000Y-7620000D02*
X+4953000Y-5588000D01*
X+4508500Y-5455920D02*
X+4508500Y-5532120D01*
X+4524375Y-5547360D01*
X+4587875Y-5547360D01*
X+4603750Y-5532120D01*
X+4603750Y-5455920D01*
X+4730750Y-5471160D02*
X+4714875Y-5455920D01*
X+4667250Y-5455920D01*
X+4651375Y-5471160D01*
X+4651375Y-5532120D01*
X+4667250Y-5547360D01*
X+4714875Y-5547360D01*
X+4730750Y-5532120D01*
X+4730750Y-5516880D01*
X+4714875Y-5501640D01*
X+4651375Y-5501640D01*
X+4794250Y-5486400D02*
X+4826000Y-5455920D01*
X+4826000Y-5547360D01*
X+5969000Y-5207000D02*
X+6096000Y-5207000D01*
X+5588000Y-5207000D02*
X+5715000Y-5207000D01*
X+5842000Y-5334000D02*
X+5867876Y-5331564D01*
X+5891848Y-5324515D01*
X+5913438Y-5313238D01*
X+5932170Y-5298122D01*
X+5947569Y-5279554D01*
X+5959158Y-5257919D01*
X+5966460Y-5233606D01*
X+5969000Y-5207000D01*
X+5842000Y-5334000D02*
X+5815394Y-5331564D01*
X+5791081Y-5324515D01*
X+5769446Y-5313238D01*
X+5750878Y-5298122D01*
X+5735762Y-5279554D01*
X+5724485Y-5257919D01*
X+5717436Y-5233606D01*
X+5715000Y-5207000D01*
X+5588000Y-5207000D02*
X+5588000Y-6985000D01*
X+6096000Y-6985000D01*
X+6096000Y-5207000D01*
X+5715000Y-5074920D02*
X+5715000Y-5151120D01*
X+5730875Y-5166360D01*
X+5794375Y-5166360D01*
X+5810250Y-5151120D01*
X+5810250Y-5074920D01*
X+5873750Y-5105400D02*
X+5905500Y-5074920D01*
X+5905500Y-5166360D01*
X+10668000Y-4064000D02*
X+10795000Y-4064000D01*
X+10287000Y-4064000D02*
X+10414000Y-4064000D01*
X+10541000Y-4191000D02*
X+10566876Y-4188564D01*
X+10590848Y-4181515D01*
X+10612438Y-4170238D01*
X+10631170Y-4155122D01*
X+10646569Y-4136554D01*
X+10658158Y-4114919D01*
X+10665460Y-4090606D01*
X+10668000Y-4064000D01*
X+10541000Y-4191000D02*
X+10514394Y-4188564D01*
X+10490081Y-4181515D01*
X+10468446Y-4170238D01*
X+10449878Y-4155122D01*
X+10434762Y-4136554D01*
X+10423485Y-4114919D01*
X+10416436Y-4090606D01*
X+10414000Y-4064000D01*
X+10287000Y-4064000D02*
X+10287000Y-5842000D01*
X+10795000Y-5842000D01*
X+10795000Y-4064000D01*
X+10414000Y-3931920D02*
X+10414000Y-4008120D01*
X+10429875Y-4023360D01*
X+10493375Y-4023360D01*
X+10509250Y-4008120D01*
X+10509250Y-3931920D01*
X+10556875Y-3947160D02*
X+10572750Y-3931920D01*
X+10620375Y-3931920D01*
X+10636250Y-3947160D01*
X+10636250Y-3962400D01*
X+10620375Y-3977640D01*
X+10572750Y-3977640D01*
X+10556875Y-3992880D01*
X+10556875Y-4023360D01*
X+10636250Y-4023360D01*
X+11430000Y-5842000D02*
X+11303000Y-5842000D01*
X+11811000Y-5842000D02*
X+11684000Y-5842000D01*
X+11557000Y-5715000D02*
X+11531124Y-5717436D01*
X+11507152Y-5724485D01*
X+11485562Y-5735762D01*
X+11466830Y-5750878D01*
X+11451431Y-5769446D01*
X+11439842Y-5791081D01*
X+11432540Y-5815394D01*
X+11430000Y-5842000D01*
X+11557000Y-5715000D02*
X+11583606Y-5717436D01*
X+11607919Y-5724485D01*
X+11629554Y-5735762D01*
X+11648122Y-5750878D01*
X+11663238Y-5769446D01*
X+11674515Y-5791081D01*
X+11681564Y-5815394D01*
X+11684000Y-5842000D01*
X+11811000Y-5842000D02*
X+11811000Y-4064000D01*
X+11303000Y-4064000D01*
X+11303000Y-5842000D01*
X+11430000Y-5882640D02*
X+11430000Y-5958840D01*
X+11445875Y-5974080D01*
X+11509375Y-5974080D01*
X+11525250Y-5958840D01*
X+11525250Y-5882640D01*
X+11572875Y-5897880D02*
X+11588750Y-5882640D01*
X+11636375Y-5882640D01*
X+11652250Y-5897880D01*
X+11652250Y-5913120D01*
X+11636375Y-5928360D01*
X+11652250Y-5943600D01*
X+11652250Y-5958840D01*
X+11636375Y-5974080D01*
X+11588750Y-5974080D01*
X+11572875Y-5958840D01*
X+11604625Y-5928360D02*
X+11636375Y-5928360D01*
X+9144000Y-5207000D02*
X+9271000Y-5207000D01*
X+8763000Y-5207000D02*
X+8890000Y-5207000D01*
X+9017000Y-5334000D02*
X+9042876Y-5331564D01*
X+9066848Y-5324515D01*
X+9088438Y-5313238D01*
X+9107170Y-5298122D01*
X+9122569Y-5279554D01*
X+9134158Y-5257919D01*
X+9141460Y-5233606D01*
X+9144000Y-5207000D01*
X+9017000Y-5334000D02*
X+8990394Y-5331564D01*
X+8966081Y-5324515D01*
X+8944446Y-5313238D01*
X+8925878Y-5298122D01*
X+8910762Y-5279554D01*
X+8899485Y-5257919D01*
X+8892436Y-5233606D01*
X+8890000Y-5207000D01*
X+8763000Y-5207000D02*
X+8763000Y-6985000D01*
X+9271000Y-6985000D01*
X+9271000Y-5207000D01*
X+8890000Y-5074920D02*
X+8890000Y-5151120D01*
X+8905875Y-5166360D01*
X+8969375Y-5166360D01*
X+8985250Y-5151120D01*
X+8985250Y-5074920D01*
X+9112250Y-5135880D02*
X+9017000Y-5135880D01*
X+9080500Y-5074920D01*
X+9080500Y-5166360D01*
X+8128000Y-5207000D02*
X+8255000Y-5207000D01*
X+7747000Y-5207000D02*
X+7874000Y-5207000D01*
X+8001000Y-5334000D02*
X+8026876Y-5331564D01*
X+8050848Y-5324515D01*
X+8072438Y-5313238D01*
X+8091170Y-5298122D01*
X+8106569Y-5279554D01*
X+8118158Y-5257919D01*
X+8125460Y-5233606D01*
X+8128000Y-5207000D01*
X+8001000Y-5334000D02*
X+7974394Y-5331564D01*
X+7950081Y-5324515D01*
X+7928446Y-5313238D01*
X+7909878Y-5298122D01*
X+7894762Y-5279554D01*
X+7883485Y-5257919D01*
X+7876436Y-5233606D01*
X+7874000Y-5207000D01*
X+7747000Y-5207000D02*
X+7747000Y-6985000D01*
X+8255000Y-6985000D01*
X+8255000Y-5207000D01*
X+7810500Y-5074920D02*
X+7810500Y-5151120D01*
X+7826375Y-5166360D01*
X+7889875Y-5166360D01*
X+7905750Y-5151120D01*
X+7905750Y-5074920D01*
X+7953375Y-5090160D02*
X+7969250Y-5074920D01*
X+8016875Y-5074920D01*
X+8032750Y-5090160D01*
X+8032750Y-5105400D01*
X+8016875Y-5120640D01*
X+8032750Y-5135880D01*
X+8032750Y-5151120D01*
X+8016875Y-5166360D01*
X+7969250Y-5166360D01*
X+7953375Y-5151120D01*
X+7985125Y-5120640D02*
X+8016875Y-5120640D01*
X+8159750Y-5135880D02*
X+8064500Y-5135880D01*
X+8128000Y-5074920D01*
X+8128000Y-5166360D01*
X+11430000Y+1143000D02*
X+11557000Y+1143000D01*
X+11049000Y+1143000D02*
X+11176000Y+1143000D01*
X+11303000Y+1016000D02*
X+11328876Y+1018436D01*
X+11352848Y+1025485D01*
X+11374438Y+1036762D01*
X+11393170Y+1051878D01*
X+11408569Y+1070446D01*
X+11420158Y+1092081D01*
X+11427460Y+1116394D01*
X+11430000Y+1143000D01*
X+11303000Y+1016000D02*
X+11276394Y+1018436D01*
X+11252081Y+1025485D01*
X+11230446Y+1036762D01*
X+11211878Y+1051878D01*
X+11196762Y+1070446D01*
X+11185485Y+1092081D01*
X+11178436Y+1116394D01*
X+11176000Y+1143000D01*
X+11049000Y+1143000D02*
X+11049000Y-635000D01*
X+11557000Y-635000D01*
X+11557000Y+1143000D01*
X+11176000Y+1275080D02*
X+11176000Y+1198880D01*
X+11191875Y+1183640D01*
X+11255375Y+1183640D01*
X+11271250Y+1198880D01*
X+11271250Y+1275080D01*
X+11398250Y+1259840D02*
X+11382375Y+1275080D01*
X+11334750Y+1275080D01*
X+11318875Y+1259840D01*
X+11318875Y+1198880D01*
X+11334750Y+1183640D01*
X+11382375Y+1183640D01*
X+11398250Y+1198880D01*
X+11398250Y+1214120D01*
X+11382375Y+1229360D01*
X+11318875Y+1229360D01*
X+3429000Y-7620000D02*
X+3302000Y-7620000D01*
X+3810000Y-7620000D02*
X+3683000Y-7620000D01*
X+3556000Y-7493000D02*
X+3530124Y-7495436D01*
X+3506152Y-7502485D01*
X+3484562Y-7513762D01*
X+3465830Y-7528878D01*
X+3450431Y-7547446D01*
X+3438842Y-7569081D01*
X+3431540Y-7593394D01*
X+3429000Y-7620000D01*
X+3556000Y-7493000D02*
X+3582606Y-7495436D01*
X+3606919Y-7502485D01*
X+3628554Y-7513762D01*
X+3647122Y-7528878D01*
X+3662238Y-7547446D01*
X+3673515Y-7569081D01*
X+3680564Y-7593394D01*
X+3683000Y-7620000D01*
X+3810000Y-7620000D02*
X+3810000Y-5842000D01*
X+3302000Y-5842000D01*
X+3302000Y-7620000D01*
X+3429000Y-7660640D02*
X+3429000Y-7736840D01*
X+3444875Y-7752080D01*
X+3508375Y-7752080D01*
X+3524250Y-7736840D01*
X+3524250Y-7660640D01*
X+3587750Y-7706360D02*
X+3571875Y-7691120D01*
X+3571875Y-7675880D01*
X+3587750Y-7660640D01*
X+3635375Y-7660640D01*
X+3651250Y-7675880D01*
X+3651250Y-7691120D01*
X+3635375Y-7706360D01*
X+3587750Y-7706360D01*
X+3571875Y-7721600D01*
X+3571875Y-7736840D01*
X+3587750Y-7752080D01*
X+3635375Y-7752080D01*
X+3651250Y-7736840D01*
X+3651250Y-7721600D01*
X+3635375Y-7706360D01*
X+10668000Y-5969000D02*
X+10795000Y-5969000D01*
X+10287000Y-5969000D02*
X+10414000Y-5969000D01*
X+10541000Y-6096000D02*
X+10566876Y-6093564D01*
X+10590848Y-6086515D01*
X+10612438Y-6075238D01*
X+10631170Y-6060122D01*
X+10646569Y-6041554D01*
X+10658158Y-6019919D01*
X+10665460Y-5995606D01*
X+10668000Y-5969000D01*
X+10541000Y-6096000D02*
X+10514394Y-6093564D01*
X+10490081Y-6086515D01*
X+10468446Y-6075238D01*
X+10449878Y-6060122D01*
X+10434762Y-6041554D01*
X+10423485Y-6019919D01*
X+10416436Y-5995606D01*
X+10414000Y-5969000D01*
X+10287000Y-5969000D02*
X+10287000Y-7747000D01*
X+10795000Y-7747000D01*
X+10795000Y-5969000D01*
X+10414000Y-5836920D02*
X+10414000Y-5913120D01*
X+10429875Y-5928360D01*
X+10493375Y-5928360D01*
X+10509250Y-5913120D01*
X+10509250Y-5836920D01*
X+10636250Y-5867400D02*
X+10620375Y-5882640D01*
X+10572750Y-5882640D01*
X+10556875Y-5867400D01*
X+10556875Y-5852160D01*
X+10572750Y-5836920D01*
X+10620375Y-5836920D01*
X+10636250Y-5852160D01*
X+10636250Y-5913120D01*
X+10620375Y-5928360D01*
X+10572750Y-5928360D01*
X+1016000Y-6604000D02*
X+1143000Y-6604000D01*
X+1143000Y-7620000D01*
X+635000Y-7620000D01*
X+635000Y-6604000D01*
X+762000Y-6604000D01*
X+889000Y-6731000D02*
X+914876Y-6728564D01*
X+938848Y-6721515D01*
X+960438Y-6710238D01*
X+979170Y-6695122D01*
X+994569Y-6676554D01*
X+1006158Y-6654919D01*
X+1013460Y-6630606D01*
X+1016000Y-6604000D01*
X+889000Y-6731000D02*
X+862394Y-6728564D01*
X+838081Y-6721515D01*
X+816446Y-6710238D01*
X+797878Y-6695122D01*
X+782762Y-6676554D01*
X+771485Y-6654919D01*
X+764436Y-6630606D01*
X+762000Y-6604000D01*
X+508000Y-6502400D02*
X+539750Y-6471920D01*
X+571500Y-6471920D01*
X+603250Y-6502400D01*
X+603250Y-6532880D01*
X+571500Y-6563360D01*
X+539750Y-6563360D01*
X+508000Y-6532880D01*
X+508000Y-6502400D01*
X+635000Y-6548120D02*
X+650875Y-6563360D01*
X+714375Y-6563360D01*
X+730250Y-6548120D01*
X+730250Y-6532880D01*
X+714375Y-6517640D01*
X+650875Y-6517640D01*
X+635000Y-6502400D01*
X+635000Y-6487160D01*
X+650875Y-6471920D01*
X+714375Y-6471920D01*
X+730250Y-6487160D01*
X+857250Y-6548120D02*
X+841375Y-6563360D01*
X+793750Y-6563360D01*
X+762000Y-6532880D01*
X+762000Y-6502400D01*
X+793750Y-6471920D01*
X+841375Y-6471920D01*
X+857250Y-6487160D01*
X+984250Y-6548120D02*
X+968375Y-6563360D01*
X+920750Y-6563360D01*
X+889000Y-6532880D01*
X+889000Y-6502400D01*
X+920750Y-6471920D01*
X+968375Y-6471920D01*
X+984250Y-6487160D01*
X+1016000Y-6471920D02*
X+1016000Y-6563360D01*
X+1111250Y-6563360D01*
X+1143000Y-6471920D02*
X+1143000Y-6563360D01*
X+1238250Y-6471920D02*
X+1190625Y-6517640D01*
X+1238250Y-6563360D01*
X+1143000Y-6517640D02*
X+1190625Y-6517640D01*
X+13081000Y-5334000D02*
X+13208000Y-5334000D01*
X+13335000Y-5461000D02*
X+13360876Y-5458564D01*
X+13384848Y-5451515D01*
X+13406438Y-5440238D01*
X+13425170Y-5425122D01*
X+13440569Y-5406554D01*
X+13452158Y-5384919D01*
X+13459460Y-5360606D01*
X+13462000Y-5334000D01*
X+13335000Y-5461000D02*
X+13308394Y-5458564D01*
X+13284081Y-5451515D01*
X+13262446Y-5440238D01*
X+13243878Y-5425122D01*
X+13228762Y-5406554D01*
X+13217485Y-5384919D01*
X+13210436Y-5360606D01*
X+13208000Y-5334000D01*
X+13462000Y-5334000D02*
X+13589000Y-5334000D01*
X+13081000Y-7874000D02*
X+13589000Y-7874000D01*
X+13081000Y-5334000D02*
X+13081000Y-7874000D01*
X+13589000Y-5334000D02*
X+13589000Y-7874000D01*
X+13144500Y-5201920D02*
X+13144500Y-5278120D01*
X+13160375Y-5293360D01*
X+13223875Y-5293360D01*
X+13239750Y-5278120D01*
X+13239750Y-5201920D01*
X+13287375Y-5217160D02*
X+13303250Y-5201920D01*
X+13350875Y-5201920D01*
X+13366750Y-5217160D01*
X+13366750Y-5232400D01*
X+13350875Y-5247640D01*
X+13366750Y-5262880D01*
X+13366750Y-5278120D01*
X+13350875Y-5293360D01*
X+13303250Y-5293360D01*
X+13287375Y-5278120D01*
X+13319125Y-5247640D02*
X+13350875Y-5247640D01*
X+13430250Y-5232400D02*
X+13462000Y-5201920D01*
X+13462000Y-5293360D01*
X+13208000Y-1905000D02*
X+13259752Y-1899920D01*
X+13307695Y-1885315D01*
X+13350875Y-1862138D01*
X+13388340Y-1831340D01*
X+13419138Y-1793875D01*
X+13442315Y-1750695D01*
X+13456920Y-1702752D01*
X+13462000Y-1651000D01*
X+13208000Y-1905000D02*
X+13155518Y-1899920D01*
X+13107234Y-1885315D01*
X+13064009Y-1862138D01*
X+13026708Y-1831340D01*
X+12996193Y-1793875D01*
X+12973328Y-1750695D01*
X+12958976Y-1702752D01*
X+12954000Y-1651000D01*
X+13462000Y-1651000D02*
X+13843000Y-1651000D01*
X+13843000Y-4699000D01*
X+12573000Y-4699000D01*
X+12573000Y-1651000D01*
X+12954000Y-1651000D01*
X+13081000Y-1518920D02*
X+13081000Y-1595120D01*
X+13096875Y-1610360D01*
X+13160375Y-1610360D01*
X+13176250Y-1595120D01*
X+13176250Y-1518920D01*
X+13303250Y-1518920D02*
X+13223875Y-1518920D01*
X+13223875Y-1549400D01*
X+13287375Y-1549400D01*
X+13303250Y-1564640D01*
X+13303250Y-1595120D01*
X+13287375Y-1610360D01*
X+13239750Y-1610360D01*
X+13223875Y-1595120D01*
X+6985000Y-5207000D02*
X+7112000Y-5207000D01*
X+6604000Y-5207000D02*
X+6731000Y-5207000D01*
X+6858000Y-5334000D02*
X+6883876Y-5331564D01*
X+6907848Y-5324515D01*
X+6929438Y-5313238D01*
X+6948170Y-5298122D01*
X+6963569Y-5279554D01*
X+6975158Y-5257919D01*
X+6982460Y-5233606D01*
X+6985000Y-5207000D01*
X+6858000Y-5334000D02*
X+6831394Y-5331564D01*
X+6807081Y-5324515D01*
X+6785446Y-5313238D01*
X+6766878Y-5298122D01*
X+6751762Y-5279554D01*
X+6740485Y-5257919D01*
X+6733436Y-5233606D01*
X+6731000Y-5207000D01*
X+6604000Y-5207000D02*
X+6604000Y-6985000D01*
X+7112000Y-6985000D01*
X+7112000Y-5207000D01*
X+6731000Y-5074920D02*
X+6731000Y-5151120D01*
X+6746875Y-5166360D01*
X+6810375Y-5166360D01*
X+6826250Y-5151120D01*
X+6826250Y-5074920D01*
X+6873875Y-5074920D02*
X+6953250Y-5074920D01*
X+6953250Y-5090160D01*
X+6873875Y-5166360D01*
X+127000Y+6731000D02*
X+635000Y+6731000D01*
X+635000Y+6985000D01*
X+127000Y+6985000D01*
X+127000Y+6731000D01*
X-349250Y+7025640D02*
X-444500Y+7025640D01*
X-444500Y+7117080D01*
X-349250Y+7117080D01*
X-444500Y+7071360D02*
X-381000Y+7071360D01*
X-317500Y+7117080D02*
X-222250Y+7025640D01*
X-317500Y+7025640D02*
X-222250Y+7117080D01*
X-190500Y+7025640D02*
X-190500Y+7117080D01*
X-111125Y+7117080D01*
X-95250Y+7101840D01*
X-95250Y+7086600D01*
X-111125Y+7071360D01*
X-190500Y+7071360D01*
X-63500Y+7025640D02*
X-63500Y+7086600D01*
X-31750Y+7117080D01*
X+0Y+7117080D01*
X+31750Y+7086600D01*
X+31750Y+7025640D01*
X-63500Y+7056120D02*
X+31750Y+7056120D01*
X+63500Y+7025640D02*
X+63500Y+7117080D01*
X+158750Y+7025640D01*
X+158750Y+7117080D01*
X+190500Y+7040880D02*
X+206375Y+7025640D01*
X+269875Y+7025640D01*
X+285750Y+7040880D01*
X+285750Y+7056120D01*
X+269875Y+7071360D01*
X+206375Y+7071360D01*
X+190500Y+7086600D01*
X+190500Y+7101840D01*
X+206375Y+7117080D01*
X+269875Y+7117080D01*
X+285750Y+7101840D01*
X+333375Y+7117080D02*
X+396875Y+7117080D01*
X+365125Y+7117080D02*
X+365125Y+7025640D01*
X+333375Y+7025640D02*
X+396875Y+7025640D01*
X+444500Y+7086600D02*
X+476250Y+7117080D01*
X+508000Y+7117080D01*
X+539750Y+7086600D01*
X+539750Y+7056120D01*
X+508000Y+7025640D01*
X+476250Y+7025640D01*
X+444500Y+7056120D01*
X+444500Y+7086600D01*
X+571500Y+7025640D02*
X+571500Y+7117080D01*
X+666750Y+7025640D01*
X+666750Y+7117080D01*
X+698500Y+7025640D02*
X+698500Y+7117080D01*
X+777875Y+7117080D01*
X+793750Y+7101840D01*
X+793750Y+7086600D01*
X+777875Y+7071360D01*
X+793750Y+7056120D01*
X+793750Y+7040880D01*
X+777875Y+7025640D01*
X+698500Y+7025640D01*
X+698500Y+7071360D02*
X+777875Y+7071360D01*
X+825500Y+7117080D02*
X+825500Y+7040880D01*
X+841375Y+7025640D01*
X+904875Y+7025640D01*
X+920750Y+7040880D01*
X+920750Y+7117080D01*
X+952500Y+7040880D02*
X+968375Y+7025640D01*
X+1031875Y+7025640D01*
X+1047750Y+7040880D01*
X+1047750Y+7056120D01*
X+1031875Y+7071360D01*
X+968375Y+7071360D01*
X+952500Y+7086600D01*
X+952500Y+7101840D01*
X+968375Y+7117080D01*
X+1031875Y+7117080D01*
X+1047750Y+7101840D01*
X+1095375Y+7101840D02*
X+1111250Y+7117080D01*
X+1158875Y+7117080D01*
X+1174750Y+7101840D01*
X+1174750Y+7086600D01*
X+1158875Y+7071360D01*
X+1111250Y+7071360D01*
X+1095375Y+7056120D01*
X+1095375Y+7025640D01*
X+1174750Y+7025640D01*
X+5842000Y+12115800D02*
X+5842000Y+12217400D01*
X+5892800Y+12268200D01*
X+5943600Y+12268200D01*
X+5994400Y+12217400D01*
X+5994400Y+12115800D01*
X+5842000Y+12166600D02*
X+5994400Y+12166600D01*
X+6096000Y+12217400D02*
X+6146800Y+12268200D01*
X+6146800Y+12115800D01*
X+6400800Y+12242800D02*
X+6375400Y+12268200D01*
X+6299200Y+12268200D01*
X+6273800Y+12242800D01*
X+6273800Y+12141200D01*
X+6299200Y+12115800D01*
X+6375400Y+12115800D01*
X+6400800Y+12141200D01*
X+6400800Y+12166600D01*
X+6375400Y+12192000D01*
X+6273800Y+12192000D01*
X+6604000Y+12268200D02*
X+6451600Y+12115800D01*
X+6705600Y+12192000D02*
X+6680200Y+12217400D01*
X+6680200Y+12242800D01*
X+6705600Y+12268200D01*
X+6781800Y+12268200D01*
X+6807200Y+12242800D01*
X+6807200Y+12217400D01*
X+6781800Y+12192000D01*
X+6705600Y+12192000D01*
X+6680200Y+12166600D01*
X+6680200Y+12141200D01*
X+6705600Y+12115800D01*
X+6781800Y+12115800D01*
X+6807200Y+12141200D01*
X+6807200Y+12166600D01*
X+6781800Y+12192000D01*
X+6858000Y+12115800D02*
X+6858000Y+12268200D01*
X+6959600Y+12268200D01*
X+7010400Y+12217400D01*
X+7010400Y+12166600D01*
X+6959600Y+12115800D01*
X+6858000Y+12115800D01*
X+7213600Y+12268200D02*
X+7061200Y+12115800D01*
X+7289800Y+12242800D02*
X+7315200Y+12268200D01*
X+7391400Y+12268200D01*
X+7416800Y+12242800D01*
X+7416800Y+12217400D01*
X+7391400Y+12192000D01*
X+7416800Y+12166600D01*
X+7416800Y+12141200D01*
X+7391400Y+12115800D01*
X+7315200Y+12115800D01*
X+7289800Y+12141200D01*
X+7340600Y+12192000D02*
X+7391400Y+12192000D01*
X+7467600Y+12115800D02*
X+7467600Y+12268200D01*
X+7594600Y+12268200D01*
X+7620000Y+12242800D01*
X+7620000Y+12217400D01*
X+7594600Y+12192000D01*
X+7467600Y+12192000D01*
X+7594600Y+12192000D02*
X+7620000Y+12166600D01*
X+7620000Y+12115800D01*
X+8026400Y+12141200D02*
X+8001000Y+12115800D01*
X+7924800Y+12115800D01*
X+7874000Y+12166600D01*
X+7874000Y+12217400D01*
X+7924800Y+12268200D01*
X+8001000Y+12268200D01*
X+8026400Y+12242800D01*
X+8077200Y+12115800D02*
X+8077200Y+12268200D01*
X+8204200Y+12268200D01*
X+8229600Y+12242800D01*
X+8229600Y+12217400D01*
X+8204200Y+12192000D01*
X+8077200Y+12192000D01*
X+8280400Y+12268200D02*
X+8280400Y+12141200D01*
X+8305800Y+12115800D01*
X+8407400Y+12115800D01*
X+8432800Y+12141200D01*
X+8432800Y+12268200D01*
X+8686800Y+12268200D02*
X+8686800Y+12192000D01*
X+8763000Y+12115800D01*
X+8839200Y+12192000D01*
X+8839200Y+12268200D01*
X+8915400Y+12242800D02*
X+8940800Y+12268200D01*
X+9017000Y+12268200D01*
X+9042400Y+12242800D01*
X+9042400Y+12217400D01*
X+9017000Y+12192000D01*
X+8940800Y+12192000D01*
X+8915400Y+12166600D01*
X+8915400Y+12115800D01*
X+9042400Y+12115800D01*
M02*
