G04 PROTEUS GERBER X2 FILE*
%TF.GenerationSoftware,Labcenter,Proteus,8.6-SP1-Build23413*%
%TF.CreationDate,2017-02-04T10:42:02+00:00*%
%TF.FileFunction,Soldermask,Top*%
%TF.FilePolarity,Negative*%
%TF.Part,Single*%
%FSLAX45Y45*%
%MOMM*%
G01*
%TA.AperFunction,Material*%
%ADD20C,1.778000*%
%TA.AperFunction,Material*%
%ADD21C,3.556000*%
%AMPPAD014*
4,1,68,
1.270000,-1.016000,
1.270000,1.016000,
1.268720,1.042400,
1.264950,1.067930,
1.258800,1.092490,
1.250400,1.115960,
1.239870,1.138220,
1.227300,1.159150,
1.212840,1.178650,
1.196580,1.196580,
1.178640,1.212840,
1.159150,1.227300,
1.138220,1.239860,
1.115960,1.250400,
1.092490,1.258800,
1.067930,1.264950,
1.042400,1.268720,
1.016000,1.270000,
-1.016000,1.270000,
-1.042400,1.268720,
-1.067930,1.264950,
-1.092490,1.258800,
-1.115960,1.250400,
-1.138220,1.239860,
-1.159150,1.227300,
-1.178640,1.212840,
-1.196580,1.196580,
-1.212840,1.178650,
-1.227300,1.159150,
-1.239870,1.138220,
-1.250400,1.115960,
-1.258800,1.092490,
-1.264950,1.067930,
-1.268720,1.042400,
-1.270000,1.016000,
-1.270000,-1.016000,
-1.268720,-1.042400,
-1.264950,-1.067930,
-1.258800,-1.092490,
-1.250400,-1.115960,
-1.239870,-1.138220,
-1.227300,-1.159150,
-1.212840,-1.178650,
-1.196580,-1.196580,
-1.178640,-1.212840,
-1.159150,-1.227300,
-1.138220,-1.239860,
-1.115960,-1.250400,
-1.092490,-1.258800,
-1.067930,-1.264950,
-1.042400,-1.268720,
-1.016000,-1.270000,
1.016000,-1.270000,
1.042400,-1.268720,
1.067930,-1.264950,
1.092490,-1.258800,
1.115960,-1.250400,
1.138220,-1.239860,
1.159150,-1.227300,
1.178640,-1.212840,
1.196580,-1.196580,
1.212840,-1.178650,
1.227300,-1.159150,
1.239870,-1.138220,
1.250400,-1.115960,
1.258800,-1.092490,
1.264950,-1.067930,
1.268720,-1.042400,
1.270000,-1.016000,
0*%
%ADD22PPAD014*%
%AMPPAD015*
4,1,68,
-1.270000,-1.016000,
-1.270000,1.016000,
-1.268720,1.042400,
-1.264950,1.067930,
-1.258800,1.092490,
-1.250400,1.115960,
-1.239870,1.138220,
-1.227300,1.159150,
-1.212840,1.178650,
-1.196580,1.196580,
-1.178640,1.212840,
-1.159150,1.227300,
-1.138220,1.239860,
-1.115960,1.250400,
-1.092490,1.258800,
-1.067930,1.264950,
-1.042400,1.268720,
-1.016000,1.270000,
1.016000,1.270000,
1.042400,1.268720,
1.067930,1.264950,
1.092490,1.258800,
1.115960,1.250400,
1.138220,1.239860,
1.159150,1.227300,
1.178640,1.212840,
1.196580,1.196580,
1.212840,1.178650,
1.227300,1.159150,
1.239870,1.138220,
1.250400,1.115960,
1.258800,1.092490,
1.264950,1.067930,
1.268720,1.042400,
1.270000,1.016000,
1.270000,-1.016000,
1.268720,-1.042400,
1.264950,-1.067930,
1.258800,-1.092490,
1.250400,-1.115960,
1.239870,-1.138220,
1.227300,-1.159150,
1.212840,-1.178650,
1.196580,-1.196580,
1.178640,-1.212840,
1.159150,-1.227300,
1.138220,-1.239860,
1.115960,-1.250400,
1.092490,-1.258800,
1.067930,-1.264950,
1.042400,-1.268720,
1.016000,-1.270000,
-1.016000,-1.270000,
-1.042400,-1.268720,
-1.067930,-1.264950,
-1.092490,-1.258800,
-1.115960,-1.250400,
-1.138220,-1.239860,
-1.159150,-1.227300,
-1.178640,-1.212840,
-1.196580,-1.196580,
-1.212840,-1.178650,
-1.227300,-1.159150,
-1.239870,-1.138220,
-1.250400,-1.115960,
-1.258800,-1.092490,
-1.264950,-1.067930,
-1.268720,-1.042400,
-1.270000,-1.016000,
0*%
%TA.AperFunction,Material*%
%ADD23PPAD015*%
%TA.AperFunction,Material*%
%ADD24C,2.286000*%
%ADD25C,2.540000*%
%ADD26C,3.302000*%
%AMPPAD019*
4,1,68,
-1.016000,-1.270000,
1.016000,-1.270000,
1.042400,-1.268720,
1.067930,-1.264950,
1.092490,-1.258800,
1.115960,-1.250400,
1.138220,-1.239870,
1.159150,-1.227300,
1.178650,-1.212840,
1.196580,-1.196580,
1.212840,-1.178640,
1.227300,-1.159150,
1.239860,-1.138220,
1.250400,-1.115960,
1.258800,-1.092490,
1.264950,-1.067930,
1.268720,-1.042400,
1.270000,-1.016000,
1.270000,1.016000,
1.268720,1.042400,
1.264950,1.067930,
1.258800,1.092490,
1.250400,1.115960,
1.239860,1.138220,
1.227300,1.159150,
1.212840,1.178640,
1.196580,1.196580,
1.178650,1.212840,
1.159150,1.227300,
1.138220,1.239870,
1.115960,1.250400,
1.092490,1.258800,
1.067930,1.264950,
1.042400,1.268720,
1.016000,1.270000,
-1.016000,1.270000,
-1.042400,1.268720,
-1.067930,1.264950,
-1.092490,1.258800,
-1.115960,1.250400,
-1.138220,1.239870,
-1.159150,1.227300,
-1.178650,1.212840,
-1.196580,1.196580,
-1.212840,1.178640,
-1.227300,1.159150,
-1.239860,1.138220,
-1.250400,1.115960,
-1.258800,1.092490,
-1.264950,1.067930,
-1.268720,1.042400,
-1.270000,1.016000,
-1.270000,-1.016000,
-1.268720,-1.042400,
-1.264950,-1.067930,
-1.258800,-1.092490,
-1.250400,-1.115960,
-1.239860,-1.138220,
-1.227300,-1.159150,
-1.212840,-1.178640,
-1.196580,-1.196580,
-1.178650,-1.212840,
-1.159150,-1.227300,
-1.138220,-1.239870,
-1.115960,-1.250400,
-1.092490,-1.258800,
-1.067930,-1.264950,
-1.042400,-1.268720,
-1.016000,-1.270000,
0*%
%ADD27PPAD019*%
%AMPPAD020*
4,1,68,
-0.635000,0.889000,
0.635000,0.889000,
0.661400,0.887720,
0.686930,0.883950,
0.711490,0.877800,
0.734960,0.869400,
0.757220,0.858870,
0.778150,0.846300,
0.797650,0.831840,
0.815580,0.815580,
0.831840,0.797640,
0.846300,0.778150,
0.858860,0.757220,
0.869400,0.734960,
0.877800,0.711490,
0.883950,0.686930,
0.887720,0.661400,
0.889000,0.635000,
0.889000,-0.635000,
0.887720,-0.661400,
0.883950,-0.686930,
0.877800,-0.711490,
0.869400,-0.734960,
0.858860,-0.757220,
0.846300,-0.778150,
0.831840,-0.797640,
0.815580,-0.815580,
0.797650,-0.831840,
0.778150,-0.846300,
0.757220,-0.858870,
0.734960,-0.869400,
0.711490,-0.877800,
0.686930,-0.883950,
0.661400,-0.887720,
0.635000,-0.889000,
-0.635000,-0.889000,
-0.661400,-0.887720,
-0.686930,-0.883950,
-0.711490,-0.877800,
-0.734960,-0.869400,
-0.757220,-0.858870,
-0.778150,-0.846300,
-0.797650,-0.831840,
-0.815580,-0.815580,
-0.831840,-0.797640,
-0.846300,-0.778150,
-0.858860,-0.757220,
-0.869400,-0.734960,
-0.877800,-0.711490,
-0.883950,-0.686930,
-0.887720,-0.661400,
-0.889000,-0.635000,
-0.889000,0.635000,
-0.887720,0.661400,
-0.883950,0.686930,
-0.877800,0.711490,
-0.869400,0.734960,
-0.858860,0.757220,
-0.846300,0.778150,
-0.831840,0.797640,
-0.815580,0.815580,
-0.797650,0.831840,
-0.778150,0.846300,
-0.757220,0.858870,
-0.734960,0.869400,
-0.711490,0.877800,
-0.686930,0.883950,
-0.661400,0.887720,
-0.635000,0.889000,
0*%
%TA.AperFunction,Material*%
%ADD28PPAD020*%
%AMPPAD021*
4,1,68,
0.889000,0.635000,
0.889000,-0.635000,
0.887720,-0.661400,
0.883950,-0.686930,
0.877800,-0.711490,
0.869400,-0.734960,
0.858870,-0.757220,
0.846300,-0.778150,
0.831840,-0.797650,
0.815580,-0.815580,
0.797640,-0.831840,
0.778150,-0.846300,
0.757220,-0.858860,
0.734960,-0.869400,
0.711490,-0.877800,
0.686930,-0.883950,
0.661400,-0.887720,
0.635000,-0.889000,
-0.635000,-0.889000,
-0.661400,-0.887720,
-0.686930,-0.883950,
-0.711490,-0.877800,
-0.734960,-0.869400,
-0.757220,-0.858860,
-0.778150,-0.846300,
-0.797640,-0.831840,
-0.815580,-0.815580,
-0.831840,-0.797650,
-0.846300,-0.778150,
-0.858870,-0.757220,
-0.869400,-0.734960,
-0.877800,-0.711490,
-0.883950,-0.686930,
-0.887720,-0.661400,
-0.889000,-0.635000,
-0.889000,0.635000,
-0.887720,0.661400,
-0.883950,0.686930,
-0.877800,0.711490,
-0.869400,0.734960,
-0.858870,0.757220,
-0.846300,0.778150,
-0.831840,0.797650,
-0.815580,0.815580,
-0.797640,0.831840,
-0.778150,0.846300,
-0.757220,0.858860,
-0.734960,0.869400,
-0.711490,0.877800,
-0.686930,0.883950,
-0.661400,0.887720,
-0.635000,0.889000,
0.635000,0.889000,
0.661400,0.887720,
0.686930,0.883950,
0.711490,0.877800,
0.734960,0.869400,
0.757220,0.858860,
0.778150,0.846300,
0.797640,0.831840,
0.815580,0.815580,
0.831840,0.797650,
0.846300,0.778150,
0.858870,0.757220,
0.869400,0.734960,
0.877800,0.711490,
0.883950,0.686930,
0.887720,0.661400,
0.889000,0.635000,
0*%
%ADD29PPAD021*%
%AMPPAD022*
4,1,68,
-1.016000,1.270000,
1.016000,1.270000,
1.042400,1.268720,
1.067930,1.264950,
1.092490,1.258800,
1.115960,1.250400,
1.138220,1.239870,
1.159150,1.227300,
1.178650,1.212840,
1.196580,1.196580,
1.212840,1.178640,
1.227300,1.159150,
1.239860,1.138220,
1.250400,1.115960,
1.258800,1.092490,
1.264950,1.067930,
1.268720,1.042400,
1.270000,1.016000,
1.270000,-1.016000,
1.268720,-1.042400,
1.264950,-1.067930,
1.258800,-1.092490,
1.250400,-1.115960,
1.239860,-1.138220,
1.227300,-1.159150,
1.212840,-1.178640,
1.196580,-1.196580,
1.178650,-1.212840,
1.159150,-1.227300,
1.138220,-1.239870,
1.115960,-1.250400,
1.092490,-1.258800,
1.067930,-1.264950,
1.042400,-1.268720,
1.016000,-1.270000,
-1.016000,-1.270000,
-1.042400,-1.268720,
-1.067930,-1.264950,
-1.092490,-1.258800,
-1.115960,-1.250400,
-1.138220,-1.239870,
-1.159150,-1.227300,
-1.178650,-1.212840,
-1.196580,-1.196580,
-1.212840,-1.178640,
-1.227300,-1.159150,
-1.239860,-1.138220,
-1.250400,-1.115960,
-1.258800,-1.092490,
-1.264950,-1.067930,
-1.268720,-1.042400,
-1.270000,-1.016000,
-1.270000,1.016000,
-1.268720,1.042400,
-1.264950,1.067930,
-1.258800,1.092490,
-1.250400,1.115960,
-1.239860,1.138220,
-1.227300,1.159150,
-1.212840,1.178640,
-1.196580,1.196580,
-1.178650,1.212840,
-1.159150,1.227300,
-1.138220,1.239870,
-1.115960,1.250400,
-1.092490,1.258800,
-1.067930,1.264950,
-1.042400,1.268720,
-1.016000,1.270000,
0*%
%TA.AperFunction,Material*%
%ADD72PPAD022*%
%TA.AperFunction,Profile*%
%ADD70C,0.203200*%
%TD.AperFunction*%
D20*
X+8128000Y-5969000D03*
X+4699000Y-5842000D03*
X+11684000Y-5461000D03*
X+9525000Y+1714500D03*
X+2667000Y+1587500D03*
X+4254500Y+7112000D03*
X+8890000Y+4953000D03*
X+4000500Y+4826000D03*
X+2984500Y+1968500D03*
X+3556000Y+5143500D03*
X+3302000Y+5715000D03*
X+9525000Y+5715000D03*
X+3048000Y+5143500D03*
X+9017000Y+7810500D03*
X+9144000Y+4191000D03*
X+8636000Y+4127500D03*
X+2540000Y+6350000D03*
X+2794000Y-4953000D03*
X+10668000Y-5080000D03*
X+3302000Y-4699000D03*
X+3556000Y-7112000D03*
X+3175000Y+381000D03*
X+4318000Y+1016000D03*
X+13081000Y+635000D03*
X+2667000Y+825500D03*
X+9398000Y+4826000D03*
X+2413000Y+5143500D03*
X+2921000Y+3556000D03*
X+8509000Y+3810000D03*
X+9398000Y+4191000D03*
X+3429000Y+4064000D03*
X+7239000Y+9525000D03*
X+7366000Y+5969000D03*
X+3683000Y+5461000D03*
X+10414000Y+4953000D03*
X+4000500Y+5334000D03*
X+3619500Y+7874000D03*
X+5143500Y+8064500D03*
X+3175000Y+7493000D03*
X+7239000Y+4699000D03*
X+7112000Y+10414000D03*
X+2921000Y+4000500D03*
X+3683000Y+3556000D03*
X+6223000Y+3556000D03*
X+7366000Y+4064000D03*
X+7874000Y+4064000D03*
X+3302000Y+1651000D03*
X+3683000Y+1587500D03*
X+4254500Y+1587500D03*
X+3111500Y+1651000D03*
X+3746500Y+2222500D03*
X+3873500Y+1968500D03*
X+4127500Y+2286000D03*
X+2667000Y+5588000D03*
X+10414000Y+0D03*
X+10033000Y-3937000D03*
X+5270500Y+11430000D03*
X+10033000Y+8064500D03*
X+8001000Y+8255000D03*
X+6223000Y+8636000D03*
X+10033000Y+4953000D03*
X+5334000Y+4953000D03*
X+5270500Y+8636000D03*
X+9779000Y+8382000D03*
X+6921500Y+8382000D03*
X+10160000Y+8318500D03*
X+10414000Y+508000D03*
X+10731500Y+4572000D03*
X+9144000Y+4953000D03*
X+9144000Y+8128000D03*
X+5969000Y+9017000D03*
X+10160000Y+8509000D03*
X+9080500Y+8636000D03*
X+6921500Y+8636000D03*
X+11112500Y+10287000D03*
X+6921500Y+9398000D03*
X+10033000Y+254000D03*
X+9715500Y-5842000D03*
X+10414000Y+254000D03*
X+7683500Y-127000D03*
X+8064500Y-6604000D03*
X+8382000Y-7239000D03*
X+8191500Y-7239000D03*
X+9017000Y-5969000D03*
X+8509000Y-5080000D03*
X+8509000Y-4445000D03*
X+9398000Y-4445000D03*
X+11176000Y-571500D03*
X+4064000Y-4445000D03*
X+12192000Y-4826000D03*
X+11684000Y-1524000D03*
X+4064000Y-4191000D03*
X+5080000Y+952500D03*
X+13081000Y+889000D03*
X+7937500Y-1143000D03*
X+7937500Y-635000D03*
X+8763000Y+1079500D03*
X+4445000Y+1143000D03*
X+4889500Y-2984500D03*
X+8382000Y-2794000D03*
X+5905500Y+4699000D03*
X+5334000Y+4699000D03*
X+6096000Y+4826000D03*
X+5905500Y+635000D03*
X+6667500Y+5334000D03*
X+9017000Y+381000D03*
X+9017000Y-889000D03*
X+6159500Y+8382000D03*
X+5905500Y-127000D03*
X+6413500Y+9017000D03*
X+6540500Y+5588000D03*
X+6540500Y+1143000D03*
X+6540500Y+6858000D03*
X+4064000Y+508000D03*
X+12319000Y-190500D03*
X+12065000Y+2159000D03*
X+9779000Y+3175000D03*
X+6223000Y+3048000D03*
X+2222500Y+7366000D03*
X+6350000Y-3556000D03*
X+4953000Y-2794000D03*
X+8890000Y-2540000D03*
X+4953000Y+5588000D03*
X+2921000Y+5715000D03*
X+9969500Y-571500D03*
X+9906000Y+1016000D03*
X+11176000Y+1016000D03*
X+4953000Y+8128000D03*
X+5905500Y-1651000D03*
X+5905500Y-1143000D03*
X+2222500Y+6985000D03*
X+3302000Y+6985000D03*
X+3492500Y+8509000D03*
X+4953000Y+7366000D03*
X+5016500Y+6350000D03*
X+5778500Y+6350000D03*
X+5778500Y-2413000D03*
X+8826500Y-2286000D03*
X+11938000Y-2413000D03*
X+4699000Y+9398000D03*
X+2794000Y+9525000D03*
X+11112500Y-2540000D03*
X+4826000Y-1778000D03*
X+4064000Y+254000D03*
X+5651500Y+9779000D03*
X+3810000Y-762000D03*
X+4953000Y+6604000D03*
X+14097000Y-1651000D03*
X+5270500Y+1270000D03*
X+7048500Y+3302000D03*
X+8382000Y+4064000D03*
X+12065000Y+8064500D03*
X+11049000Y+8064500D03*
X+9906000Y+10541000D03*
X+12954000Y+10541000D03*
X+13081000Y+7493000D03*
X+10033000Y+8636000D03*
X+12192000Y+5207000D03*
X+11430000Y+5588000D03*
X+11176000Y+7239000D03*
X+11684000Y+10287000D03*
X+13906500Y+10287000D03*
X+11811000Y+9144000D03*
X+13779500Y+9779000D03*
X+13779500Y-2921000D03*
X+7620000Y-3302000D03*
X+9144000Y+9398000D03*
X+10541000Y+10160000D03*
X+11430000Y+5842000D03*
X+11430000Y+10414000D03*
X+10033000Y+9525000D03*
X+10033000Y+9271000D03*
X+10033000Y+4191000D03*
X+6096000Y+8763000D03*
X+11049000Y+8763000D03*
X+12827000Y-3683000D03*
X+6985000Y-3429000D03*
X+6985000Y-4064000D03*
X+7620000Y-3810000D03*
X+10922000Y-3175000D03*
X+10795000Y+4318000D03*
X+5715000Y-5334000D03*
X+2857500Y-5207000D03*
X+4254500Y+9271000D03*
X+2794000Y+3873500D03*
X+3683000Y-635000D03*
X+2413000Y-635000D03*
X+2540000Y+3429000D03*
X+2794000Y+9779000D03*
X+3556000Y+6223000D03*
X+2159000Y+5397500D03*
X+2222500Y-5461000D03*
X+4572000Y-5080000D03*
X+1778000Y-5080000D03*
X+1905000Y+5461000D03*
X+1460500Y-5842000D03*
X+1968500Y-1079500D03*
X+1270000Y+10795000D03*
X+6858000Y+1143000D03*
X+7937500Y-2667000D03*
X+4572000Y-6477000D03*
X+4572000Y-5969000D03*
X+635000Y+4191000D03*
X+7937500Y-2413000D03*
X+8763000Y-4572000D03*
X+8763000Y-5080000D03*
X+8001000Y-5207000D03*
X+8001000Y-5842000D03*
X+7937500Y-2921000D03*
X+9779000Y+127000D03*
X+9779000Y+508000D03*
X+10795000Y+2921000D03*
X+1206500Y+11557000D03*
X+9017000Y+635000D03*
X+10414000Y+698500D03*
X+4635500Y+127000D03*
X+10858500Y+3683000D03*
X+12954000Y-5207000D03*
X+8382000Y+3302000D03*
X+12573000Y-1143000D03*
X+12319000Y+1397000D03*
X+13208000Y+127000D03*
X+11811000Y+3810000D03*
X+5842000Y+7747000D03*
X+11811000Y+8763000D03*
X+8128000Y+7810500D03*
X+7366000Y+254000D03*
X+7112000Y+3683000D03*
X+12573000Y+4953000D03*
X+190500Y+2794000D03*
X+4318000Y+11938000D03*
X+63500Y+12255500D03*
X-63500Y+9017000D03*
X+3683000Y+7048500D03*
X-63500Y+8128000D03*
X-63500Y+8763000D03*
X+381000Y+6223000D03*
X+4127500Y+6604000D03*
X+2413000Y+6223000D03*
X-127000Y+6413500D03*
X-127000Y+6667500D03*
X+3175000Y+6731000D03*
X-127000Y+7239000D03*
X-127000Y+7048500D03*
X+2349500Y+10414000D03*
X+63500Y+10668000D03*
X+63500Y+10033000D03*
X+1016000Y+7302500D03*
X+4127500Y+12001500D03*
X-63500Y+12128500D03*
X-63500Y+9271000D03*
X+3429000Y+9652000D03*
X+14097000Y+4826000D03*
X+1651000Y+11684000D03*
X+8763000Y+12192000D03*
X+8636000Y+12065000D03*
X+8318500Y+11811000D03*
X+8064500Y+11684000D03*
X+7874000Y+10795000D03*
X+6921500Y+10287000D03*
X+6921500Y+9779000D03*
X+2921000Y+8382000D03*
X+2794000Y+8255000D03*
X+2476500Y-1714500D03*
X+2730500Y+8763000D03*
X+2921000Y+5524500D03*
X+11112500Y+9398000D03*
X+11557000Y-2540000D03*
X+1905000Y+7874000D03*
X+1651000Y+6921500D03*
X+10033000Y-762000D03*
X+11176000Y-762000D03*
X+9969500Y-7112000D03*
X+10795000Y+10795000D03*
X+9525000Y+7366000D03*
X+10922000Y-698500D03*
X+9271000Y-3556000D03*
X+4445000Y+9525000D03*
X+9017000Y+9525000D03*
X+11811000Y+2095500D03*
X+8509000Y+1968500D03*
X+8382000Y-4318000D03*
X+14414500Y-4191000D03*
X+11430000Y+1778000D03*
X+9779000Y+1714500D03*
X+4826000Y-4445000D03*
X+9525000Y-4572000D03*
X+1079500Y+11049000D03*
X+1905000Y+11176000D03*
X+1143000Y+10668000D03*
X+6413500Y+10795000D03*
X+1778000Y+10160000D03*
X+1524000Y+2413000D03*
X+6731000Y+6350000D03*
X+2159000Y+6096000D03*
X+2349500Y+10223500D03*
X+1778000Y+2667000D03*
X+1397000Y+11557000D03*
X+3937000Y+11430000D03*
X+8128000Y-5588000D03*
X+9144000Y-4699000D03*
X+13652500Y-3429000D03*
X+11176000Y+762000D03*
X+10922000Y+1841500D03*
X+8763000Y+1905000D03*
X+7874000Y+11938000D03*
X+7620000Y+4635500D03*
X+8255000Y+1143000D03*
X+8890000Y-1651000D03*
X+8826500Y-889000D03*
X+7937500Y+4699000D03*
X+11938000Y-1397000D03*
X+10922000Y+2286000D03*
X+10477500Y+10414000D03*
X+10477500Y+10668000D03*
X+7493000Y+10795000D03*
X+8890000Y-1143000D03*
X+12700000Y-1016000D03*
X+13652500Y+9271000D03*
X+6921500Y+10096500D03*
X+12319000Y-381000D03*
X+14541500Y+9017000D03*
X+9017000Y+1079500D03*
X+7810500Y-889000D03*
X+3302000Y+952500D03*
X+381000Y+3683000D03*
X+3175000Y+3619500D03*
X+889000Y+6731000D03*
X+10477500Y-2794000D03*
X+10477500Y-2540000D03*
X+9525000Y+1016000D03*
X+5461000Y+8763000D03*
X+5461000Y+952500D03*
X+12319000Y-635000D03*
X+5080000Y-1841500D03*
X+9017000Y+3810000D03*
X+6667500Y+5842000D03*
X+3619500Y+7620000D03*
X+4953000Y+7620000D03*
X+11811000Y+7937500D03*
X+11430000Y+4826000D03*
X+11112500Y+4953000D03*
X+1651000Y+5143500D03*
X+4254500Y+8763000D03*
X+3873500Y+1397000D03*
X+3937000Y+1143000D03*
X+5778500Y+11557000D03*
X+1778000Y+11430000D03*
X+6223000Y+2286000D03*
X+7810500Y+127000D03*
X+6985000Y+2540000D03*
X+7112000Y+2286000D03*
X+9271000Y+3048000D03*
X+7239000Y+2794000D03*
X+381000Y+6032500D03*
X+6985000Y+4064000D03*
X+9525000Y+5270500D03*
X+13462000Y-1270000D03*
X+1206500Y-1524000D03*
X+9271000Y-4064000D03*
X+9779000Y-1143000D03*
X+14541500Y+10795000D03*
X+11049000Y+10795000D03*
X+12573000Y-5334000D03*
X+13970000Y+8890000D03*
D21*
X+381000Y-5461000D03*
X+381000Y-5064760D03*
D22*
X+1524000Y-5334000D03*
X+1524000Y-5080000D03*
D23*
X+1778000Y-4191000D03*
X+1778000Y-3937000D03*
X+1778000Y-3683000D03*
D24*
X-127000Y-3048000D03*
X+889000Y-3048000D03*
X-127000Y-2794000D03*
X+889000Y-2794000D03*
X-127000Y-2286000D03*
X+889000Y-2286000D03*
D25*
X+1651000Y-2540000D03*
X+1905000Y-2540000D03*
D26*
X+1651000Y-1524000D03*
X+2159000Y-1524000D03*
D24*
X+1016000Y-1270000D03*
X+1016000Y-1778000D03*
D25*
X+218000Y-1595000D03*
X+472000Y-1595000D03*
D24*
X+2667000Y-3683000D03*
X+2667000Y-4445000D03*
X+2413000Y-3683000D03*
X+2413000Y-4445000D03*
D27*
X+2413000Y-2540000D03*
X+2667000Y-2540000D03*
D22*
X+254000Y+11557000D03*
X+254000Y+11303000D03*
X+254000Y+11049000D03*
X+254000Y+10795000D03*
X+254000Y+10541000D03*
X+254000Y+10287000D03*
X+254000Y+10033000D03*
X+254000Y+9779000D03*
X+254000Y+9525000D03*
X+254000Y+9271000D03*
X+254000Y+9017000D03*
X+254000Y+8763000D03*
X+254000Y+8509000D03*
X+508000Y+8509000D03*
X+508000Y+8763000D03*
X+508000Y+9017000D03*
X+508000Y+9271000D03*
X+508000Y+9525000D03*
X+508000Y+9779000D03*
X+508000Y+10033000D03*
X+508000Y+10287000D03*
X+508000Y+10541000D03*
X+508000Y+10795000D03*
X+508000Y+11049000D03*
X+508000Y+11303000D03*
X+508000Y+11557000D03*
X+508000Y+8255000D03*
X+508000Y+8001000D03*
X+254000Y+8255000D03*
X+254000Y+8001000D03*
X+508000Y+7747000D03*
X+254000Y+7747000D03*
X+254000Y+7493000D03*
X+508000Y+7493000D03*
D28*
X+381000Y+4953000D03*
D20*
X+635000Y+4953000D03*
X+889000Y+4953000D03*
X+1143000Y+4953000D03*
X+1397000Y+4953000D03*
X+1651000Y+4953000D03*
X+1905000Y+4953000D03*
X+2159000Y+4953000D03*
X+2413000Y+4953000D03*
X+2667000Y+4953000D03*
X+2921000Y+4953000D03*
X+3175000Y+4953000D03*
X+3429000Y+4953000D03*
X+3683000Y+4953000D03*
X+3683000Y+6477000D03*
X+3429000Y+6477000D03*
X+3175000Y+6477000D03*
X+2921000Y+6477000D03*
X+2667000Y+6477000D03*
X+2413000Y+6477000D03*
X+2159000Y+6477000D03*
X+1905000Y+6477000D03*
X+1651000Y+6477000D03*
X+1397000Y+6477000D03*
X+1143000Y+6477000D03*
X+889000Y+6477000D03*
X+635000Y+6477000D03*
X+381000Y+6477000D03*
D28*
X+381000Y+3175000D03*
D20*
X+635000Y+3175000D03*
X+889000Y+3175000D03*
X+1143000Y+3175000D03*
X+1397000Y+3175000D03*
X+1651000Y+3175000D03*
X+1905000Y+3175000D03*
X+2159000Y+3175000D03*
X+2413000Y+3175000D03*
X+2667000Y+3175000D03*
X+2921000Y+3175000D03*
X+3175000Y+3175000D03*
X+3429000Y+3175000D03*
X+3683000Y+3175000D03*
X+3683000Y+4699000D03*
X+3429000Y+4699000D03*
X+3175000Y+4699000D03*
X+2921000Y+4699000D03*
X+2667000Y+4699000D03*
X+2413000Y+4699000D03*
X+2159000Y+4699000D03*
X+1905000Y+4699000D03*
X+1651000Y+4699000D03*
X+1397000Y+4699000D03*
X+1143000Y+4699000D03*
X+889000Y+4699000D03*
X+635000Y+4699000D03*
X+381000Y+4699000D03*
D28*
X+381000Y+1397000D03*
D20*
X+635000Y+1397000D03*
X+889000Y+1397000D03*
X+1143000Y+1397000D03*
X+1397000Y+1397000D03*
X+1651000Y+1397000D03*
X+1905000Y+1397000D03*
X+2159000Y+1397000D03*
X+2413000Y+1397000D03*
X+2667000Y+1397000D03*
X+2921000Y+1397000D03*
X+3175000Y+1397000D03*
X+3429000Y+1397000D03*
X+3683000Y+1397000D03*
X+3683000Y+2921000D03*
X+3429000Y+2921000D03*
X+3175000Y+2921000D03*
X+2921000Y+2921000D03*
X+2667000Y+2921000D03*
X+2413000Y+2921000D03*
X+2159000Y+2921000D03*
X+1905000Y+2921000D03*
X+1651000Y+2921000D03*
X+1397000Y+2921000D03*
X+1143000Y+2921000D03*
X+889000Y+2921000D03*
X+635000Y+2921000D03*
X+381000Y+2921000D03*
D28*
X+381000Y-381000D03*
D20*
X+635000Y-381000D03*
X+889000Y-381000D03*
X+1143000Y-381000D03*
X+1397000Y-381000D03*
X+1651000Y-381000D03*
X+1905000Y-381000D03*
X+2159000Y-381000D03*
X+2413000Y-381000D03*
X+2667000Y-381000D03*
X+2921000Y-381000D03*
X+3175000Y-381000D03*
X+3429000Y-381000D03*
X+3683000Y-381000D03*
X+3683000Y+1143000D03*
X+3429000Y+1143000D03*
X+3175000Y+1143000D03*
X+2921000Y+1143000D03*
X+2667000Y+1143000D03*
X+2413000Y+1143000D03*
X+2159000Y+1143000D03*
X+1905000Y+1143000D03*
X+1651000Y+1143000D03*
X+1397000Y+1143000D03*
X+1143000Y+1143000D03*
X+889000Y+1143000D03*
X+635000Y+1143000D03*
X+381000Y+1143000D03*
D29*
X+5080000Y+11684000D03*
D20*
X+5080000Y+11430000D03*
X+5080000Y+11176000D03*
X+5080000Y+10922000D03*
X+5080000Y+10668000D03*
X+5080000Y+10414000D03*
X+5080000Y+10160000D03*
X+5080000Y+9906000D03*
X+5080000Y+9652000D03*
X+5080000Y+9398000D03*
X+5080000Y+9144000D03*
X+5080000Y+8890000D03*
X+5080000Y+8636000D03*
X+5080000Y+8382000D03*
X+6604000Y+8382000D03*
X+6604000Y+8636000D03*
X+6604000Y+8890000D03*
X+6604000Y+9144000D03*
X+6604000Y+9398000D03*
X+6604000Y+9652000D03*
X+6604000Y+9906000D03*
X+6604000Y+10160000D03*
X+6604000Y+10414000D03*
X+6604000Y+10668000D03*
X+6604000Y+10922000D03*
X+6604000Y+11176000D03*
X+6604000Y+11430000D03*
X+6604000Y+11684000D03*
D29*
X+7366000Y+11684000D03*
D20*
X+7366000Y+11430000D03*
X+7366000Y+11176000D03*
X+7366000Y+10922000D03*
X+7366000Y+10668000D03*
X+7366000Y+10414000D03*
X+7366000Y+10160000D03*
X+7366000Y+9906000D03*
X+7366000Y+9652000D03*
X+7366000Y+9398000D03*
X+7366000Y+9144000D03*
X+7366000Y+8890000D03*
X+8890000Y+8890000D03*
X+8890000Y+9144000D03*
X+8890000Y+9398000D03*
X+8890000Y+9652000D03*
X+8890000Y+9906000D03*
X+8890000Y+10160000D03*
X+8890000Y+10414000D03*
X+8890000Y+10668000D03*
X+8890000Y+10922000D03*
X+8890000Y+11176000D03*
X+8890000Y+11430000D03*
X+8890000Y+11684000D03*
D29*
X+12446000Y+8382000D03*
D20*
X+12446000Y+8636000D03*
X+12446000Y+8890000D03*
X+12446000Y+9144000D03*
X+12446000Y+9398000D03*
X+12446000Y+9652000D03*
X+12446000Y+9906000D03*
X+12446000Y+10160000D03*
X+12446000Y+10414000D03*
X+12446000Y+10668000D03*
X+12446000Y+10922000D03*
X+12446000Y+11176000D03*
X+12446000Y+11430000D03*
X+12446000Y+11684000D03*
X+10922000Y+11684000D03*
X+10922000Y+11430000D03*
X+10922000Y+11176000D03*
X+10922000Y+10922000D03*
X+10922000Y+10668000D03*
X+10922000Y+10414000D03*
X+10922000Y+10160000D03*
X+10922000Y+9906000D03*
X+10922000Y+9652000D03*
X+10922000Y+9398000D03*
X+10922000Y+9144000D03*
X+10922000Y+8890000D03*
X+10922000Y+8636000D03*
X+10922000Y+8382000D03*
D29*
X+12700000Y+11684000D03*
D20*
X+12700000Y+11430000D03*
X+12700000Y+11176000D03*
X+12700000Y+10922000D03*
X+12700000Y+10668000D03*
X+12700000Y+10414000D03*
X+12700000Y+10160000D03*
X+12700000Y+9906000D03*
X+12700000Y+9652000D03*
X+12700000Y+9398000D03*
X+12700000Y+9144000D03*
X+12700000Y+8890000D03*
X+12700000Y+8636000D03*
X+12700000Y+8382000D03*
X+14224000Y+8382000D03*
X+14224000Y+8636000D03*
X+14224000Y+8890000D03*
X+14224000Y+9144000D03*
X+14224000Y+9398000D03*
X+14224000Y+9652000D03*
X+14224000Y+9906000D03*
X+14224000Y+10160000D03*
X+14224000Y+10414000D03*
X+14224000Y+10668000D03*
X+14224000Y+10922000D03*
X+14224000Y+11176000D03*
X+14224000Y+11430000D03*
X+14224000Y+11684000D03*
D29*
X+1016000Y+9779000D03*
D20*
X+1016000Y+9525000D03*
X+1016000Y+9271000D03*
X+1016000Y+9017000D03*
X+1016000Y+8763000D03*
X+1016000Y+8509000D03*
X+1016000Y+8255000D03*
X+1016000Y+8001000D03*
X+1016000Y+7747000D03*
X+1016000Y+7493000D03*
X+1778000Y+7493000D03*
X+1778000Y+7747000D03*
X+1778000Y+8001000D03*
X+1778000Y+8255000D03*
X+1778000Y+8509000D03*
X+1778000Y+8763000D03*
X+1778000Y+9017000D03*
X+1778000Y+9271000D03*
X+1778000Y+9525000D03*
X+1778000Y+9779000D03*
D29*
X+2159000Y+11684000D03*
D20*
X+2159000Y+11430000D03*
X+2159000Y+11176000D03*
X+2159000Y+10922000D03*
X+2159000Y+10668000D03*
X+2159000Y+10414000D03*
X+2159000Y+10160000D03*
X+2159000Y+9906000D03*
X+2159000Y+9652000D03*
X+2159000Y+9398000D03*
X+2921000Y+9398000D03*
X+2921000Y+9652000D03*
X+2921000Y+9906000D03*
X+2921000Y+10160000D03*
X+2921000Y+10414000D03*
X+2921000Y+10668000D03*
X+2921000Y+10922000D03*
X+2921000Y+11176000D03*
X+2921000Y+11430000D03*
X+2921000Y+11684000D03*
D29*
X+3937000Y-3175000D03*
D20*
X+3937000Y-2921000D03*
X+3937000Y-2667000D03*
X+3937000Y-2413000D03*
X+3937000Y-2159000D03*
X+3937000Y-1905000D03*
X+3937000Y-1651000D03*
X+3937000Y-1397000D03*
X+3937000Y-1143000D03*
X+3937000Y-889000D03*
X+3175000Y-889000D03*
X+3175000Y-1143000D03*
X+3175000Y-1397000D03*
X+3175000Y-1651000D03*
X+3175000Y-1905000D03*
X+3175000Y-2159000D03*
X+3175000Y-2413000D03*
X+3175000Y-2667000D03*
X+3175000Y-2921000D03*
X+3175000Y-3175000D03*
D29*
X+3302000Y+10033000D03*
D20*
X+3302000Y+9779000D03*
X+3302000Y+9525000D03*
X+3302000Y+9271000D03*
X+3302000Y+9017000D03*
X+3302000Y+8763000D03*
X+3302000Y+8509000D03*
X+3302000Y+8255000D03*
X+3302000Y+8001000D03*
X+3302000Y+7747000D03*
X+4064000Y+7747000D03*
X+4064000Y+8001000D03*
X+4064000Y+8255000D03*
X+4064000Y+8509000D03*
X+4064000Y+8763000D03*
X+4064000Y+9017000D03*
X+4064000Y+9271000D03*
X+4064000Y+9525000D03*
X+4064000Y+9779000D03*
X+4064000Y+10033000D03*
D29*
X+5207000Y+7620000D03*
D20*
X+5207000Y+7366000D03*
X+5207000Y+7112000D03*
X+5207000Y+6858000D03*
X+5207000Y+6604000D03*
X+5207000Y+6350000D03*
X+5207000Y+6096000D03*
X+5207000Y+5842000D03*
X+5207000Y+5588000D03*
X+5207000Y+5334000D03*
X+5969000Y+5334000D03*
X+5969000Y+5588000D03*
X+5969000Y+5842000D03*
X+5969000Y+6096000D03*
X+5969000Y+6350000D03*
X+5969000Y+6604000D03*
X+5969000Y+6858000D03*
X+5969000Y+7112000D03*
X+5969000Y+7366000D03*
X+5969000Y+7620000D03*
D29*
X+6223000Y+7620000D03*
D20*
X+6223000Y+7366000D03*
X+6223000Y+7112000D03*
X+6223000Y+6858000D03*
X+6223000Y+6604000D03*
X+6223000Y+6350000D03*
X+6223000Y+6096000D03*
X+6223000Y+5842000D03*
X+6223000Y+5588000D03*
X+6223000Y+5334000D03*
X+6985000Y+5334000D03*
X+6985000Y+5588000D03*
X+6985000Y+5842000D03*
X+6985000Y+6096000D03*
X+6985000Y+6350000D03*
X+6985000Y+6604000D03*
X+6985000Y+6858000D03*
X+6985000Y+7112000D03*
X+6985000Y+7366000D03*
X+6985000Y+7620000D03*
D29*
X+7239000Y+7620000D03*
D20*
X+7239000Y+7366000D03*
X+7239000Y+7112000D03*
X+7239000Y+6858000D03*
X+7239000Y+6604000D03*
X+7239000Y+6350000D03*
X+7239000Y+6096000D03*
X+7239000Y+5842000D03*
X+7239000Y+5588000D03*
X+7239000Y+5334000D03*
X+8001000Y+5334000D03*
X+8001000Y+5588000D03*
X+8001000Y+5842000D03*
X+8001000Y+6096000D03*
X+8001000Y+6350000D03*
X+8001000Y+6604000D03*
X+8001000Y+6858000D03*
X+8001000Y+7112000D03*
X+8001000Y+7366000D03*
X+8001000Y+7620000D03*
D28*
X+9652000Y+4445000D03*
D20*
X+9398000Y+4445000D03*
X+9144000Y+4445000D03*
X+8890000Y+4445000D03*
X+8636000Y+4445000D03*
X+8382000Y+4445000D03*
X+8128000Y+4445000D03*
X+7874000Y+4445000D03*
X+7620000Y+4445000D03*
X+7366000Y+4445000D03*
X+7366000Y+3683000D03*
X+7620000Y+3683000D03*
X+7874000Y+3683000D03*
X+8128000Y+3683000D03*
X+8382000Y+3683000D03*
X+8636000Y+3683000D03*
X+8890000Y+3683000D03*
X+9144000Y+3683000D03*
X+9398000Y+3683000D03*
X+9652000Y+3683000D03*
D29*
X+4318000Y+635000D03*
D20*
X+4318000Y+381000D03*
X+4318000Y+127000D03*
X+4318000Y-127000D03*
X+4318000Y-381000D03*
X+4318000Y-635000D03*
X+4318000Y-889000D03*
X+4318000Y-1143000D03*
X+4318000Y-1397000D03*
X+4318000Y-1651000D03*
X+5080000Y-1651000D03*
X+5080000Y-1397000D03*
X+5080000Y-1143000D03*
X+5080000Y-889000D03*
X+5080000Y-635000D03*
X+5080000Y-381000D03*
X+5080000Y-127000D03*
X+5080000Y+127000D03*
X+5080000Y+381000D03*
X+5080000Y+635000D03*
D29*
X+5461000Y+635000D03*
D20*
X+5461000Y+381000D03*
X+5461000Y+127000D03*
X+5461000Y-127000D03*
X+5461000Y-381000D03*
X+5461000Y-635000D03*
X+5461000Y-889000D03*
X+5461000Y-1143000D03*
X+5461000Y-1397000D03*
X+5461000Y-1651000D03*
X+6223000Y-1651000D03*
X+6223000Y-1397000D03*
X+6223000Y-1143000D03*
X+6223000Y-889000D03*
X+6223000Y-635000D03*
X+6223000Y-381000D03*
X+6223000Y-127000D03*
X+6223000Y+127000D03*
X+6223000Y+381000D03*
X+6223000Y+635000D03*
D29*
X+6477000Y+635000D03*
D20*
X+6477000Y+381000D03*
X+6477000Y+127000D03*
X+6477000Y-127000D03*
X+6477000Y-381000D03*
X+6477000Y-635000D03*
X+6477000Y-889000D03*
X+6477000Y-1143000D03*
X+6477000Y-1397000D03*
X+6477000Y-1651000D03*
X+7239000Y-1651000D03*
X+7239000Y-1397000D03*
X+7239000Y-1143000D03*
X+7239000Y-889000D03*
X+7239000Y-635000D03*
X+7239000Y-381000D03*
X+7239000Y-127000D03*
X+7239000Y+127000D03*
X+7239000Y+381000D03*
X+7239000Y+635000D03*
D28*
X+7493000Y+2667000D03*
D20*
X+7747000Y+2667000D03*
X+8001000Y+2667000D03*
X+8255000Y+2667000D03*
X+8509000Y+2667000D03*
X+8763000Y+2667000D03*
X+9017000Y+2667000D03*
X+9271000Y+2667000D03*
X+9525000Y+2667000D03*
X+9779000Y+2667000D03*
X+9779000Y+3429000D03*
X+9525000Y+3429000D03*
X+9271000Y+3429000D03*
X+9017000Y+3429000D03*
X+8763000Y+3429000D03*
X+8509000Y+3429000D03*
X+8255000Y+3429000D03*
X+8001000Y+3429000D03*
X+7747000Y+3429000D03*
X+7493000Y+3429000D03*
D28*
X+7493000Y+1397000D03*
D20*
X+7747000Y+1397000D03*
X+8001000Y+1397000D03*
X+8255000Y+1397000D03*
X+8509000Y+1397000D03*
X+8763000Y+1397000D03*
X+9017000Y+1397000D03*
X+9271000Y+1397000D03*
X+9525000Y+1397000D03*
X+9779000Y+1397000D03*
X+9779000Y+2159000D03*
X+9525000Y+2159000D03*
X+9271000Y+2159000D03*
X+9017000Y+2159000D03*
X+8763000Y+2159000D03*
X+8509000Y+2159000D03*
X+8255000Y+2159000D03*
X+8001000Y+2159000D03*
X+7747000Y+2159000D03*
X+7493000Y+2159000D03*
D29*
X+9525000Y+10922000D03*
D20*
X+9525000Y+10668000D03*
X+9525000Y+10414000D03*
X+9525000Y+10160000D03*
X+9525000Y+9906000D03*
X+9525000Y+9652000D03*
X+9525000Y+9398000D03*
X+9525000Y+9144000D03*
X+9525000Y+8890000D03*
X+9525000Y+8636000D03*
X+10287000Y+8636000D03*
X+10287000Y+8890000D03*
X+10287000Y+9144000D03*
X+10287000Y+9398000D03*
X+10287000Y+9652000D03*
X+10287000Y+9906000D03*
X+10287000Y+10160000D03*
X+10287000Y+10414000D03*
X+10287000Y+10668000D03*
X+10287000Y+10922000D03*
D29*
X+9017000Y+7620000D03*
D20*
X+9017000Y+7366000D03*
X+9017000Y+7112000D03*
X+9017000Y+6858000D03*
X+9017000Y+6604000D03*
X+9017000Y+6350000D03*
X+9017000Y+6096000D03*
X+9017000Y+5842000D03*
X+9017000Y+5588000D03*
X+9017000Y+5334000D03*
X+9779000Y+5334000D03*
X+9779000Y+5588000D03*
X+9779000Y+5842000D03*
X+9779000Y+6096000D03*
X+9779000Y+6350000D03*
X+9779000Y+6604000D03*
X+9779000Y+6858000D03*
X+9779000Y+7112000D03*
X+9779000Y+7366000D03*
X+9779000Y+7620000D03*
D29*
X+10795000Y+5334000D03*
D20*
X+10795000Y+5588000D03*
X+10795000Y+5842000D03*
X+10795000Y+6096000D03*
X+10795000Y+6350000D03*
X+10795000Y+6604000D03*
X+10795000Y+6858000D03*
X+10795000Y+7112000D03*
X+10795000Y+7366000D03*
X+10795000Y+7620000D03*
X+10033000Y+7620000D03*
X+10033000Y+7366000D03*
X+10033000Y+7112000D03*
X+10033000Y+6858000D03*
X+10033000Y+6604000D03*
X+10033000Y+6350000D03*
X+10033000Y+6096000D03*
X+10033000Y+5842000D03*
X+10033000Y+5588000D03*
X+10033000Y+5334000D03*
D29*
X+11049000Y+7620000D03*
D20*
X+11049000Y+7366000D03*
X+11049000Y+7112000D03*
X+11049000Y+6858000D03*
X+11049000Y+6604000D03*
X+11049000Y+6350000D03*
X+11049000Y+6096000D03*
X+11049000Y+5842000D03*
X+11049000Y+5588000D03*
X+11049000Y+5334000D03*
X+11811000Y+5334000D03*
X+11811000Y+5588000D03*
X+11811000Y+5842000D03*
X+11811000Y+6096000D03*
X+11811000Y+6350000D03*
X+11811000Y+6604000D03*
X+11811000Y+6858000D03*
X+11811000Y+7112000D03*
X+11811000Y+7366000D03*
X+11811000Y+7620000D03*
D29*
X+12065000Y+7620000D03*
D20*
X+12065000Y+7366000D03*
X+12065000Y+7112000D03*
X+12065000Y+6858000D03*
X+12065000Y+6604000D03*
X+12065000Y+6350000D03*
X+12065000Y+6096000D03*
X+12065000Y+5842000D03*
X+12065000Y+5588000D03*
X+12065000Y+5334000D03*
X+12827000Y+5334000D03*
X+12827000Y+5588000D03*
X+12827000Y+5842000D03*
X+12827000Y+6096000D03*
X+12827000Y+6350000D03*
X+12827000Y+6604000D03*
X+12827000Y+6858000D03*
X+12827000Y+7112000D03*
X+12827000Y+7366000D03*
X+12827000Y+7620000D03*
D29*
X+7493000Y+635000D03*
D20*
X+7493000Y+381000D03*
X+7493000Y+127000D03*
X+7493000Y-127000D03*
X+7493000Y-381000D03*
X+7493000Y-635000D03*
X+7493000Y-889000D03*
X+7493000Y-1143000D03*
X+7493000Y-1397000D03*
X+7493000Y-1651000D03*
X+8255000Y-1651000D03*
X+8255000Y-1397000D03*
X+8255000Y-1143000D03*
X+8255000Y-889000D03*
X+8255000Y-635000D03*
X+8255000Y-381000D03*
X+8255000Y-127000D03*
X+8255000Y+127000D03*
X+8255000Y+381000D03*
X+8255000Y+635000D03*
D29*
X+13335000Y+7493000D03*
D20*
X+13335000Y+7239000D03*
X+13335000Y+6985000D03*
X+13335000Y+6731000D03*
X+13335000Y+6477000D03*
X+13335000Y+6223000D03*
X+13335000Y+5969000D03*
X+13335000Y+5715000D03*
X+13335000Y+5461000D03*
X+13335000Y+5207000D03*
X+14097000Y+5207000D03*
X+14097000Y+5461000D03*
X+14097000Y+5715000D03*
X+14097000Y+5969000D03*
X+14097000Y+6223000D03*
X+14097000Y+6477000D03*
X+14097000Y+6731000D03*
X+14097000Y+6985000D03*
X+14097000Y+7239000D03*
X+14097000Y+7493000D03*
D29*
X+10414000Y+4572000D03*
D20*
X+10414000Y+4318000D03*
X+10414000Y+4064000D03*
X+10414000Y+3810000D03*
X+10414000Y+3556000D03*
X+10414000Y+3302000D03*
X+10414000Y+3048000D03*
X+10414000Y+2794000D03*
X+10414000Y+2540000D03*
X+10414000Y+2286000D03*
X+11176000Y+2286000D03*
X+11176000Y+2540000D03*
X+11176000Y+2794000D03*
X+11176000Y+3048000D03*
X+11176000Y+3302000D03*
X+11176000Y+3556000D03*
X+11176000Y+3810000D03*
X+11176000Y+4064000D03*
X+11176000Y+4318000D03*
X+11176000Y+4572000D03*
D29*
X+8636000Y+635000D03*
D20*
X+8636000Y+381000D03*
X+8636000Y+127000D03*
X+8636000Y-127000D03*
X+8636000Y-381000D03*
X+8636000Y-635000D03*
X+8636000Y-889000D03*
X+8636000Y-1143000D03*
X+8636000Y-1397000D03*
X+8636000Y-1651000D03*
X+9398000Y-1651000D03*
X+9398000Y-1397000D03*
X+9398000Y-1143000D03*
X+9398000Y-889000D03*
X+9398000Y-635000D03*
X+9398000Y-381000D03*
X+9398000Y-127000D03*
X+9398000Y+127000D03*
X+9398000Y+381000D03*
X+9398000Y+635000D03*
D29*
X+11430000Y+4572000D03*
D20*
X+11430000Y+4318000D03*
X+11430000Y+4064000D03*
X+11430000Y+3810000D03*
X+11430000Y+3556000D03*
X+11430000Y+3302000D03*
X+11430000Y+3048000D03*
X+11430000Y+2794000D03*
X+11430000Y+2540000D03*
X+11430000Y+2286000D03*
X+12192000Y+2286000D03*
X+12192000Y+2540000D03*
X+12192000Y+2794000D03*
X+12192000Y+3048000D03*
X+12192000Y+3302000D03*
X+12192000Y+3556000D03*
X+12192000Y+3810000D03*
X+12192000Y+4064000D03*
X+12192000Y+4318000D03*
X+12192000Y+4572000D03*
D29*
X+13208000Y+2286000D03*
D20*
X+13208000Y+2540000D03*
X+13208000Y+2794000D03*
X+13208000Y+3048000D03*
X+13208000Y+3302000D03*
X+13208000Y+3556000D03*
X+13208000Y+3810000D03*
X+13208000Y+4064000D03*
X+13208000Y+4318000D03*
X+13208000Y+4572000D03*
X+12446000Y+4572000D03*
X+12446000Y+4318000D03*
X+12446000Y+4064000D03*
X+12446000Y+3810000D03*
X+12446000Y+3556000D03*
X+12446000Y+3302000D03*
X+12446000Y+3048000D03*
X+12446000Y+2794000D03*
X+12446000Y+2540000D03*
X+12446000Y+2286000D03*
D29*
X+14224000Y+2286000D03*
D20*
X+14224000Y+2540000D03*
X+14224000Y+2794000D03*
X+14224000Y+3048000D03*
X+14224000Y+3302000D03*
X+14224000Y+3556000D03*
X+14224000Y+3810000D03*
X+14224000Y+4064000D03*
X+14224000Y+4318000D03*
X+14224000Y+4572000D03*
X+13462000Y+4572000D03*
X+13462000Y+4318000D03*
X+13462000Y+4064000D03*
X+13462000Y+3810000D03*
X+13462000Y+3556000D03*
X+13462000Y+3302000D03*
X+13462000Y+3048000D03*
X+13462000Y+2794000D03*
X+13462000Y+2540000D03*
X+13462000Y+2286000D03*
D29*
X+14224000Y-635000D03*
D20*
X+14224000Y-381000D03*
X+14224000Y-127000D03*
X+14224000Y+127000D03*
X+14224000Y+381000D03*
X+14224000Y+635000D03*
X+14224000Y+889000D03*
X+14224000Y+1143000D03*
X+14224000Y+1397000D03*
X+14224000Y+1651000D03*
X+13462000Y+1651000D03*
X+13462000Y+1397000D03*
X+13462000Y+1143000D03*
X+13462000Y+889000D03*
X+13462000Y+635000D03*
X+13462000Y+381000D03*
X+13462000Y+127000D03*
X+13462000Y-127000D03*
X+13462000Y-381000D03*
X+13462000Y-635000D03*
D29*
X+5461000Y-2413000D03*
D20*
X+5461000Y-2667000D03*
X+5461000Y-2921000D03*
X+5461000Y-3175000D03*
X+5461000Y-3429000D03*
X+5461000Y-3683000D03*
X+5461000Y-3937000D03*
X+5461000Y-4191000D03*
X+5461000Y-4445000D03*
X+5461000Y-4699000D03*
X+6223000Y-4699000D03*
X+6223000Y-4445000D03*
X+6223000Y-4191000D03*
X+6223000Y-3937000D03*
X+6223000Y-3683000D03*
X+6223000Y-3429000D03*
X+6223000Y-3175000D03*
X+6223000Y-2921000D03*
X+6223000Y-2667000D03*
X+6223000Y-2413000D03*
D29*
X+4318000Y-2413000D03*
D20*
X+4318000Y-2667000D03*
X+4318000Y-2921000D03*
X+4318000Y-3175000D03*
X+4318000Y-3429000D03*
X+4318000Y-3683000D03*
X+4318000Y-3937000D03*
X+4318000Y-4191000D03*
X+4318000Y-4445000D03*
X+4318000Y-4699000D03*
X+5080000Y-4699000D03*
X+5080000Y-4445000D03*
X+5080000Y-4191000D03*
X+5080000Y-3937000D03*
X+5080000Y-3683000D03*
X+5080000Y-3429000D03*
X+5080000Y-3175000D03*
X+5080000Y-2921000D03*
X+5080000Y-2667000D03*
X+5080000Y-2413000D03*
D29*
X+6477000Y-2413000D03*
D20*
X+6477000Y-2667000D03*
X+6477000Y-2921000D03*
X+6477000Y-3175000D03*
X+6477000Y-3429000D03*
X+6477000Y-3683000D03*
X+6477000Y-3937000D03*
X+6477000Y-4191000D03*
X+6477000Y-4445000D03*
X+6477000Y-4699000D03*
X+7239000Y-4699000D03*
X+7239000Y-4445000D03*
X+7239000Y-4191000D03*
X+7239000Y-3937000D03*
X+7239000Y-3683000D03*
X+7239000Y-3429000D03*
X+7239000Y-3175000D03*
X+7239000Y-2921000D03*
X+7239000Y-2667000D03*
X+7239000Y-2413000D03*
D29*
X+7493000Y-2413000D03*
D20*
X+7493000Y-2667000D03*
X+7493000Y-2921000D03*
X+7493000Y-3175000D03*
X+7493000Y-3429000D03*
X+7493000Y-3683000D03*
X+7493000Y-3937000D03*
X+7493000Y-4191000D03*
X+7493000Y-4445000D03*
X+7493000Y-4699000D03*
X+8255000Y-4699000D03*
X+8255000Y-4445000D03*
X+8255000Y-4191000D03*
X+8255000Y-3937000D03*
X+8255000Y-3683000D03*
X+8255000Y-3429000D03*
X+8255000Y-3175000D03*
X+8255000Y-2921000D03*
X+8255000Y-2667000D03*
X+8255000Y-2413000D03*
D29*
X+10033000Y-1270000D03*
D20*
X+10033000Y-1524000D03*
X+10033000Y-1778000D03*
X+10033000Y-2032000D03*
X+10033000Y-2286000D03*
X+10033000Y-2540000D03*
X+10033000Y-2794000D03*
X+10033000Y-3048000D03*
X+10033000Y-3302000D03*
X+10033000Y-3556000D03*
X+10795000Y-3556000D03*
X+10795000Y-3302000D03*
X+10795000Y-3048000D03*
X+10795000Y-2794000D03*
X+10795000Y-2540000D03*
X+10795000Y-2286000D03*
X+10795000Y-2032000D03*
X+10795000Y-1778000D03*
X+10795000Y-1524000D03*
X+10795000Y-1270000D03*
D29*
X+8636000Y-2413000D03*
D20*
X+8636000Y-2667000D03*
X+8636000Y-2921000D03*
X+8636000Y-3175000D03*
X+8636000Y-3429000D03*
X+8636000Y-3683000D03*
X+8636000Y-3937000D03*
X+8636000Y-4191000D03*
X+9398000Y-4191000D03*
X+9398000Y-3937000D03*
X+9398000Y-3683000D03*
X+9398000Y-3429000D03*
X+9398000Y-3175000D03*
X+9398000Y-2921000D03*
X+9398000Y-2667000D03*
X+9398000Y-2413000D03*
D29*
X+11303000Y-1270000D03*
D20*
X+11303000Y-1524000D03*
X+11303000Y-1778000D03*
X+11303000Y-2032000D03*
X+11303000Y-2286000D03*
X+11303000Y-2540000D03*
X+11303000Y-2794000D03*
X+11303000Y-3048000D03*
X+12065000Y-3048000D03*
X+12065000Y-2794000D03*
X+12065000Y-2540000D03*
X+12065000Y-2286000D03*
X+12065000Y-2032000D03*
X+12065000Y-1778000D03*
X+12065000Y-1524000D03*
X+12065000Y-1270000D03*
D29*
X+3175000Y-3810000D03*
D20*
X+3175000Y-4064000D03*
X+3175000Y-4318000D03*
X+3175000Y-4572000D03*
X+3175000Y-4826000D03*
X+3175000Y-5080000D03*
X+3175000Y-5334000D03*
X+3175000Y-5588000D03*
X+3937000Y-5588000D03*
X+3937000Y-5334000D03*
X+3937000Y-5080000D03*
X+3937000Y-4826000D03*
X+3937000Y-4572000D03*
X+3937000Y-4318000D03*
X+3937000Y-4064000D03*
X+3937000Y-3810000D03*
D29*
X+11938000Y+1016000D03*
D20*
X+11938000Y+762000D03*
X+11938000Y+508000D03*
X+11938000Y+254000D03*
X+11938000Y+0D03*
X+11938000Y-254000D03*
X+11938000Y-508000D03*
X+11938000Y-762000D03*
X+12700000Y-762000D03*
X+12700000Y-508000D03*
X+12700000Y-254000D03*
X+12700000Y+0D03*
X+12700000Y+254000D03*
X+12700000Y+508000D03*
X+12700000Y+762000D03*
X+12700000Y+1016000D03*
D29*
X+4572000Y+4064000D03*
D20*
X+4572000Y+3810000D03*
X+4572000Y+3556000D03*
X+4572000Y+3302000D03*
X+4572000Y+3048000D03*
X+4572000Y+2794000D03*
X+4572000Y+2540000D03*
X+4572000Y+2286000D03*
X+5334000Y+2286000D03*
X+5334000Y+2540000D03*
X+5334000Y+2794000D03*
X+5334000Y+3048000D03*
X+5334000Y+3302000D03*
X+5334000Y+3556000D03*
X+5334000Y+3810000D03*
X+5334000Y+4064000D03*
D29*
X+5969000Y+4064000D03*
D20*
X+5969000Y+3810000D03*
X+5969000Y+3556000D03*
X+5969000Y+3302000D03*
X+5969000Y+3048000D03*
X+5969000Y+2794000D03*
X+5969000Y+2540000D03*
X+5969000Y+2286000D03*
X+6731000Y+2286000D03*
X+6731000Y+2540000D03*
X+6731000Y+2794000D03*
X+6731000Y+3048000D03*
X+6731000Y+3302000D03*
X+6731000Y+3556000D03*
X+6731000Y+3810000D03*
X+6731000Y+4064000D03*
D29*
X+4318000Y-5715000D03*
D20*
X+4318000Y-5969000D03*
X+4318000Y-6223000D03*
X+4318000Y-6477000D03*
X+4318000Y-6731000D03*
X+4318000Y-6985000D03*
X+4318000Y-7239000D03*
X+4318000Y-7493000D03*
X+5080000Y-7493000D03*
X+5080000Y-7239000D03*
X+5080000Y-6985000D03*
X+5080000Y-6731000D03*
X+5080000Y-6477000D03*
X+5080000Y-6223000D03*
X+5080000Y-5969000D03*
X+5080000Y-5715000D03*
D29*
X+5461000Y-5334000D03*
D20*
X+5461000Y-5588000D03*
X+5461000Y-5842000D03*
X+5461000Y-6096000D03*
X+5461000Y-6350000D03*
X+5461000Y-6604000D03*
X+5461000Y-6858000D03*
X+6223000Y-6858000D03*
X+6223000Y-6604000D03*
X+6223000Y-6350000D03*
X+6223000Y-6096000D03*
X+6223000Y-5842000D03*
X+6223000Y-5588000D03*
X+6223000Y-5334000D03*
D29*
X+10160000Y-4191000D03*
D20*
X+10160000Y-4445000D03*
X+10160000Y-4699000D03*
X+10160000Y-4953000D03*
X+10160000Y-5207000D03*
X+10160000Y-5461000D03*
X+10160000Y-5715000D03*
X+10922000Y-5715000D03*
X+10922000Y-5461000D03*
X+10922000Y-5207000D03*
X+10922000Y-4953000D03*
X+10922000Y-4699000D03*
X+10922000Y-4445000D03*
X+10922000Y-4191000D03*
D29*
X+11938000Y-5715000D03*
D20*
X+11938000Y-5461000D03*
X+11938000Y-5207000D03*
X+11938000Y-4953000D03*
X+11938000Y-4699000D03*
X+11938000Y-4445000D03*
X+11938000Y-4191000D03*
X+11176000Y-4191000D03*
X+11176000Y-4445000D03*
X+11176000Y-4699000D03*
X+11176000Y-4953000D03*
X+11176000Y-5207000D03*
X+11176000Y-5461000D03*
X+11176000Y-5715000D03*
D29*
X+8636000Y-5334000D03*
D20*
X+8636000Y-5588000D03*
X+8636000Y-5842000D03*
X+8636000Y-6096000D03*
X+8636000Y-6350000D03*
X+8636000Y-6604000D03*
X+8636000Y-6858000D03*
X+9398000Y-6858000D03*
X+9398000Y-6604000D03*
X+9398000Y-6350000D03*
X+9398000Y-6096000D03*
X+9398000Y-5842000D03*
X+9398000Y-5588000D03*
X+9398000Y-5334000D03*
D29*
X+7620000Y-5334000D03*
D20*
X+7620000Y-5588000D03*
X+7620000Y-5842000D03*
X+7620000Y-6096000D03*
X+7620000Y-6350000D03*
X+7620000Y-6604000D03*
X+7620000Y-6858000D03*
X+8382000Y-6858000D03*
X+8382000Y-6604000D03*
X+8382000Y-6350000D03*
X+8382000Y-6096000D03*
X+8382000Y-5842000D03*
X+8382000Y-5588000D03*
X+8382000Y-5334000D03*
D29*
X+10922000Y+1016000D03*
D20*
X+10922000Y+762000D03*
X+10922000Y+508000D03*
X+10922000Y+254000D03*
X+10922000Y+0D03*
X+10922000Y-254000D03*
X+10922000Y-508000D03*
X+11684000Y-508000D03*
X+11684000Y-254000D03*
X+11684000Y+0D03*
X+11684000Y+254000D03*
X+11684000Y+508000D03*
X+11684000Y+762000D03*
X+11684000Y+1016000D03*
D29*
X+3937000Y-7493000D03*
D20*
X+3937000Y-7239000D03*
X+3937000Y-6985000D03*
X+3937000Y-6731000D03*
X+3937000Y-6477000D03*
X+3937000Y-6223000D03*
X+3937000Y-5969000D03*
X+3175000Y-5969000D03*
X+3175000Y-6223000D03*
X+3175000Y-6477000D03*
X+3175000Y-6731000D03*
X+3175000Y-6985000D03*
X+3175000Y-7239000D03*
X+3175000Y-7493000D03*
D29*
X+10160000Y-6096000D03*
D20*
X+10160000Y-6350000D03*
X+10160000Y-6604000D03*
X+10160000Y-6858000D03*
X+10160000Y-7112000D03*
X+10160000Y-7366000D03*
X+10160000Y-7620000D03*
X+10922000Y-7620000D03*
X+10922000Y-7366000D03*
X+10922000Y-7112000D03*
X+10922000Y-6858000D03*
X+10922000Y-6604000D03*
X+10922000Y-6350000D03*
X+10922000Y-6096000D03*
D29*
X+508000Y-6731000D03*
D20*
X+508000Y-6985000D03*
X+508000Y-7239000D03*
X+508000Y-7493000D03*
X+1270000Y-7493000D03*
X+1270000Y-7239000D03*
X+1270000Y-6985000D03*
X+1270000Y-6731000D03*
D29*
X+12954000Y-5461000D03*
D20*
X+12954000Y-5715000D03*
X+12954000Y-5969000D03*
X+12954000Y-6223000D03*
X+12954000Y-6477000D03*
X+12954000Y-6731000D03*
X+12954000Y-6985000D03*
X+12954000Y-7239000D03*
X+12954000Y-7493000D03*
X+12954000Y-7747000D03*
X+13716000Y-7747000D03*
X+13716000Y-7493000D03*
X+13716000Y-7239000D03*
X+13716000Y-6985000D03*
X+13716000Y-6731000D03*
X+13716000Y-6477000D03*
X+13716000Y-6223000D03*
X+13716000Y-5969000D03*
X+13716000Y-5715000D03*
X+13716000Y-5461000D03*
D29*
X+12446000Y-1778000D03*
D20*
X+12446000Y-2032000D03*
X+12446000Y-2286000D03*
X+12446000Y-2540000D03*
X+12446000Y-2794000D03*
X+12446000Y-3048000D03*
X+12446000Y-3302000D03*
X+12446000Y-3556000D03*
X+12446000Y-3810000D03*
X+12446000Y-4064000D03*
X+12446000Y-4318000D03*
X+12446000Y-4572000D03*
X+13970000Y-4572000D03*
X+13970000Y-4318000D03*
X+13970000Y-4064000D03*
X+13970000Y-3810000D03*
X+13970000Y-3556000D03*
X+13970000Y-3302000D03*
X+13970000Y-3048000D03*
X+13970000Y-2794000D03*
X+13970000Y-2540000D03*
X+13970000Y-2286000D03*
X+13970000Y-2032000D03*
X+13970000Y-1778000D03*
D29*
X+6477000Y-5334000D03*
D20*
X+6477000Y-5588000D03*
X+6477000Y-5842000D03*
X+6477000Y-6096000D03*
X+6477000Y-6350000D03*
X+6477000Y-6604000D03*
X+6477000Y-6858000D03*
X+7239000Y-6858000D03*
X+7239000Y-6604000D03*
X+7239000Y-6350000D03*
X+7239000Y-6096000D03*
X+7239000Y-5842000D03*
X+7239000Y-5588000D03*
X+7239000Y-5334000D03*
D72*
X+254000Y+6858000D03*
X+508000Y+6858000D03*
D70*
X-508000Y-8255000D02*
X+15049500Y-8255000D01*
X+15049500Y+12573000D01*
X-508000Y+12573000D01*
X-508000Y-8255000D01*
M02*
